<svg width="284" height="71" viewBox="0 0 284 71" fill="none" xmlns="http://www.w3.org/2000/svg">
<path d="M38.9452 68.547H33.3037L31.779 60.6322C29.6443 65.3811 27.0523 69.4968 19.2762 69.4968C5.09629 69.4968 0.0646973 56.0416 0.0646973 36.7294C0.0646973 21.6913 3.41909 2.22079 20.6485 2.22079C35.8957 2.22079 38.1828 16.9424 38.7927 24.3823L28.1196 26.4402C27.0523 19.1585 26.29 13.9347 20.6485 13.9347C17.2941 13.9347 15.7694 15.676 14.8545 18.5253C13.4823 22.7993 13.3298 32.2971 13.3298 37.3626C13.3298 53.034 15.3119 57.7829 20.8009 57.7829C24.4603 57.7829 27.6622 56.0416 27.6622 44.8026H19.8861V33.8801H38.9452V68.547Z" fill="black"/>
<path d="M41.0198 3.19921H53.98V56.5451H69.9896V68.5757H41.0198V3.19921Z" fill="black"/>
<path d="M86.831 43.8585L90.1854 25.8127C90.9478 21.8553 91.2527 18.2144 91.7101 15.3651C92.0151 21.2221 92.4725 23.7548 93.0824 26.2876L96.5892 43.8585H86.831ZM85.9162 3.17625L71.4313 68.5527H83.0192L85.4587 54.4643H97.9615L100.554 68.5527H113.514L99.3337 3.17625H85.9162Z" fill="black"/>
<path d="M114.573 3.19921H132.26L137.139 30.7428C138.206 36.7581 138.816 43.5648 139.121 49.4218C139.578 42.2985 140.951 32.8007 141.713 29.3181L147.202 3.19921H164.584V68.5757H152.234V31.376C152.234 27.102 152.386 24.4109 152.843 11.5889C152.234 15.8629 150.709 27.4186 150.099 30.7428L142.475 68.5757H134.394L126.923 30.1096C126.161 25.6773 125.093 17.7625 124.484 11.5889C124.636 16.6544 124.789 24.7275 124.789 29.793V68.5757H114.573V3.19921Z" fill="black"/>
<path d="M185.94 13.8786C188.379 13.8786 189.751 14.8284 190.819 18.1526C192.039 21.9517 192.039 31.2912 192.039 35.2486C192.039 36.1984 192.039 47.5958 191.276 52.0281C190.666 55.5106 189.599 57.885 186.245 57.885C183.043 57.885 181.975 55.6689 181.213 53.1361C180.146 48.5455 180.146 42.2137 180.146 36.515C180.146 28.2836 180.298 21.1602 181.518 17.9943C182.433 14.9867 183.958 13.8786 185.94 13.8786ZM186.245 2.16464C171.455 2.16464 166.423 15.145 166.423 35.0903C166.423 45.5379 167.643 55.194 171.76 62.0007C172.522 63.2671 176.181 69.4407 185.94 69.4407C201.492 69.4407 205.761 55.5106 205.761 36.1984C205.761 16.5696 201.492 2.16464 186.245 2.16464Z" fill="black"/>
<path d="M220.925 3.19913V44.8311C220.925 52.9042 221.535 57.4948 227.329 57.4948C233.427 57.4948 233.58 51.6379 233.58 44.0396V3.19913H244.558V44.1979C244.558 55.7536 243.948 69.5254 226.566 69.5254C212.234 69.5254 208.117 61.9272 208.117 45.306V3.19913H220.925Z" fill="black"/>
<path d="M259.216 13.4863H262.875C266.992 13.4863 269.889 15.7024 269.889 22.5092C269.889 28.6828 267.907 32.1653 262.875 32.1653H259.216V13.4863ZM246.56 68.5735H259.216V42.9294H263.332L270.346 68.5735H283.916L274.463 40.2384C277.36 38.3388 282.696 35.0146 282.696 22.6675C282.696 20.293 282.696 12.5365 276.902 6.83783C273.548 3.6719 269.736 3.35531 262.875 3.35531H246.56V68.5735Z" fill="black"/>
</svg>
