<svg width="284" height="71" viewBox="0 0 284 71" fill="none" xmlns="http://www.w3.org/2000/svg">
<path d="M30.831 41.0664V42.2953H10.6898V41.0664C14.8339 40.9436 16.0772 40.5749 16.0772 37.2571V15.6297C16.0772 12.3119 14.834 11.9433 10.8556 11.8203V10.5915H46.4124L46.6611 17.5343H44.9206C43.4287 14.0322 41.771 12.8648 33.4826 12.8648H27.0176C25.0284 12.8648 24.614 13.172 24.614 14.4623V24.5386H27.7636C34.3943 24.5386 35.8033 23.617 36.6322 20.3606H38.2899V31.4817H36.6322C35.7205 27.7953 33.234 26.8122 27.7636 26.8122H24.614L24.5311 37.2572C24.5311 40.575 25.7744 40.9436 30.8302 41.0666L30.831 41.0664ZM87.5231 17.657H85.3681C83.9591 14.2162 81.9699 12.9875 77.4942 12.9875H72.2726V37.1949C72.2726 40.5127 73.433 40.8813 78.2403 41.0042V42.2331H57.6858V41.0042C62.4101 40.8814 63.6535 40.5127 63.6535 37.1949V12.9254H58.4319C53.9562 12.9254 51.8841 14.2156 50.558 17.5948H48.403L49.3147 10.652H86.6124L87.5231 17.657ZM0 70.9412H94.5209V0.873779H0V70.9412Z" fill="#515151"/>
<path d="M113.797 41.3737C113.797 42.9711 114.378 43.094 116.864 43.1555V43.7084H107.249V43.1555C109.239 43.094 109.819 42.9097 109.819 41.3737V31.0516C109.819 29.4541 109.239 29.3313 107.332 29.2698V28.7168H124.24L124.323 32.0346H123.494C122.831 30.3757 122.002 29.8227 118.024 29.8227H114.874C113.88 29.8227 113.714 29.9456 113.714 30.6214V35.4139H117.195C120.428 35.4139 121.091 34.9838 121.422 33.4477H122.168V38.7931H121.422C121.008 37.0113 119.765 36.5199 117.195 36.5199H113.714V41.3736H113.797L113.797 41.3737ZM133.855 41.3737C133.855 42.9711 134.435 43.094 136.922 43.1555V43.7084H126.81V43.1555C129.213 43.094 129.876 42.9097 129.876 41.3737V31.0516C129.876 29.4541 129.379 29.3313 126.81 29.2698V28.7168H136.922V29.2698C134.518 29.3312 133.855 29.5155 133.855 31.0516V41.3737ZM157.891 31.4203C157.891 29.9457 157.394 29.3314 155.073 29.147V28.5941H162.284V29.147C160.046 29.3314 159.466 29.9458 159.466 31.4203V44.0161H158.389L144.464 32.0961V40.8207C144.464 42.2954 144.961 42.9097 147.282 43.094V43.647H140.071V43.094C142.309 42.9097 142.889 42.2953 142.889 40.8207V30.7444C142.226 29.8228 141.397 29.3927 140.071 29.2084V28.6554H145.624L157.808 39.1004V31.4203L157.891 31.4203ZM168.749 38.3017L171.816 32.3419L174.882 38.3017H168.749H168.749ZM183.337 43.7085V43.1555C181.762 43.1555 181.43 42.7255 180.684 41.3123L173.473 28.287H172.479L165.019 41.7428C164.522 42.7259 163.776 42.9717 162.533 43.156V43.7089H169.08V43.156C167.671 43.156 167.008 42.9102 167.008 42.1729C167.008 41.5585 168.003 39.8382 168.169 39.4081H175.545C175.794 39.8996 176.789 41.62 176.789 42.1729C176.789 42.9102 176.043 43.156 174.634 43.156V43.7089H183.336L183.337 43.7085ZM203.146 31.4201C203.146 29.9455 202.648 29.3311 200.328 29.1468V28.5939H207.539V29.1468C205.301 29.3312 204.721 29.9456 204.721 31.4201V44.0159H203.643L189.719 32.0959V40.8205C189.719 42.2951 190.216 42.9095 192.537 43.0938V43.6467H185.326V43.0938C187.564 42.9095 188.144 42.2951 188.144 40.8205V30.7442C187.481 29.8226 186.652 29.3925 185.326 29.2082V28.6552H190.879L203.063 39.1002L203.146 31.4201L203.146 31.4201ZM228.923 40.2061C226.768 42.9095 223.95 44.1383 219.806 44.1383C213.175 44.1383 209.197 40.9434 209.197 36.0896C209.197 32.6488 212.843 28.2866 219.971 28.2866C222.126 28.2866 225.11 29.2082 225.607 29.2082C226.188 29.2082 226.353 28.9625 226.934 28.2866H228.011L228.426 33.3247H227.597C226.353 30.99 224.281 29.2697 220.717 29.2697C215.91 29.2697 213.838 33.1404 213.838 36.0282C213.838 40.0833 216.159 42.8481 221.298 42.8481C225.276 42.8481 227.431 40.6362 228.343 39.7146L228.923 40.2061L228.923 40.2061ZM238.703 41.3735C238.703 42.9709 239.283 43.0938 241.77 43.1553V43.7082H231.658V43.1553C234.062 43.0938 234.725 42.9095 234.725 41.3735V31.0514C234.725 29.4539 234.144 29.331 231.658 29.2696V28.7166H241.77V29.2696C239.366 29.331 238.703 29.5153 238.703 31.0514V41.3735ZM250.141 38.3015L253.208 32.3417L256.274 38.3015H250.141H250.141ZM264.729 43.7083V43.1553C263.154 43.1553 262.822 42.7253 262.077 41.3121L254.866 28.2868H253.871L246.411 41.7426C245.914 42.7257 245.168 42.9714 243.925 43.1558V43.7087H250.473V43.1558C249.064 43.1558 248.401 42.91 248.401 42.1727C248.401 41.5583 249.395 39.838 249.561 39.4079H256.938C257.186 39.8994 258.181 41.6198 258.181 42.1727C258.181 42.91 257.435 43.1558 256.026 43.1558V43.7087H264.729L264.729 43.7083ZM266.552 43.7083V43.1553C268.459 43.0939 269.039 42.9096 269.039 41.3735V31.0514C269.039 29.454 268.459 29.3311 266.552 29.2697V28.7167H275.918V29.2697C273.68 29.3311 273.1 29.5154 273.1 31.0514V41.6809C273.1 42.6025 273.432 42.9098 275.669 42.9098C279.316 42.9098 281.471 42.4182 283.212 39.7763H283.958L282.549 43.8313H266.386V43.7085L266.552 43.7083ZM111.559 67.5473C113.88 67.4858 114.46 67.3015 114.46 65.7655V54.1528H111.974C109.653 54.1528 108.658 54.8901 107.995 56.9177H107.166L107.664 53.0469H125.567L126.064 56.9177H125.235C124.572 54.8287 123.661 54.1528 121.257 54.1528H118.77V65.7655C118.77 67.3629 119.351 67.4858 121.671 67.5473V68.1002H111.891V67.5473H111.56H111.559ZM135.099 65.7655C135.099 67.3629 135.679 67.4858 138.165 67.5473V68.1002H128.053V67.5473C130.457 67.4858 131.12 67.3015 131.12 65.7655V55.4434C131.12 53.8459 130.54 53.723 128.053 53.6616V53.1086H138.165V53.6616C135.762 53.723 135.099 53.9073 135.099 55.4434V65.7655ZM159.549 52.9855H166.595V53.5384C164.688 53.5999 164.108 53.7842 164.108 55.3202V65.7037C164.108 67.3012 164.688 67.424 166.595 67.4855V68.0385H157.395V67.4855C159.384 67.424 159.964 67.2397 159.964 65.7037V55.0742H159.881L153.085 68.2837H152.09L145.376 55.0742H145.293V65.2734C145.293 66.748 145.791 67.3623 148.111 67.5466V68.0996H140.901V67.5466C143.138 67.3623 143.719 66.7479 143.719 65.2734V54.9513C143.719 53.9068 143.138 53.5381 140.901 53.5381V52.9851H148.277L153.665 63.4916L159.549 52.9851L159.549 52.9855ZM169.413 68.1002V67.5472C171.319 67.4858 171.899 67.3015 171.899 65.7654V55.4433C171.899 53.8459 171.319 53.723 169.413 53.6615V53.1086H186.404L186.487 56.4264H185.658C184.995 54.7674 184.167 54.2145 180.188 54.2145H177.039C176.044 54.2145 175.878 54.3374 175.878 55.0132V59.8056H179.359C182.592 59.8056 183.255 59.3755 183.586 57.8395H184.332V63.1849H183.586C183.172 61.4031 181.929 60.973 179.359 60.973H175.878V66.1954C175.878 67.117 176.21 67.4243 179.857 67.4243C183.504 67.4243 185.658 66.9327 187.399 64.2908H188.145L186.736 68.3458H169.247V68.1001L169.413 68.1002ZM190.963 63.3693H191.709C192.537 65.3354 195.19 67.4858 198.174 67.4858C200.743 67.4858 201.655 66.1341 201.655 64.9667C201.655 61.4646 191.046 60.8502 191.046 56.5494C191.046 54.4604 193.698 52.6786 196.847 52.6786C199.914 52.6786 200.992 53.4773 202.318 53.4773C202.898 53.4773 203.312 53.1701 203.395 52.6786H204.141V57.5324H203.395C202.566 55.3205 200.411 53.723 197.676 53.723C195.438 53.723 194.527 54.8289 194.527 55.8735C194.527 58.9455 205.136 59.0069 205.136 64.3523C205.136 66.7485 202.566 68.5303 198.837 68.5303C195.273 68.5303 194.361 67.6087 192.952 67.6087C192.455 67.6087 192.123 67.8545 191.874 68.4074H190.797L190.963 63.3693L190.963 63.3693Z" fill="#515151"/>
</svg>
