<svg width="284" height="71" viewBox="0 0 284 71" fill="none" xmlns="http://www.w3.org/2000/svg">
<g clip-path="url(#clip0_1_3633)">
<path fill-rule="evenodd" clip-rule="evenodd" d="M144.74 36.5983L145.364 36.7137C145.285 36.541 145.403 36.2517 145.403 36.2517C144.933 36.3285 144.817 36.473 144.817 36.473L144.154 36.4921L144.74 36.5983ZM170.336 37.8501C170.258 37.8115 170.14 37.783 169.943 37.783C169.75 37.783 169.554 37.8306 169.554 37.8983C169.554 37.966 169.75 38.0137 169.943 38.0137C170.177 38.0137 170.375 37.966 170.375 37.8983C170.373 37.8795 170.336 37.8692 170.336 37.8501ZM170.32 37.3981C170.33 37.4063 170.336 37.4166 170.336 37.4264C170.332 37.4752 170.208 37.5186 170.022 37.5353V37.6774C170.24 37.6828 170.439 37.7104 170.571 37.7535C170.697 37.7951 170.765 37.8458 170.765 37.898C170.765 38.0018 170.524 38.0856 170.175 38.1117C171.14 38.0932 171.744 38.0716 171.744 38.0716C170.804 38.0231 171.351 37.8886 171.351 37.8886C171.782 37.8015 172.602 37.7338 172.602 37.7338C171.625 37.7047 171.079 37.5125 170.841 37.3972H170.32V37.3981ZM169.829 38.1175C169.454 38.1023 169.164 38.0121 169.164 37.8983C169.164 37.7894 169.432 37.7016 169.788 37.6816V37.5402C169.57 37.5317 169.396 37.4895 169.361 37.4355L169.357 37.4364C168.968 37.4646 168.615 37.4646 168.615 37.4646C168.537 37.5129 168.693 37.5323 168.693 37.5323C169.513 37.6768 168.968 37.8115 168.968 37.8115C168.578 37.8983 168.382 37.8983 168.382 37.8983C167.991 37.9275 167.053 38.1299 167.053 38.1299C168.097 38.1378 169.054 38.1299 169.829 38.1175ZM159.12 37.2245C159.19 37.2245 159.259 37.219 159.316 37.209L160.096 37.2922C160.096 37.3496 160.252 37.3984 160.449 37.3984C160.57 37.3984 160.677 37.379 160.74 37.3517L161.401 37.3757C161.444 37.4239 161.578 37.4564 161.737 37.4564C161.918 37.4564 162.1 37.4154 162.124 37.3562L162.677 37.2919C162.742 37.3159 162.839 37.331 162.951 37.331C163.145 37.331 163.342 37.2828 163.342 37.2248L163.694 37.0812C164.359 37.0937 165.026 37.0907 165.687 37.0712C166.742 36.9359 167.602 36.8591 167.602 36.8591C167.287 36.9164 166.974 36.9653 166.778 37.023C166.581 37.0709 166.399 37.1225 166.232 37.1769C165.945 37.2278 165.782 37.3116 165.801 37.3987C165.83 37.4537 165.91 37.5065 166.033 37.5526C166.23 37.6103 166.505 37.6397 166.505 37.6397L166.936 37.7359C166.583 37.8036 165.801 37.851 165.801 37.851C165.37 37.8904 164.786 37.8227 164.786 37.8227C163.418 37.746 162.95 37.8995 162.95 37.8995C162.675 37.9763 162.167 37.9866 162.167 37.9866L162.401 38.0735C161.892 38.112 161.621 38.0637 161.621 38.0637C161.581 37.8998 161.933 37.7362 161.933 37.7362C161.776 37.4764 159.586 37.5241 159.586 37.5241L159.041 37.3981L158.923 37.369L157.673 37.08C157.673 37.1668 157.517 37.2922 157.324 37.3984C157.166 37.4846 156.97 37.562 156.97 37.562L156.502 37.5037C156.591 37.4719 156.656 37.4361 156.696 37.3984C157.085 37.1668 157.359 36.8393 157.359 36.8393C157.593 36.8393 157.792 36.8494 157.945 36.8588C158.064 36.8779 158.143 36.8879 158.143 36.8879C158.234 36.8985 158.332 36.9088 158.439 36.9192L158.87 37.07C158.83 37.0879 158.809 37.108 158.809 37.1283C158.807 37.186 158.923 37.2245 159.12 37.2245ZM163.483 37.0746L163.255 37.1544C163.191 37.1274 163.076 37.1104 162.95 37.1092C162.753 37.1092 162.597 37.1568 162.597 37.2245C162.597 37.2336 162.6 37.243 162.61 37.2512L162.111 37.3086C162.058 37.2634 161.898 37.2239 161.737 37.2239C161.545 37.2239 161.387 37.2816 161.387 37.3392L160.793 37.314C160.799 37.3068 160.801 37.2992 160.801 37.2919C160.801 37.2342 160.642 37.1756 160.449 37.1756C160.301 37.1756 160.181 37.2078 160.128 37.2482L159.438 37.1714C159.461 37.1577 159.472 37.1432 159.471 37.1283C159.471 37.08 159.315 37.0324 159.118 37.0324C159.087 37.0321 159.056 37.0333 159.028 37.0363L158.843 36.9547H158.841C159.836 37.0348 161.07 37.09 161.07 37.09H161.93L162.205 36.9838C162.56 37.0327 163.019 37.0606 163.483 37.0746ZM158.852 35.4298C158.884 35.4395 158.913 35.4486 158.945 35.4568L158.896 35.4787C158.87 35.4744 158.839 35.472 158.809 35.4714C158.652 35.4714 158.534 35.5099 158.534 35.5488L158.497 35.5391L158.182 35.4523L158.067 35.4234L157.363 35.2404C156.542 34.9709 155.292 35.2404 155.292 35.2404L155.098 35.2018C155.76 35.1053 155.177 34.9803 155.177 34.9803L156.465 34.1614L156.112 34.0555C156.74 33.7374 155.411 33.728 155.411 33.728C155.018 33.439 154.315 33.5741 154.315 33.5741C154.083 33.2945 153.221 33.439 153.221 33.439C152.909 33.2466 152.166 33.3619 152.166 33.3619L152.202 32.9091L151.345 32.9185L150.405 32.9091L150.484 33.3713C149.548 33.256 149.388 33.487 149.388 33.487C148.296 33.3328 148.296 33.6314 148.296 33.6314C147.396 33.5638 147.435 33.7759 147.435 33.7759C146.225 33.8047 146.381 34.0649 146.381 34.0649L147.317 34.8546C147.084 34.9991 144.31 35.8371 144.31 35.8371L143.136 35.7506L143.058 35.7027C143.331 35.7412 143.527 35.7218 143.527 35.7218C143.411 35.6253 143.565 35.4328 143.565 35.4328C143.918 35.0574 143.293 34.9223 143.293 34.9223C143.331 34.7681 142.901 34.5854 142.901 34.5854C143.487 34.4024 142.628 34.2194 142.628 34.2194L142.51 34.1708L142.471 33.7759C142.315 33.7759 142.236 33.7277 142.236 33.7277C142.002 33.5638 141.572 33.67 141.572 33.67C141.26 33.497 140.751 33.6314 140.751 33.6314C140.32 33.487 139.89 33.6314 139.89 33.6314L139.539 33.3519L138.367 33.4672L138.759 33.7756C137.898 33.727 138.172 33.9392 138.172 33.9392C137.429 33.9489 137.781 34.1125 137.781 34.1125C137.078 34.1319 137.351 34.3247 137.351 34.3247L138.132 34.6425C137.506 34.8155 138.094 34.9314 138.094 34.9314C138.289 35.0182 138.525 35.0182 138.525 35.0182C138.172 35.2786 138.642 35.5482 138.642 35.5482C138.133 35.6926 137.391 35.808 136.727 35.8945C135.75 36.0104 134.89 36.0681 134.89 36.0681C133.365 36.1552 130.357 36.3956 130.357 36.3956C129.301 36.4627 127.622 36.588 127.622 36.588C125.511 36.7425 124.964 36.5789 124.964 36.5789C124.456 36.5012 124.847 36.2991 124.847 36.2991C125.355 36.0487 126.411 35.9907 126.411 35.9907C127.154 36.1069 127.426 36.1737 127.426 36.1737C127.895 36.29 128.716 36.28 128.716 36.28L128.756 36.2414C129.107 36.2514 129.342 36.2223 129.342 36.2223C129.107 36.1646 129.107 36.0969 129.107 36.0969C129.107 36.049 128.833 35.9722 128.833 35.9722L134.265 35.9142C134.462 35.9054 134.617 35.9054 134.774 35.8951C136.648 35.8086 137.079 35.7027 137.079 35.7027C138.368 35.4516 137.822 35.0376 137.822 35.0376C137.117 34.6334 135.75 34.6136 135.75 34.6136C134.695 34.5462 133.914 34.5851 133.914 34.5851C133.328 34.5948 132.118 34.5177 132.118 34.5177C132.077 34.5751 132.586 34.7581 132.586 34.7581C132.231 34.766 131.88 34.7384 131.609 34.6813C130.983 34.5368 129.967 34.6042 129.967 34.6042C130.124 34.6813 131.063 34.8743 131.063 34.8743C130.515 34.8838 129.032 34.7299 129.032 34.7299C129.305 35.048 130.79 35.2692 130.79 35.2692C132.549 35.4523 134.072 35.2598 134.072 35.2598C134.814 35.1445 135.557 35.0765 135.557 35.0765C135.668 35.0641 135.788 35.0577 135.91 35.0577C136.292 35.0577 136.628 35.1211 136.729 35.2116C136.652 35.5391 135.674 35.5488 135.674 35.5488C132.86 35.6929 129.108 35.5967 129.108 35.5967C129.381 35.5099 129.421 35.2884 129.421 35.2884L129.108 35.3078C127.468 35.2692 127.037 35.356 127.037 35.356C126.451 35.4428 126.177 35.6259 126.177 35.6259C125.435 35.703 124.848 35.7989 124.417 35.8954C123.324 36.1561 123.207 36.4445 123.207 36.4445C123.128 36.7914 123.91 36.8399 123.91 36.8399C123.207 37.1762 124.261 37.3019 124.261 37.3019C124.73 37.2157 124.925 37.1189 124.925 37.1189C125.863 36.9462 128.599 36.8011 128.599 36.8011C128.051 36.9076 127.737 37.2248 127.737 37.2248C127.269 37.2634 126.487 37.1957 126.487 37.1957C126.058 37.1866 126.058 37.2734 126.058 37.2734L125.862 37.3884L125.589 37.6009C123.908 37.5814 124.143 37.8218 124.143 37.8218L123.908 38.4671C124.299 38.7078 124.924 38.6696 124.924 38.6696V38.4289H125.353C125.862 38.6887 126.644 38.7467 126.644 38.7467H126.879C127.151 38.7275 127.269 38.8244 127.269 38.8244L127.543 38.8332L127.581 38.6696L127.893 38.6605C128.09 38.6799 128.205 38.7567 128.205 38.7567H128.439C128.517 38.7178 128.558 38.6122 128.558 38.6122C128.87 38.5636 128.79 38.3909 128.79 38.3909C129.417 38.3618 130.081 38.4201 130.081 38.4201L130.043 38.5636C130.511 38.7567 131.098 38.7855 131.098 38.7855C131.49 38.814 132.074 38.8332 132.779 38.8432C133.991 38.8623 135.514 38.8523 136.921 38.8432C138.448 38.8241 139.973 38.7952 141.494 38.7561C141.65 38.8137 141.728 38.8046 141.728 38.8046C142.391 38.862 143.134 38.6884 143.134 38.6884L142.901 38.8046C143.409 38.7946 143.956 38.7078 143.956 38.7078C144.092 38.7536 144.284 38.7873 144.503 38.8046L144.621 38.7755L144.778 38.8329C145.089 38.7943 145.285 38.6602 145.285 38.6602C145.639 38.737 146.146 38.7175 146.146 38.7175L146.304 38.7752L146.418 38.7266C146.651 38.7661 147.082 38.8137 147.082 38.8137C147.553 38.6693 147.358 38.4577 147.358 38.4577L147.475 38.5054L147.59 38.39C147.823 38.4474 148.218 38.4474 148.218 38.4474C147.475 38.5242 147.903 38.6599 147.903 38.6599C147.996 38.6978 148.132 38.7278 148.296 38.7458C148.552 38.7382 148.791 38.7807 148.843 38.8429C149.429 38.9106 149.781 38.7558 149.781 38.7558L149.86 38.6404C149.742 38.5727 149.742 38.4668 149.742 38.4668L149.86 38.5919L150.053 38.621L151.382 38.8808L152.517 38.6495C153.142 38.7558 154.002 38.7558 154.002 38.7558C154.314 38.7558 154.081 38.6599 154.081 38.6599C155.098 38.862 156.62 38.8137 156.62 38.8137C156.853 38.7661 156.698 38.7369 156.698 38.7369C156.974 38.7078 157.442 38.8046 157.442 38.8046C157.831 38.8714 158.417 38.8137 158.417 38.8137C158.38 38.7661 158.184 38.7561 158.184 38.7561C158.459 38.7561 158.303 38.6602 158.303 38.6602C158.574 38.6693 158.81 38.7464 158.81 38.7464C159.043 38.8238 159.475 38.8046 159.475 38.8046L159.512 38.7561C159.786 38.8046 160.408 38.8137 160.408 38.8137C160.568 38.7752 160.449 38.7175 160.449 38.7175C163.263 38.9297 167.442 38.8902 167.442 38.8902C172.877 38.8814 173.619 38.621 173.619 38.621C173.815 38.5627 173.697 38.496 173.697 38.496V38.4192C173.971 38.3797 174.401 38.4095 174.401 38.4095L174.008 38.6116L173.894 38.6793C174.83 38.9391 176.236 38.6501 176.236 38.6501V38.5633C176.512 38.5348 176.744 38.4577 176.744 38.4577L177.372 38.4963C177.45 38.5834 177.215 38.6793 177.215 38.6793C178.191 38.7464 178.541 38.4963 178.541 38.4963L178.036 37.8504C177.254 37.6291 175.847 37.6673 175.847 37.6673L175.807 37.5034C175.728 37.4461 175.458 37.4075 175.221 37.3981L174.918 37.3714L174.635 37.3981C174.203 37.4072 173.577 37.4072 173.577 37.4072V37.3981L173.656 37.1759V36.9261L173.577 36.839L174.401 36.8682C175.025 36.935 176.472 36.9349 176.472 36.9349C176.94 36.9835 176.94 37.0989 176.94 37.0989L176.784 37.2342C178.113 37.2051 177.956 36.839 177.956 36.839C178.892 36.646 178.658 36.1261 178.658 36.1261C178.54 36.001 178.346 35.9236 178.226 35.8945L178.19 35.8857C178.19 35.5576 176.86 35.4131 176.86 35.4131C176.627 35.3648 176.353 35.3648 176.353 35.3648C176.041 35.346 175.61 35.2204 175.61 35.2204C175.103 35.4513 175.531 35.6247 175.531 35.6247C174.749 35.5861 170.84 35.7788 170.84 35.7788C169.904 35.8368 168.341 35.7115 168.341 35.7115C167.362 35.5764 167.521 35.4034 167.521 35.4034C167.714 35.1238 168.653 35.1624 168.653 35.1624H168.927C169.749 35.1238 170.335 35.2009 170.335 35.2009C171.975 35.3934 174.905 35.2009 174.905 35.2009C176.311 35.0659 176.704 34.6133 176.704 34.6133C175.765 34.8255 174.868 34.7869 174.868 34.7869C174.669 34.7966 174.474 34.8097 174.282 34.8255C174.438 34.6616 175.217 34.5845 175.217 34.5845C174.203 34.4786 173.109 34.6616 173.109 34.6616C172.562 34.8061 171.35 34.8543 171.35 34.8543C172.246 34.7675 172.718 34.5268 172.718 34.5268C172.131 34.6133 171.077 34.5939 171.077 34.5939C169.474 34.5168 167.716 34.8731 167.716 34.8731C166.112 35.2392 166.894 35.6438 166.894 35.6438C167.091 35.7591 167.559 35.8462 168.067 35.8942C168.81 35.9813 169.589 36.0004 169.589 36.0004C171.271 36.0487 174.711 35.9521 174.711 35.9521C175.023 35.9327 175.375 35.9327 175.375 35.9327C174.748 36.0487 174.633 36.3088 174.633 36.3088C175.257 36.2514 175.725 36.2514 175.725 36.2514L175.688 36.29C176.432 36.2608 177.053 36.29 177.053 36.29C177.446 36.2991 177.525 36.2132 177.525 36.2132C177.993 36.3859 177.053 36.5792 177.053 36.5792C176.508 36.7137 175.297 36.6075 175.297 36.6075C174.633 36.5307 172.911 36.5012 172.911 36.5012C172.599 36.4053 169.043 36.232 169.043 36.232C168.846 36.1449 168.496 36.1834 168.496 36.1834L168.182 36.1737C167.871 35.9907 167.168 36.0969 167.168 36.0969C166.66 36.0778 165.839 35.9625 165.368 35.8945C165.135 35.8659 165.018 35.8371 165.018 35.8371C166.893 35.3266 166.775 34.7778 166.775 34.7778C166.542 33.9878 163.924 33.8627 163.924 33.8627C163.534 33.6314 162.284 33.6123 162.284 33.6123L162.205 33.6606L162.321 33.728C162.284 33.7762 162.517 33.863 162.517 33.863L162.009 33.8916L158.843 33.439C158.064 33.391 158.375 33.5543 158.375 33.5543L158.532 33.6123L161.268 34.142C160.993 34.2767 160.057 34.4503 160.057 34.4503L159.704 34.4695L159.273 34.5851L159.314 34.7393C159.117 34.7778 158.686 34.7778 158.686 34.7778L158.649 34.8743C158.921 34.9709 159.703 34.9709 159.703 34.9709L160.327 35.1248C160.524 35.1539 160.68 35.1153 160.68 35.1153L161.226 34.9612L161.969 34.8747C162.166 34.9035 162.519 34.9132 162.519 34.9132C162.01 34.9618 161.465 35.1445 161.465 35.1445C161.034 35.1153 160.328 35.1539 160.328 35.1539L160.251 35.2598L160.229 35.2853L160.057 35.2598C159.783 34.9806 158.922 35.1539 158.922 35.1539C158.636 35.2298 158.607 35.3457 158.852 35.4298ZM158.869 35.6313C158.964 35.6207 159.04 35.5876 159.04 35.5482C159.04 35.5369 159.03 35.526 159.011 35.516L159.064 35.4835C159.187 35.5081 159.339 35.5212 159.497 35.5212C159.9 35.5178 160.056 35.3746 160.056 35.3746H160.153L160.056 35.4899C159.663 35.5479 159.314 35.7403 159.314 35.7403L158.869 35.6313ZM159.114 35.356C158.905 35.2489 159.353 35.2015 159.353 35.2015C159.9 35.1821 159.784 35.3554 159.784 35.3554C159.637 35.4007 159.519 35.4177 159.422 35.4195C159.209 35.4237 159.117 35.3569 159.114 35.356ZM137.781 37.3881C137.468 37.4558 136.92 37.552 136.217 37.5617L135.904 37.6862L136.647 37.7347L136.803 37.7538L137.468 37.8024C137.468 37.8024 137.506 37.6962 138.015 37.7153C138.015 37.7153 138.367 37.4837 139.773 37.5614C139.773 37.5614 140.009 37.542 140.32 37.5805C140.438 37.6 140.555 37.6194 140.671 37.6476L140.515 37.5226C140.515 37.5226 140.671 37.4649 141.061 37.4837C141.061 37.4837 140.905 37.4452 140.788 37.3878C140.623 37.3313 140.528 37.2643 140.515 37.1948C140.502 37.1256 140.983 37.1471 141.453 37.1665V37.0603H141.725L141.218 36.9835C141.218 36.9835 139.927 37.3392 137.504 37.1665C137.025 37.1331 136.565 37.0846 136.137 37.0221C135.708 36.9595 136.607 37.311 138.092 37.3013C138.094 37.3013 137.977 37.3398 137.781 37.3881ZM131.49 37.3881C132.27 37.4458 133.64 37.4752 133.64 37.4752C133.521 37.5034 133.404 37.5326 133.287 37.552C132.859 37.6388 132.507 37.6582 132.507 37.6582C132.273 37.7542 132.391 37.9284 132.391 37.9284C132.507 37.9669 132.859 37.9951 133.172 38.0243C133.563 38.0628 133.952 38.092 133.952 38.092C133.476 38.1159 132.984 38.1159 132.507 38.092C132.076 38.0823 131.805 38.0528 131.805 38.0528L131.999 37.9566C131.843 37.7059 130.318 37.6774 130.318 37.6774L130.397 37.562C130.592 37.5037 130.789 37.437 130.866 37.3884C130.916 37.3708 130.954 37.3514 130.983 37.331C131.061 37.3505 131.257 37.3696 131.453 37.3884H131.49V37.3881ZM159.316 38.1876C159.198 38.207 159.12 38.2264 159.12 38.2644C159.12 38.2644 159.198 38.322 159.706 38.3606C159.706 38.3606 159.784 38.255 159.666 38.1393C159.665 38.1393 159.471 38.1584 159.316 38.1876ZM141.494 38.0137L141.767 37.9945C141.767 37.9945 141.494 37.9369 141.455 37.8983C141.455 37.8983 141.455 37.8215 141.105 37.7538L141.143 37.8215V37.9177L141.26 37.9469V38.0237L141.494 38.0137ZM142.745 38.3515L142.784 38.496L143.293 38.3606C143.21 38.3609 143.134 38.35 143.096 38.3321C142.901 38.2935 142.784 38.2361 142.784 38.2361L142.745 38.3515ZM144.511 37.3917C144.809 37.3836 145.057 37.3884 145.198 37.4303C145.194 37.369 145.304 37.3074 145.676 37.2919C145.676 37.2919 144.854 37.253 144.112 37.1854C143.644 37.1468 143.175 37.0985 143.018 37.0409L142.666 37.07L142.391 37.0985V37.1277C142.391 37.1277 143.134 37.1559 143.525 37.2339V37.1945C143.525 37.1948 144.236 37.2278 144.511 37.3917ZM146.573 37.7733C146.573 37.7538 146.613 37.7347 146.613 37.7056L147.199 37.8601C147.199 37.8601 147.313 37.9563 147.081 38.014C147.081 38.014 146.966 37.9857 146.81 37.9663C146.711 37.9542 146.604 37.9478 146.494 37.9472L146.458 37.8218C146.458 37.8215 146.536 37.8024 146.573 37.7733ZM99.0534 32.5139C99.0534 32.5139 104.877 33.246 105.579 33.3904C106.322 33.5349 105.931 33.6314 105.931 33.6314C105.931 33.6314 105.658 33.7276 104.993 33.7662C104.327 33.7947 104.525 33.9298 104.525 33.9298L104.447 37.3496C107.183 38.014 109.762 37.6579 109.762 37.6579C110.74 37.5811 110.623 37.369 110.623 37.369C110.623 37.369 110.819 34.152 110.74 34.0457C110.661 33.9304 110.272 33.9304 110.272 33.9304C110.272 33.9304 107.849 33.5543 107.458 33.4873C107.026 33.4202 107.496 33.3143 107.496 33.3143C107.496 33.3143 111.599 32.611 112.187 32.4762C112.773 32.3509 113.242 32.4277 113.242 32.4277C113.242 32.4277 120.003 33.3622 120.784 33.5067C121.565 33.6512 121.175 33.6991 121.175 33.6991L119.26 34.1711C118.869 34.2676 119.064 34.3541 119.064 34.3541L118.986 37.5138C118.478 38.3226 113.319 38.4389 113.319 38.4389C107.105 38.458 104.214 37.803 104.214 37.803C101.751 37.4273 98.8985 37.6871 98.8985 37.6871C95.2651 37.9951 94.9904 38.5733 94.9904 38.5733C94.8721 38.988 96.7488 39.1901 96.7488 39.1901C99.055 39.5562 102.415 39.3246 102.415 39.3246C105.268 39.0842 109.684 38.7178 109.684 38.7178C112.458 38.5733 114.646 38.6887 114.646 38.6887C117.147 38.8244 118.125 39.1133 118.125 39.1133C119.727 39.5176 119.61 40.0375 119.61 40.0375C119.727 41.1748 114.06 41.5597 114.06 41.5597C111.521 41.685 110.818 41.5406 110.818 41.5406C109.019 41.4437 110.934 41.3961 110.934 41.3961C110.934 41.3961 107.651 41.4437 111.208 41.4052C114.764 41.3767 115.156 40.9533 115.156 40.9533C116.446 40.3845 114.453 40.2882 114.453 40.2882C111.717 40.1923 108.748 40.7411 108.748 40.7411C102.104 41.4729 97.0635 40.8661 97.0635 40.8661C91.9047 40.3747 92.5691 39.4308 92.5691 39.4308C92.6858 38.2076 95.8128 37.7262 95.8128 37.7262L95.618 33.9404C95.4615 33.8439 95.0702 33.8154 95.0702 33.8154C95.0702 33.8154 92.9205 33.6032 92.5691 33.4879C92.2561 33.3722 92.7639 33.324 92.7639 33.324L97.7278 32.5148C98.3108 32.312 99.0534 32.5139 99.0534 32.5139ZM2.75935 31.936C2.01668 31.8109 2.83767 31.7435 2.83767 31.7435L10.3026 30.3947H30.0368C34.2963 30.4909 33.9449 31.8395 33.9449 31.8395L33.8666 36.8096C26.9495 37.1371 23.6274 38.5825 23.6274 38.5825C17.1782 38.1299 6.11966 38.5342 6.11966 38.5342C5.14228 38.5533 5.80664 38.3703 5.80664 38.3703C9.63662 36.7134 16.9834 36.7619 16.9834 36.7619C17.4578 36.7595 17.9225 36.7626 18.3744 36.7698L18.4129 31.9864L2.75935 31.936ZM12.6073 32.2055C14.0526 32.0419 13.7795 32.2829 13.7795 32.2829V35.0471C13.663 36.2126 9.94964 36.8488 9.94964 36.8488C8.85565 37.2151 4.67434 37.6385 4.67434 37.6385C3.2289 37.7733 4.08818 37.4264 4.08818 37.4264C5.45531 36.9261 5.45531 36.5689 5.45531 36.5689V33.246C5.45531 33.1498 5.61183 33.1112 5.61183 33.1112L12.6073 32.2055ZM19.0357 36.7835C22.4519 36.8682 24.9579 37.1665 24.9579 37.1665L24.9068 35.0294L24.8541 35.0392C24.8461 35.0367 22.1118 34.1471 19.0485 35.0719L19.0357 36.7835ZM24.9004 34.8127L24.8796 33.9164C23.8335 34.1577 21.3946 34.5635 19.0564 33.8123L19.0485 34.827C21.6231 34.1829 23.9389 34.5842 24.9004 34.8127ZM24.8732 33.6827L24.8381 32.1864C25.1112 31.936 23.7056 32.0034 23.7056 32.0034L19.0724 31.9885L19.0612 33.5234C21.6822 34.5939 24.6048 33.7635 24.8732 33.6827ZM78.8082 31.3389C78.8082 31.3389 87.4056 30.6551 88.4996 30.5877C89.6319 30.5204 89.5553 30.6551 89.5553 30.6551C89.5553 30.6551 89.3221 36.6848 89.517 36.897C89.7119 37.1092 90.1031 37.0515 90.1031 37.0515C90.1031 37.0515 92.0964 37.3984 92.526 37.4461C92.9956 37.4943 92.7607 37.6097 92.7607 37.6097L87.9151 38.5348C87.9151 38.5348 80.0204 37.6774 79.396 37.5814C78.615 37.4461 79.1228 37.3693 79.1228 37.3693L80.53 37.0224C80.53 37.0224 80.7631 32.0908 80.3735 31.8307C79.9821 31.5702 78.7316 31.4643 78.7316 31.4643C78.4569 31.3581 78.8082 31.3389 78.8082 31.3389ZM69.1568 32.36C69.4299 32.5236 70.1327 32.4951 70.1327 32.4951C73.2598 32.1867 74.5104 31.4546 74.5104 31.4546C75.2914 30.7322 73.4547 30.5398 73.4547 30.5398C71.8129 30.2988 70.6022 30.4912 70.6022 30.4912C68.7255 30.7416 68.2177 31.2236 68.2177 31.2236C67.7498 31.8592 69.1568 32.36 69.1568 32.36ZM67.7498 32.6875C67.7498 32.6875 62.6693 33.4581 62.2779 33.6026C61.8867 33.7471 62.2013 33.8151 62.2013 33.8151C62.2013 33.8151 64.3893 34.152 64.9755 34.2096C65.5999 34.2579 65.3652 34.335 65.3652 34.335L65.5218 36.8393C65.5999 36.907 65.5218 37.08 65.5218 37.08C65.5218 37.08 64.6609 37.2536 64.1929 37.3499C63.6467 37.4652 64.0747 37.5814 64.0747 37.5814L71.9311 38.5542C71.9311 38.5542 77.2447 37.6103 77.7142 37.562C78.1822 37.5138 77.7142 37.4175 77.7142 37.4175C77.7142 37.4175 75.408 37.09 75.0182 37.0418C74.6285 36.9932 74.785 36.8973 74.785 36.8973C74.785 36.8973 74.472 34.4212 74.7068 34.2093C74.9016 34.0072 75.1748 34.0743 75.1748 34.0743C75.1748 34.0743 75.8775 34.0263 76.5036 33.9298C77.0898 33.8336 76.5435 33.7468 76.5435 33.7468C76.5435 33.7468 69.2351 32.8031 68.6889 32.6875C68.1394 32.5718 67.7498 32.6875 67.7498 32.6875ZM35.3712 36.8582C35.352 36.839 35.9764 38.3129 43.6363 38.5539L48.7167 37.5429C48.7167 37.5429 48.9899 37.4267 49.3811 37.5229L57.9785 38.5539L63.2154 37.5429C63.2154 37.5429 63.4502 37.4267 63.0589 37.3113L59.4239 36.7137V34.2573C59.4239 34.2573 59.3856 34.142 59.697 34.1228L61.104 33.8436C61.104 33.8436 61.3388 33.7471 60.8709 33.622C60.4397 33.4873 51.8822 32.4471 51.8822 32.4471C51.8822 32.4471 51.5692 32.3318 50.7866 32.4662C50.7866 32.4662 41.4467 33.391 37.7732 34.5754C37.7748 34.5754 34.8441 35.0376 35.3712 36.8582ZM42.6988 36.0687C42.9335 36.174 41.1351 35.4422 41.996 34.6428C41.996 34.6428 42.1142 33.9398 45.4346 33.5835L49.929 34.3059L49.8508 37.1568C49.8508 37.1568 49.2646 37.3981 47.8192 37.2342C47.8192 37.2342 44.1058 36.7817 42.6988 36.0687ZM258.07 32.7643C258.07 32.7643 252.992 33.5252 252.598 33.6794C252.209 33.8239 252.52 33.8912 252.52 33.8912C252.52 33.8912 254.71 34.2282 255.296 34.2767C255.92 34.3253 255.686 34.4115 255.686 34.4115L255.843 36.9158C255.92 36.9835 255.843 37.1562 255.843 37.1562C255.843 37.1562 254.981 37.3201 254.514 37.4169C253.967 37.5323 254.398 37.6476 254.398 37.6476L262.253 38.6301C262.253 38.6301 267.568 37.6862 268.036 37.6282C268.504 37.5805 268.036 37.4837 268.036 37.4837C268.036 37.4837 265.768 37.1562 265.34 37.1086C264.948 37.0603 265.104 36.9641 265.104 36.9641C265.104 36.9641 264.793 34.4886 265.025 34.2767C265.222 34.0843 265.497 34.142 265.497 34.142C265.497 34.142 266.198 34.0937 266.826 33.9975C267.412 33.9013 266.863 33.8245 266.863 33.8245C266.863 33.8245 259.554 32.8802 259.007 32.7646C258.5 32.6489 258.07 32.7643 258.07 32.7643ZM180.377 31.9454C179.167 31.7818 180.027 31.7044 180.027 31.7044L186.123 30.7413C186.434 30.6739 186.709 30.7705 186.709 30.7705L192.259 31.5699C192.259 31.5699 199.761 30.5874 200.27 30.5106C200.581 30.4621 200.856 30.5298 200.856 30.5298L207.189 31.3966L213.558 30.4141C214.26 30.2696 214.456 30.3659 214.456 30.3659L221.92 31.4449C222.545 31.5411 222.27 31.5699 222.27 31.5699V36.5598C222.545 37.1756 224.657 37.4172 224.657 37.4172C225.243 37.5326 224.968 37.6197 224.968 37.6197L219.221 38.6307C214.26 38.2161 213.792 37.2245 213.792 37.2245V32.4559C213.674 32.2923 213.206 32.2538 213.206 32.2538L209.369 31.7718L209.398 33.8909H213.518L209.417 35.3481L209.442 37.1025L212.309 37.5805C212.698 37.6962 212.076 37.7153 212.076 37.7153L206.134 38.6301L197.302 37.4743C196.482 37.3389 197.106 37.2621 197.106 37.2621L199.021 36.9638V35.4319H194.816L194.832 37.3984L196.249 37.6194C196.68 37.7347 196.17 37.8115 196.17 37.8115L190.269 38.6301L182.57 37.6282C181.907 37.522 182.607 37.4364 182.607 37.4364L184.797 37.128V32.7163L180.575 31.9651L180.377 31.9454ZM208.839 31.7123C207.673 31.623 207.853 31.8015 207.853 31.8015L207.931 33.7374V33.8916H208.871L208.839 31.7123ZM208.89 35.4325H207.931V36.8488C207.968 36.8873 208.439 36.9349 208.439 36.9349L208.91 37.0142L208.89 35.4325ZM194.814 35.1584L198.277 33.8912H199.02V32.4559C198.904 32.3791 198.473 32.302 198.473 32.302L194.792 31.83L194.814 35.1584ZM194.263 31.7991C193.184 31.8049 193.121 31.9845 193.121 31.9845L193.04 37.1283C193.04 37.1568 193.392 37.1759 193.392 37.1759L194.3 37.3174L194.263 31.7991ZM225.7 36.8582C225.68 36.839 226.304 38.3129 233.966 38.5539L239.045 37.5429C239.045 37.5429 239.319 37.4267 239.71 37.5229L248.307 38.5539L253.543 37.5429C253.543 37.5429 253.777 37.4267 253.387 37.3113L249.754 36.7137V34.2573C249.754 34.2573 249.717 34.142 250.029 34.1228L251.435 33.8436C251.435 33.8436 251.669 33.7471 251.203 33.622C250.772 33.4873 242.212 32.4471 242.212 32.4471C242.212 32.4471 241.9 32.3318 241.117 32.4662C241.117 32.4662 231.777 33.391 228.103 34.5754C228.101 34.5754 225.173 35.0376 225.7 36.8582ZM233.027 36.0687C233.261 36.174 231.464 35.4422 232.326 34.6428C232.326 34.6428 232.441 33.9398 235.763 33.5835L240.258 34.3059L240.179 37.1568C240.179 37.1568 239.593 37.3981 238.146 37.2342C238.146 37.2342 234.434 36.7817 233.027 36.0687ZM269.13 31.3389C269.13 31.3389 277.686 30.6551 278.822 30.5877C279.914 30.5204 279.876 30.6551 279.876 30.6551C279.876 30.6551 279.642 36.7525 279.836 36.9647C280.033 37.1759 280.422 37.1283 280.422 37.1283C280.422 37.1283 282.415 37.4752 282.846 37.5229C283.314 37.5711 283.079 37.6865 283.079 37.6865L278.236 38.6116C278.236 38.6116 270.34 37.7541 269.716 37.6485C268.934 37.5232 269.441 37.437 269.441 37.437L270.849 37.0995C270.849 37.0995 271.081 32.0814 270.692 31.8209C270.302 31.5608 269.052 31.4649 269.052 31.4649C268.779 31.3484 269.13 31.3389 269.13 31.3389ZM259.478 32.4371C259.752 32.601 260.453 32.5718 260.453 32.5718C263.582 32.2538 264.832 31.522 264.832 31.522C265.611 30.809 263.775 30.6166 263.775 30.6166C262.135 30.3662 260.925 30.568 260.925 30.568C259.045 30.8184 258.542 31.3004 258.542 31.3004C258.07 31.936 259.478 32.4371 259.478 32.4371Z" fill="black"/>
<path fill-rule="evenodd" clip-rule="evenodd" d="M138.759 33.5068L139.306 33.4395V33.536L139.502 33.4877L139.734 33.6225L139.423 33.6322L139.62 33.6804C140.048 33.7575 139.776 33.8249 139.776 33.8249L139.579 33.8635C138.954 33.9208 139.149 33.6804 139.149 33.6804L138.954 33.7284L138.72 33.5839H139.034L138.759 33.5068Z" fill="white"/>
<path fill-rule="evenodd" clip-rule="evenodd" d="M138.172 34.1132C138.642 34.1229 138.68 34.2097 138.68 34.2097C138.718 34.0461 139.226 34.1906 139.226 34.1906C139.061 34.203 138.912 34.2264 138.797 34.2577C138.797 34.3542 139.383 34.3542 139.383 34.3542C139.89 34.2865 139.813 34.2097 139.813 34.2097C139.89 34.1035 139.383 34.1614 139.383 34.1614L139.186 34.0555L139.499 34.0461V34.0076L139.226 33.9687L140.087 33.8631L139.969 33.9496L140.047 33.9687L140.241 33.911L140.399 34.0652C140.007 34.0461 140.164 34.1326 140.164 34.1326C140.385 34.1918 140.563 34.1973 140.692 34.1845C140.801 34.1715 140.891 34.1496 140.944 34.1229C141.18 34.0555 140.906 34.0264 140.906 34.0264C140.595 34.0549 140.555 34.084 140.555 34.084C140.399 33.8819 140.827 33.9201 140.827 33.9201C140.712 33.8239 140.827 33.7757 140.827 33.7757C141.141 33.8142 141.18 33.891 141.18 33.891C141.647 33.7656 141.725 33.9004 141.725 33.9004C141.101 33.9295 141.374 34.0161 141.374 34.0161C141.521 34.0731 141.636 34.0822 141.727 34.068C141.925 34.0361 141.998 33.8898 141.998 33.8898C141.647 33.7644 140.749 33.742 140.749 33.7547L140.709 33.833L140.24 33.8522L140.162 33.7945L140.045 33.7851V33.7365C141.178 33.6306 142.195 33.8619 142.195 33.8619L142.234 34.247C140.553 34.305 138.481 34.6419 138.481 34.6419L137.661 34.2953C137.936 34.0161 138.99 33.8619 138.99 33.8619L139.146 33.9004L138.949 33.9581L139.028 34.0255L138.56 34.122L138.169 34.0734C138.001 34.1469 137.839 34.2179 137.895 34.2953L138.169 34.4398C138.717 34.4974 138.522 34.3338 138.522 34.3338C138.366 34.2853 138.169 34.3912 138.169 34.3912C137.818 34.2276 138.287 34.237 138.287 34.237C138.094 34.1906 138.172 34.1132 138.172 34.1132ZM125.471 37.6389C124.964 37.9664 125.236 38.3901 125.236 38.3901H124.923V37.8601C124.025 37.8119 124.416 37.7254 124.416 37.7254C124.767 37.6097 125.471 37.6389 125.471 37.6389ZM127.191 38.6116C127.386 38.6884 127.347 38.7947 127.347 38.7947C127.268 38.7179 126.955 38.727 126.955 38.727C126.8 38.6116 127.191 38.6116 127.191 38.6116ZM127.933 38.6116C128.129 38.5834 128.129 38.5157 128.129 38.5157C128.56 38.5631 128.285 38.7179 128.285 38.7179C128.208 38.6502 127.933 38.6116 127.933 38.6116ZM127.424 38.2365C128.051 38.2074 128.208 38.3518 128.208 38.3518C128.481 38.4195 128.481 38.3227 128.481 38.3227C128.128 38.0526 127.424 38.2365 127.424 38.2365ZM128.284 38.4195C128.479 38.4389 128.557 38.4004 128.557 38.4004C128.714 38.4866 128.517 38.5543 128.517 38.5543C128.479 38.4775 128.284 38.4775 128.284 38.4775V38.4195Z" fill="white"/>
<path fill-rule="evenodd" clip-rule="evenodd" d="M128.753 38.3023C128.363 37.9466 127.347 38.187 127.347 38.187C127.073 37.9657 127.465 37.7918 127.465 37.7918C128.051 37.8112 128.832 37.7918 128.832 37.7918C129.026 37.7918 128.949 37.8209 128.949 37.8209C129.105 37.9939 128.676 37.9939 128.676 37.9939C128.988 38.0616 129.067 38.0325 129.067 38.0325C129.693 38.0516 130.239 37.7441 130.239 37.7441C130.826 37.7344 131.529 37.8595 131.529 37.8595C131.92 37.9466 131.529 37.9748 131.529 37.9748C130.982 37.9466 130.004 37.9942 130.004 37.9942C129.887 38.0134 129.925 38.0716 129.925 38.0716C130.004 38.1293 130.044 38.3217 130.044 38.3217C129.536 38.2929 128.753 38.3023 128.753 38.3023ZM131.333 37.2427C131.489 37.0983 132.662 36.9444 132.662 36.9444C133.248 36.8867 134.107 36.8381 134.107 36.8381C135.124 36.8478 135.828 37.1171 135.828 37.1171L135.436 37.1939L135.592 37.223C135.946 37.1362 136.335 37.233 136.335 37.233C136.686 37.2804 137.545 37.3581 137.545 37.3581C137.154 37.5016 135.943 37.4443 135.943 37.4443C135.982 37.5991 135.28 37.7041 135.28 37.7041C135.749 37.8009 137.545 37.888 137.545 37.888C138.21 37.6564 138.912 37.8203 138.912 37.8203C139.07 37.8486 139.266 37.8968 139.266 37.8968C138.874 37.9454 138.991 38.0704 138.991 38.0704C138.21 38.1093 136.022 38.1093 136.022 38.1093C133.872 38.0316 132.779 37.8968 132.779 37.8968C132.583 37.868 132.701 37.8291 132.701 37.8291L132.662 37.7718C132.623 37.7041 132.859 37.7144 132.859 37.7144C133.639 37.6853 134.303 37.4737 134.303 37.4737C134.5 37.3584 134.069 37.3778 134.069 37.3778C132.74 37.3587 131.333 37.2427 131.333 37.2427Z" fill="white"/>
<path fill-rule="evenodd" clip-rule="evenodd" d="M138.289 37.716C138.798 37.5433 139.501 37.6586 139.501 37.6586C139.658 37.6868 139.814 37.7739 139.814 37.7739C139.501 37.7739 139.422 37.8416 139.422 37.8416C139.149 37.706 138.289 37.716 138.289 37.716ZM139.228 38.0526C139.149 37.9758 139.424 37.9473 139.424 37.9473C139.58 37.9755 139.735 38.0432 139.735 38.0432C139.579 38.0526 139.228 38.0526 139.228 38.0526ZM139.501 37.8896C139.852 37.9281 139.892 38.0335 139.892 38.0335L140.165 38.0243C140.244 37.8799 139.931 37.8031 139.931 37.8031C139.579 37.8122 139.501 37.8896 139.501 37.8896ZM139.892 37.6292C140.089 37.6583 140.048 37.7542 140.048 37.7542C140.321 37.8028 140.4 37.8987 140.4 37.8987C140.596 37.8696 140.907 37.8796 140.907 37.8796C140.751 37.6097 139.892 37.6292 139.892 37.6292ZM140.478 37.9372L140.517 38.014L140.946 38.0049C140.985 37.9476 140.868 37.909 140.868 37.909C140.634 37.8987 140.478 37.9372 140.478 37.9372ZM143.214 35.8569C143.293 35.9337 143.214 36.0691 143.214 36.0691C143.096 36.1264 142.784 36.2418 142.784 36.2418L143.331 36.3771L144.661 36.3862C144.817 36.2709 145.597 36.0782 145.597 36.0782C146.105 35.5003 147.393 35.2593 147.393 35.2593V35.2113C147.082 35.1919 147.044 35.1148 147.044 35.1148C147.039 35.0541 147.156 34.9964 147.355 34.9609C147.512 34.9995 147.512 34.9318 147.512 34.9318C147.434 34.9124 147.316 34.9124 147.316 34.9124L147.237 34.9509L146.887 35.0857C146.731 35.2107 145.752 35.5768 145.752 35.5768C145.44 35.6542 144.423 35.9331 144.423 35.9331L144.267 35.914C143.918 35.9246 143.214 35.8569 143.214 35.8569ZM145.482 37.4847L145.753 37.3694L145.95 37.3791C146.028 37.5138 146.381 37.6097 146.381 37.6097L146.342 37.8028C146.226 37.7351 145.951 37.7351 145.951 37.7351C146.146 37.5621 145.482 37.4847 145.482 37.4847ZM143.72 38.3801H143.448L142.783 38.5631C142.743 38.6696 142.197 38.7179 142.197 38.7179C143.252 38.6988 143.408 38.6026 143.408 38.6026C143.354 38.6526 143.275 38.7009 143.174 38.7461C143.837 38.6602 143.682 38.622 143.682 38.622C143.8 38.5252 143.761 38.5157 143.761 38.5157C143.8 38.4672 143.837 38.4581 143.837 38.4581C143.918 38.3801 143.72 38.3801 143.72 38.3801ZM144.19 38.4578C144.621 38.4769 144.854 38.4669 144.854 38.4669C145.403 38.5919 144.817 38.775 144.817 38.775C144.661 38.6878 144.74 38.6499 144.74 38.6499C144.817 38.6022 144.661 38.5437 144.661 38.5437C144.424 38.6211 144.58 38.7558 144.58 38.7558C144.112 38.7073 143.997 38.5919 143.997 38.5919C143.997 38.5157 144.19 38.4578 144.19 38.4578ZM148.566 37.3402L148.919 37.2731C149.075 37.3694 148.805 37.4653 148.805 37.4653C148.757 37.4203 148.675 37.3779 148.566 37.3402ZM148.02 37.4653C148.138 37.437 148.295 37.3791 148.295 37.3791C148.527 37.4653 148.409 37.5815 148.409 37.5815C148.216 37.5524 148.295 37.5715 148.295 37.5715L148.02 37.4653Z" fill="white"/>
<path fill-rule="evenodd" clip-rule="evenodd" d="M147.902 36.4925V36.82C149.037 36.7909 148.919 37.003 148.919 37.003C149.387 37.0419 149.076 37.2437 149.076 37.2437C149.273 37.3597 149.039 37.4944 149.039 37.4944C149.625 37.831 151.382 37.9567 151.382 37.9567L151.303 36.4828L147.902 36.4925ZM147.668 35.9143L147.709 36.1073C147.081 36.4348 147.434 36.8777 147.434 36.8777C147.299 36.8828 147.182 36.9044 147.123 36.935C146.692 36.2418 147.668 35.9143 147.668 35.9143ZM150.169 37.8605L150.13 38.5835L151.381 38.8333L152.437 38.6026V37.9476L152.006 37.9567V38.5158L151.381 38.6885L150.678 38.5631V37.9476L150.169 37.8605Z" fill="white"/>
<path fill-rule="evenodd" clip-rule="evenodd" d="M151.341 38.1963C151.457 38.1963 151.538 38.1771 151.538 38.1389C151.538 38.1007 151.457 38.0718 151.341 38.0718C151.263 38.0718 151.184 38.1004 151.184 38.1389C151.184 38.1774 151.265 38.1963 151.341 38.1963ZM151.694 38.3511C151.773 38.3511 151.851 38.3219 151.851 38.2937C151.851 38.2551 151.773 38.226 151.694 38.226C151.576 38.226 151.497 38.2551 151.497 38.2937C151.497 38.3219 151.576 38.3511 151.694 38.3511ZM151.38 38.4664C151.458 38.4664 151.539 38.4382 151.539 38.409C151.539 38.3799 151.458 38.3514 151.38 38.3514C151.265 38.3514 151.187 38.3799 151.187 38.409C151.187 38.4382 151.265 38.4664 151.38 38.4664ZM151.069 38.3407C151.187 38.3407 151.265 38.3125 151.265 38.274C151.265 38.2448 151.187 38.2157 151.069 38.2157C150.953 38.2157 150.875 38.2448 150.875 38.274C150.875 38.3125 150.952 38.3407 151.069 38.3407ZM147.708 37.5613C147.668 37.4839 147.823 37.4745 147.823 37.4745C147.979 37.5704 148.294 37.6284 148.294 37.6284V37.6193C148.409 37.686 148.762 37.7537 148.762 37.7537C148.802 37.8214 148.528 37.8214 148.528 37.8214C148.02 37.7152 147.708 37.5613 147.708 37.5613ZM148.488 37.619C148.683 37.5613 148.644 37.5124 148.644 37.5124C148.762 37.561 148.84 37.561 148.84 37.561L148.958 37.5416L149.192 37.6278C148.917 37.6378 148.76 37.7149 148.76 37.7149C148.528 37.6857 148.488 37.619 148.488 37.619ZM147.043 37.7052L147.315 37.802C147.315 37.7634 147.393 37.7343 147.393 37.7343L147.708 37.6575L147.552 37.5898L147.237 37.6766C147.159 37.6857 147.043 37.7052 147.043 37.7052ZM146.613 37.5322L146.847 37.609C146.887 37.5704 146.966 37.5613 146.966 37.5613L147.355 37.4745L147.122 37.4359L146.613 37.5322ZM145.637 36.4626V36.5688L145.751 36.5594L146.339 36.5497L145.637 36.7515L146.105 36.8289H146.769V36.7515H146.068L146.769 36.5594V36.4726L146.65 36.482H145.751L145.637 36.4626ZM145.714 36.2222L145.675 36.3181L145.751 36.299L146.65 36.3281L146.769 36.3666L146.847 36.2513H146.691L145.871 36.2222L145.714 36.1933V36.2222ZM146.415 35.7022L146.691 35.7502L146.494 35.7693C146.182 35.8367 146.379 35.8752 146.379 35.8752C146.573 35.9044 146.612 35.8467 146.612 35.8467C146.924 35.7408 147.159 35.7982 147.159 35.7982C147.552 35.8655 147.277 35.9718 147.277 35.9718L147.159 36.0103L147.122 36.0391L146.81 36.0103L146.967 35.9815C147.123 35.9523 147.081 35.905 147.081 35.905C147.004 35.8179 146.81 35.905 146.81 35.905C146.339 36.0203 146.106 35.895 146.106 35.895C145.908 35.8076 146.415 35.7022 146.415 35.7022ZM147.552 35.3842V35.4612C147.08 35.4321 147.12 35.5477 147.12 35.5477C147.235 35.6825 147.628 35.6631 147.628 35.6631V35.7211C147.079 35.7402 146.886 35.6148 146.886 35.6148C146.691 35.3939 147.552 35.3842 147.552 35.3842ZM147.901 36.4434H151.301V35.2108L147.746 35.2011L147.901 36.4434ZM147.629 33.9874C148.531 33.7937 149.621 33.6608 150.792 33.6019V33.7943C149.623 33.7564 147.629 33.9874 147.629 33.9874ZM151.851 33.6119V33.7849C154.272 33.7658 155.407 34.0259 155.407 34.0259C153.959 33.5922 151.851 33.6119 151.851 33.6119ZM150.99 33.6019V33.7949H151.655V33.6019H150.99ZM146.65 34.1124C146.418 33.8429 147.237 33.9488 147.237 33.9488L146.65 34.1124ZM147.511 33.9008C147.434 33.6216 148.176 33.7755 148.176 33.7755L147.511 33.9008ZM148.565 33.7178C148.528 33.4386 149.27 33.6022 149.27 33.6022L148.565 33.7178ZM149.582 33.5831C149.74 33.217 150.366 33.506 150.366 33.506L149.582 33.5831ZM150.794 33.3997H151.851C152.007 33.4574 151.694 33.5442 151.694 33.5442C151.341 33.5734 150.99 33.5345 150.99 33.5345C150.443 33.506 150.794 33.3997 150.794 33.3997ZM150.834 32.9663H151.851L151.539 33.082L151.732 33.1302L151.966 33.0528L152.006 33.2938L151.497 33.1976L151.732 33.3421L150.834 33.3324L151.223 33.2167L151.108 33.1879L150.715 33.2744L150.677 33.0434L151.069 33.1302L151.187 33.1011L150.834 32.9663ZM155.21 33.8234L155.796 33.9585C155.993 33.6599 155.21 33.8234 155.21 33.8234ZM154.898 33.7658L154.194 33.6693C155.013 33.4674 154.898 33.7658 154.898 33.7658ZM153.179 33.5251L153.881 33.6022C153.881 33.3035 153.179 33.5251 153.179 33.5251ZM152.905 33.5154C152.827 33.3803 152.516 33.3803 152.516 33.3803C152.162 33.3612 152.123 33.5054 152.123 33.5054L152.905 33.5154ZM147.708 34.9893C151.458 34.8062 154.82 34.9893 154.82 34.9893C155.288 35.0084 155.094 35.0952 155.094 35.0952C154.742 35.1237 154.587 35.1046 154.587 35.1046C151.694 34.9601 147.825 35.1337 147.825 35.1337C147.239 35.1432 147.357 35.0758 147.357 35.0758C147.474 34.9698 147.708 34.9893 147.708 34.9893ZM151.497 35.2108V36.4538H154.742L154.858 35.2108H151.497ZM154.742 36.4917H151.497L151.538 37.9656C153.335 37.8888 153.843 37.619 153.843 37.619C153.921 37.4833 154.74 36.9251 154.74 36.9251V36.4917H154.742ZM152.709 37.9273V38.0718C153.413 38.1872 154.272 38.2448 154.272 38.2448C154.625 38.2157 154.469 38.1386 154.469 38.1386C154.354 38.1155 154.221 38.0994 154.078 38.0909C153.336 38.0718 152.709 37.9273 152.709 37.9273ZM153.922 37.6475L154.115 37.6961L153.413 37.9468L153.295 37.8791L153.922 37.6475ZM154.27 37.7252L153.609 37.9559C154.624 38.1195 155.21 37.7346 155.21 37.7346C154.624 37.7729 154.27 37.7252 154.27 37.7252ZM154.938 35.8367V36.0683C155.288 36.2222 155.366 36.5497 155.366 36.5497L155.68 36.4149C155.641 36.0774 154.938 35.8367 154.938 35.8367ZM152.67 38.5046V38.6109C152.981 38.6786 153.802 38.7262 153.802 38.7262C154 38.7068 153.802 38.64 153.802 38.64C153.336 38.64 152.67 38.5046 152.67 38.5046Z" fill="white"/>
<path fill-rule="evenodd" clip-rule="evenodd" d="M153.959 38.4673L154.156 38.2946C154.82 38.2845 154.587 38.1015 154.587 38.1015C155.133 38.063 155.756 37.8126 155.756 37.8126L155.916 37.9094L156.149 38.0247C156.265 38.0824 156.342 38.1118 156.305 38.1118L155.953 38.1886V38.1401L155.288 38.2845L155.522 37.9668L154.898 38.3228C154.546 38.4196 153.959 38.4673 153.959 38.4673ZM154.078 38.5544C154.624 38.7565 156.423 38.7565 156.423 38.7565C156.228 38.6412 155.719 38.5929 155.719 38.5929C156.502 38.5161 157.205 38.6888 157.205 38.6888C157.636 38.7857 158.103 38.7857 158.103 38.7857C157.991 38.7462 157.861 38.7107 157.713 38.6794C157.945 38.7077 158.181 38.6885 158.181 38.6885C157.91 38.5732 157.127 38.4673 157.127 38.4673C157.948 38.361 158.652 38.6026 158.652 38.6026C159.002 38.7271 159.316 38.7565 159.316 38.7565L159.08 38.5638C159.316 38.7374 160.252 38.7857 160.252 38.7857C160.37 38.7565 160.252 38.6989 160.252 38.6989C159.981 38.6989 159.745 38.6026 159.745 38.6026L159.708 38.4099C158.847 38.3808 158.847 38.2654 158.847 38.2654C158.965 38.0924 159.589 38.0733 159.589 38.0733L159.512 37.8511C160.019 37.7358 160.997 37.8035 160.997 37.8035C160.918 37.6681 160.488 37.7066 160.488 37.7066C160.488 37.6013 159.983 37.5913 159.983 37.5913V37.6204L158.573 37.8906C158.771 38.1598 158.262 38.2463 158.262 38.2463C157.287 38.4011 156.584 38.1889 156.584 38.1889L156.034 38.276C156.542 38.2849 156.895 38.4011 156.895 38.4011L156.817 38.4205C156.565 38.3698 156.271 38.3337 155.955 38.314L155.488 38.3616L155.255 38.4102L154.078 38.5544Z" fill="white"/>
<path fill-rule="evenodd" clip-rule="evenodd" d="M157.203 37.581C157.635 37.4262 157.827 37.1758 157.827 37.1758L157.987 37.2244L157.755 37.4074L157.911 37.4459L158.182 37.292L158.379 37.3494L158.067 37.4748L158.3 37.5224L158.612 37.4168L158.809 37.4553L158.378 37.5616L158.571 37.6286L158.923 37.4939L159.198 37.5424L158.73 37.6578L158.923 37.6963L159.395 37.6001L159.551 37.6286L158.416 37.8599C158.024 37.6478 157.203 37.581 157.203 37.581ZM161.228 37.8117C162.207 37.754 161.387 37.6286 161.387 37.6286C160.526 37.5519 160.408 37.5901 160.408 37.5901C160.723 37.6192 160.683 37.6669 160.683 37.6669C161.113 37.6769 161.228 37.8117 161.228 37.8117ZM161.268 38.0429L161.621 37.8308C161.072 37.8794 160.723 37.8502 160.723 37.8502C160.137 37.8308 159.9 37.8693 159.9 37.8693C159.55 37.9179 159.825 37.9276 159.825 37.9276C160.252 38.0329 161.268 38.0429 161.268 38.0429ZM162.401 38.0135L162.596 38.0721L163.536 37.9947L162.987 38.0915L164.004 38.1106L163.536 37.9367L162.401 38.0135ZM159.588 33.7566C159.509 33.5833 159.12 33.5062 159.12 33.5062C158.689 33.4388 158.652 33.4968 158.652 33.4968C158.652 33.5833 158.923 33.6122 158.923 33.6122L159.588 33.7566ZM160.486 33.8911C160.407 33.7852 160.37 33.7758 160.37 33.7758C160.214 33.7084 160.095 33.6698 160.095 33.6698L159.588 33.5833C159.744 33.6604 159.784 33.7566 159.784 33.7566L160.486 33.8911ZM160.525 33.7372C160.758 33.8337 160.722 33.9105 160.722 33.9105L161.347 34.0647C161.347 33.9105 161.035 33.8143 161.035 33.8143L160.526 33.7181V33.7372H160.525ZM159.316 34.8065C159.041 34.8451 158.846 34.8256 158.846 34.8256C158.846 34.9222 159.55 34.9222 159.55 34.9222C159.825 34.9222 160.057 34.8548 160.057 34.8548V34.8162C159.825 34.8548 159.55 34.8648 159.55 34.8648L159.316 34.8065ZM160.174 35.4709L160.252 35.4035C160.994 35.3553 160.449 35.2205 160.449 35.2205C160.723 35.1917 160.801 35.2111 160.801 35.2111C161.151 35.1625 161.269 35.2685 161.269 35.2685C161.545 35.2111 161.737 35.2493 161.737 35.2493C161.151 35.3844 161.855 35.4324 161.855 35.4324C162.209 35.4324 162.287 35.3459 162.287 35.3459C162.131 35.3067 162.09 35.2785 162.09 35.2785C162.206 35.2894 162.312 35.3055 162.402 35.3264C162.365 35.2685 162.599 35.2685 162.599 35.2685C162.713 35.317 162.677 35.3553 162.677 35.3553C162.795 35.3264 163.03 35.3553 163.03 35.3553C162.677 35.4515 163.144 35.5383 163.144 35.5383C163.694 35.6151 163.616 35.3938 163.616 35.3938C164.005 35.3938 163.966 35.4803 163.966 35.4803L164.202 35.4324C164.28 35.49 164.28 35.5289 164.28 35.5289C164.436 35.4803 164.67 35.5195 164.67 35.5195C164.042 35.6154 164.473 35.7025 164.473 35.7025C164.67 35.7411 164.827 35.7119 164.827 35.7119L164.79 35.6445L165.295 35.664L164.79 35.8084C162.129 35.4324 160.174 35.4709 160.174 35.4709ZM161.387 33.8626L161.892 33.9397C161.855 34.0168 161.581 34.0935 161.581 34.0935C161.658 34.0168 161.387 33.8626 161.387 33.8626ZM163.807 33.9397C164.865 33.8723 165.568 34.2186 165.568 34.2186L164.788 34.1418C164.472 34.055 163.807 33.9397 163.807 33.9397ZM164.865 34.1995C165.097 34.2766 165.214 34.4016 165.214 34.4016C165.489 34.479 166.272 34.5947 166.272 34.5947C166.075 34.2766 164.865 34.1995 164.865 34.1995ZM165.371 34.5176C166.74 34.6426 166.31 34.9989 166.31 34.9989C166.113 34.8736 165.764 34.835 165.764 34.835C165.371 34.7391 165.371 34.5176 165.371 34.5176ZM165.607 34.893C165.644 34.9701 165.528 35.1049 165.528 35.1049C165.722 35.182 165.878 35.3359 165.878 35.3359C166.036 35.2973 166.232 35.0663 166.232 35.0663C166.113 34.9607 165.607 34.893 165.607 34.893ZM165.451 35.2014C165.37 35.307 164.902 35.4998 164.902 35.4998L165.097 35.5574L165.331 35.596C165.996 35.3844 165.451 35.2014 165.451 35.2014ZM173.501 38.3319L173.151 38.0044C172.876 37.8982 172.447 37.9659 172.447 37.9659C172.093 38.0329 171.663 37.9944 171.663 37.9944C171.195 37.975 171.586 37.8982 171.586 37.8982C172.213 37.8023 172.836 37.7537 172.836 37.7537C173.307 37.8023 174.164 37.7922 174.164 37.7922C174.907 37.764 174.751 37.9176 174.751 37.9176C174.791 38.0621 174.594 38.3128 174.594 38.3128C174.126 38.3128 173.501 38.3319 173.501 38.3319ZM174.751 38.3999L174.948 38.4472L174.361 38.7071L174.087 38.6685C174.476 38.5917 174.751 38.3999 174.751 38.3999ZM175.103 38.4667L174.635 38.7174C175.492 38.7559 176.12 38.6111 176.12 38.6111L176.002 38.4573C175.571 38.5049 175.103 38.4667 175.103 38.4667ZM176.863 38.3604C177.056 38.3701 177.449 38.4087 177.449 38.4087C177.605 38.236 177.252 38.0235 177.252 38.0235C177.917 38.0809 177.917 38.0135 177.917 38.0135C178.112 37.879 177.449 37.8408 177.449 37.8408C176.313 37.7537 175.923 37.7731 175.923 37.7731C176.002 37.8499 175.964 37.8982 175.964 37.8982C175.999 37.9176 175.999 37.9944 175.999 37.9944C177.095 38.0915 176.863 38.3604 176.863 38.3604ZM154.976 35.375V35.4515L155.367 35.3844L154.976 35.606L154.938 35.7411L155.563 35.4129L155.367 35.3264L154.976 35.375ZM155.095 35.789H155.251L156.071 35.6345L156.149 35.596L156.342 35.7025H156.228L155.485 35.847L155.6 35.9241L155.798 35.972L155.523 36.0009L155.095 35.789ZM155.798 36.213L155.916 36.3284L156.109 36.2992L156.423 36.2707L156.695 36.3183H157.085L156.617 36.2413L156.97 36.1453L156.814 36.03L156.735 36.0777L156.384 36.1936L155.916 36.2224L155.798 36.213ZM156.423 36.8969C156.228 36.9066 156.305 36.9354 156.305 36.9354C156.695 37.0605 156.931 36.9545 156.931 36.9545C157.049 36.8972 157.008 36.8586 157.008 36.8586L156.894 36.8495C156.894 36.9648 156.66 36.9357 156.66 36.9357C156.502 36.9348 156.423 36.8969 156.423 36.8969ZM155.994 37.0793L155.916 37.2049L156.071 37.2726L156.149 37.1567L156.539 37.2049L156.342 37.3011L156.228 37.3109L156.502 37.3494L156.773 37.1946L156.891 37.1567H156.773L155.994 37.0605V37.0793ZM148.295 38.1392C148.216 38.216 147.941 38.2068 147.941 38.2068L147.51 38.0818C147.236 37.9753 147.473 37.947 147.473 37.947L148.02 37.754C148.14 37.7725 148.236 37.7992 148.295 37.8308L147.902 37.9561C147.786 38.0238 147.979 38.0429 147.979 38.0429L148.295 38.1392Z" fill="white"/>
<path fill-rule="evenodd" clip-rule="evenodd" d="M148.84 37.7346C148.998 37.8982 148.333 37.8596 148.333 37.8596C148.1 37.975 148.451 37.975 148.451 37.975C148.998 37.9847 149.194 37.8499 149.194 37.8499C149.194 37.764 148.84 37.7346 148.84 37.7346ZM160.407 35.0666L159.939 34.9607C159.939 34.9607 160.328 34.8836 160.251 34.7874C160.251 34.7874 160.525 34.778 159.98 34.778L159.783 34.8068C159.783 34.8068 159.586 34.7874 159.55 34.7583L159.471 34.6429L159.824 34.5373L160.136 34.5467C160.364 34.4699 160.956 34.3388 161.461 34.2326L161.621 34.2769C161.424 34.3828 161.658 34.4116 161.658 34.4116C161.968 34.4599 162.089 34.3637 162.089 34.3637C162.401 34.4022 162.285 34.354 162.285 34.354C161.971 34.3367 161.621 34.2344 161.556 34.2134C161.957 34.1294 162.285 34.065 162.285 34.065C162.478 33.9594 162.793 33.9108 162.793 33.9108C162.596 33.8535 162.44 33.699 162.44 33.699C163.417 33.699 163.573 33.9494 163.573 33.9494C166.583 34.5373 164.708 35.4618 164.708 35.4618C163.807 35.2788 161.776 35.1632 161.776 35.1632C162.051 35.0284 162.712 34.9416 162.712 34.9416C164.004 34.9513 163.807 34.5658 163.807 34.5658C163.536 34.4308 163.614 34.6332 163.614 34.6332C163.064 35.076 161.658 34.6818 161.658 34.6818C161.5 34.6526 161.658 34.7488 161.658 34.7488C161.736 34.7971 161.814 34.7874 161.814 34.7874L161.933 34.8162L160.956 34.9128C160.8 34.9707 160.525 35.0669 160.525 35.0669H160.407V35.0666ZM142.236 34.3057C140.596 34.3443 138.603 34.7006 138.603 34.7006C138.368 34.7391 138.33 34.7291 138.33 34.7291C137.938 34.9024 138.76 34.9795 138.76 34.9795C138.648 35.138 138.758 35.301 139.072 35.4418C139.423 35.548 139.502 35.8179 139.502 35.8179C139.776 35.7693 139.853 35.6634 139.853 35.6634C140.166 35.9906 141.182 36.0582 141.182 36.0582C141.449 36.0728 141.677 36.1147 141.809 36.1736C141.924 36.0777 141.886 35.9814 141.886 35.9814C142.003 36.1068 142.472 36.1736 142.472 36.1736C142.551 36.0582 142.708 35.9523 142.708 35.9523C143.059 35.7696 142.785 35.5866 142.785 35.5866C142.943 35.6539 143.294 35.6734 143.294 35.6734C143.059 35.5001 143.294 35.3553 143.294 35.3553C143.412 35.182 143.137 35.0663 143.137 35.0663L143.062 34.9965C142.892 35.1179 142.979 35.307 142.979 35.307C142.784 35.2976 142.588 35.2785 142.588 35.2785C142.706 35.4515 142.236 35.6828 142.236 35.6828C141.964 35.7887 141.923 35.8658 141.923 35.8658C141.572 35.7505 140.478 35.6734 140.478 35.6734C140.301 35.619 140.145 35.5611 140.01 35.5001C139.853 35.5674 139.697 35.5486 139.697 35.5486C139.58 35.4521 139.229 35.3362 139.229 35.3362C138.955 35.2208 138.955 35.1052 138.955 35.1052C139.309 35.2691 139.426 35.3076 139.426 35.3076C139.699 35.3465 139.699 35.4806 139.699 35.4806C139.933 35.4521 139.971 35.3847 139.971 35.3847C140.519 35.606 141.262 35.6448 141.262 35.6448C141.575 35.6834 141.848 35.7508 141.848 35.7508C141.886 35.5966 142.121 35.5295 142.121 35.5295C142.589 35.3559 142.316 35.1443 142.316 35.1443C142.418 35.1993 142.623 35.2387 142.864 35.25C142.785 35.1635 142.826 35.0864 142.826 35.0864C142.89 35.0241 142.918 34.9364 142.932 34.869L142.826 34.7683C142.591 34.6429 142.552 34.5564 142.552 34.5564C142.939 34.3825 142.236 34.3057 142.236 34.3057ZM140.634 35.1625C140.945 35.2685 141.378 35.307 141.378 35.307C141.61 35.182 141.534 35.0861 141.534 35.0861C141.182 35.0955 141.026 35.0666 141.026 35.0666C140.907 35.1726 140.634 35.1625 140.634 35.1625ZM139.109 34.7391C139.657 34.7777 139.852 34.7197 139.852 34.7197C140.438 34.662 140.517 34.8162 140.517 34.8162C140.517 34.8836 140.634 34.9316 140.634 34.9316C140.803 34.9358 141.101 34.9225 141.221 34.893C141.378 34.8448 141.143 34.7965 141.143 34.7965C141.064 34.7291 140.986 34.6906 140.986 34.6906C140.986 34.5364 141.417 34.5461 141.417 34.5461C141.69 34.5558 141.885 34.4884 141.885 34.4884C141.928 34.5661 141.751 34.6417 141.455 34.6715C141.182 34.7197 141.259 34.7777 141.259 34.7777C141.532 34.893 141.298 34.9027 141.298 34.9027C141.243 34.9349 141.13 34.9586 140.994 34.9668C141.117 35.0469 141.416 35.0378 141.416 35.0378C141.846 34.9804 141.846 34.8648 141.846 34.8648C142.04 34.9993 141.846 35.0378 141.846 35.0378C142.04 35.1246 141.727 35.1632 141.727 35.1632C141.727 35.3268 141.375 35.4042 141.375 35.4042C140.047 35.2114 140.008 34.9898 140.008 34.9898C140.438 35.1729 140.868 35.0864 140.868 35.0864C140.953 35.0651 140.934 35.0035 140.918 34.9713C140.732 34.9795 140.555 34.971 140.555 34.971C140.32 34.8939 140.359 34.8363 140.359 34.8363C140.164 34.73 140.047 34.8171 140.047 34.8171C139.345 34.9219 139.109 34.7391 139.109 34.7391ZM130.082 38.0521C131.177 38.216 135.203 38.216 135.203 38.216C139.071 38.2257 141.182 38.0915 141.182 38.0915C141.65 38.0915 142.433 38.0044 142.433 38.0044C142.589 37.9947 142.509 38.0721 142.509 38.0721C142.277 38.2934 142.471 38.5152 142.471 38.5152C142.471 38.6691 141.807 38.6597 141.807 38.6597C136.14 38.8515 131.608 38.7556 131.608 38.7556C130.279 38.6983 130.239 38.524 130.239 38.524C130.552 38.2548 130.122 38.1006 130.122 38.1006C129.964 38.0721 130.082 38.0521 130.082 38.0521ZM131.333 38.6209L131.451 38.5917V38.3128L131.372 38.2642C132.232 38.2554 132.505 38.341 132.505 38.341C133.091 38.5823 132.074 38.6403 132.074 38.6403C131.824 38.6521 131.567 38.6454 131.333 38.6209ZM133.286 38.3028L133.872 38.3128C133.716 38.3319 133.755 38.3896 133.755 38.3896L133.717 38.6494L133.873 38.7068L133.248 38.6976C133.404 38.6685 133.404 38.6494 133.404 38.6494V38.3702C133.404 38.3319 133.286 38.3028 133.286 38.3028ZM131.84 38.3128L131.802 38.5829C132.232 38.5917 132.311 38.5052 132.311 38.5052C132.388 38.4576 132.232 38.3899 132.232 38.3899C132.076 38.3128 131.84 38.3128 131.84 38.3128ZM134.498 38.3319H135.631L135.669 38.3999C135.512 38.3796 135.318 38.3796 135.318 38.3796H135.083V38.4861H135.201L135.474 38.4667L135.436 38.5538L135.242 38.5438H135.084V38.66H135.357C135.514 38.66 135.631 38.6309 135.631 38.6309V38.7077L134.771 38.6986H134.537C134.498 38.6885 134.537 38.6885 134.537 38.6885C134.615 38.6885 134.694 38.6694 134.694 38.6694V38.3711C134.655 38.3513 134.498 38.3319 134.498 38.3319ZM136.256 38.3222L136.842 38.3319C136.807 38.3468 136.78 38.3629 136.765 38.3796V38.5726C136.803 38.6494 137.038 38.6403 137.038 38.6403C137.312 38.6306 137.272 38.5435 137.272 38.5435V38.3513L137.195 38.3319H137.624C137.586 38.341 137.586 38.3604 137.586 38.3604V38.5626C137.546 38.6879 137 38.6983 137 38.6983C136.414 38.6882 136.414 38.5538 136.414 38.5538V38.3607C136.373 38.3453 136.319 38.3322 136.256 38.3222ZM139.109 38.2836L140.047 38.2642L140.164 38.3319C140.047 38.3222 139.89 38.3222 139.89 38.3222H139.657V38.419H139.89C139.928 38.4093 140.008 38.3999 140.008 38.3999L140.047 38.4861C139.969 38.4667 139.89 38.4667 139.89 38.4667H139.657V38.5729H139.931C140.008 38.5729 140.127 38.5438 140.127 38.5438V38.6114L139.228 38.6406L139.305 38.6215L139.267 38.3131C139.266 38.2934 139.109 38.2836 139.109 38.2836ZM140.792 38.2451L140.83 38.3219C140.907 38.283 141.181 38.283 141.181 38.283L141.219 38.5623L141.141 38.5823L141.609 38.5623L141.53 38.5532L141.492 38.2742C141.725 38.2548 141.843 38.283 141.843 38.283L141.805 38.2066L141.766 38.2154L140.868 38.2357H140.789V38.2451H140.792ZM143.056 37.9367C142.783 37.8117 142.977 37.7255 142.977 37.7255C143.213 37.5519 143.876 37.5707 143.876 37.5707C144.267 37.628 144.23 37.5516 144.23 37.5516C144.619 37.4168 145.087 37.4939 145.087 37.4939C145.216 37.533 145.395 37.5604 145.595 37.5707C145.87 37.6578 145.714 37.7054 145.714 37.7054C145.693 37.7358 145.721 37.7671 145.791 37.7922C146.145 37.8117 146.103 37.9085 146.103 37.9085C146.181 38.0138 145.907 38.1874 145.907 38.1874C145.673 38.236 145.402 38.1965 145.402 38.1965C145.205 38.2066 145.284 38.2257 145.284 38.2257C145.481 38.3025 145.284 38.341 145.284 38.341C144.972 38.4281 144.541 38.4187 144.541 38.4187C143.917 38.4187 143.876 38.341 143.876 38.341C143.799 38.2742 143.448 38.2742 143.448 38.2742C142.939 38.2357 142.9 38.1103 142.9 38.1103C142.862 38.0426 143.056 38.0135 143.056 38.0135C143.252 37.9853 143.056 37.9367 143.056 37.9367ZM144.111 38.0238C144.268 38.1683 143.918 38.2263 143.918 38.2263C143.604 38.236 143.565 38.1777 143.565 38.1777C143.565 38.1204 143.369 38.1106 143.369 38.1106C143.252 37.9947 143.487 37.9947 143.487 37.9947C143.879 37.9659 144.111 38.0238 144.111 38.0238ZM144.854 37.9659C144.933 38.0621 145.482 38.1389 145.482 38.1389C145.753 38.1389 145.638 38.0427 145.638 38.0427C145.482 37.9944 145.56 37.9659 145.56 37.9659C145.95 37.9467 145.675 37.8596 145.675 37.8596C144.933 37.8117 144.854 37.9659 144.854 37.9659ZM144.309 37.8117C144.309 37.6286 143.837 37.6387 143.837 37.6387C143.604 37.6478 143.604 37.7057 143.604 37.7057C143.682 37.8026 143.525 37.8026 143.525 37.8026C143.174 37.8217 143.408 37.9179 143.408 37.9179C143.525 37.9565 143.604 37.947 143.604 37.947C143.955 37.947 144.23 37.8985 144.23 37.8985C144.423 37.8891 144.309 37.8117 144.309 37.8117ZM144.817 37.6092C144.933 37.6669 145.129 37.6578 145.129 37.6578C145.56 37.6578 145.285 37.764 145.285 37.764C145.052 37.8408 144.74 37.8502 144.74 37.8502C144.309 37.7258 144.347 37.6581 144.347 37.6581C144.347 37.5033 144.817 37.6092 144.817 37.6092ZM144.542 38.0721C145.129 38.0915 145.089 38.2451 145.089 38.2451C144.933 38.3128 144.778 38.2836 144.778 38.2836C144.581 38.236 144.466 38.2745 144.466 38.2745C144.466 38.3607 144.192 38.3028 144.192 38.3028C144.034 38.1006 144.542 38.0721 144.542 38.0721Z" fill="white"/>
<path fill-rule="evenodd" clip-rule="evenodd" d="M145.087 38.4575C145.673 38.4189 145.673 38.2839 145.673 38.2839C145.721 38.2802 145.765 38.2751 145.807 38.2684C146.236 38.3346 146.338 38.4192 146.338 38.4192C146.494 38.4387 146.731 38.5346 146.731 38.5346C146.691 38.4095 146.456 38.3798 146.456 38.3798C146.369 38.3191 146.226 38.2641 146.037 38.2192C146.338 38.1273 146.338 37.9855 146.338 37.9855C146.769 37.947 147.159 38.0814 147.159 38.0814C147.001 38.1008 146.848 38.0914 146.848 38.0914C147.474 38.1582 147.355 38.3995 147.355 38.3995C147.08 38.3995 146.966 38.3704 146.966 38.3704C147.434 38.5051 146.966 38.7656 146.966 38.7656C146.494 38.7173 146.415 38.5825 146.415 38.5825C146.494 38.6787 146.338 38.707 146.338 38.707C145.949 38.6876 145.791 38.5625 145.791 38.5625C145.752 38.6787 145.516 38.6302 145.516 38.6302C145.402 38.6111 145.402 38.5434 145.402 38.5434C145.207 38.5346 145.087 38.4575 145.087 38.4575ZM149.973 38.3516C149.812 38.3424 149.654 38.3297 149.501 38.3136C149.404 38.3792 149.145 38.5382 148.84 38.6211C148.84 38.6211 149.187 38.4496 149.39 38.3015C149.048 38.2623 148.732 38.211 148.451 38.1491C148.411 38.2936 147.786 38.2162 147.786 38.2162C147.474 38.3607 148.058 38.4001 148.058 38.4001C148.528 38.3901 148.762 38.3224 148.762 38.3224C149.308 38.2942 148.919 38.4001 148.919 38.4001C148.722 38.4475 148.294 38.4669 148.294 38.4669C147.708 38.5155 148.02 38.6308 148.02 38.6308C148.331 38.737 148.644 38.6985 148.644 38.6985C148.919 38.7073 148.919 38.7558 148.919 38.7558C149.115 38.8712 149.426 38.8041 149.426 38.8041C149.78 38.7073 149.583 38.6114 149.583 38.6114C149.387 38.4863 149.505 38.4387 149.505 38.4387C149.387 38.2651 149.701 38.3901 149.701 38.3901C149.78 38.4192 149.858 38.4963 149.858 38.4963C149.973 38.5634 150.015 38.5158 150.015 38.5158L149.973 38.3516ZM143.879 37.5226L144.111 37.417C144.074 37.3008 143.604 37.234 143.604 37.234C143.525 37.2725 143.604 37.3202 143.604 37.3202C143.369 37.234 142.666 37.1757 142.666 37.1757C142.588 37.224 142.666 37.3202 142.666 37.3202C142.313 37.1563 141.571 37.1472 141.571 37.1472C141.571 37.224 141.727 37.2725 141.727 37.2725C141.375 37.2049 140.671 37.224 140.671 37.224C140.789 37.3976 141.375 37.5129 141.375 37.5129L141.298 37.5615C140.868 37.4838 140.751 37.5421 140.751 37.5421C140.713 37.5512 140.751 37.5706 140.751 37.5706C140.985 37.6665 141.845 37.7536 141.845 37.7536C141.61 37.7727 141.531 37.8213 141.531 37.8213C141.845 37.9752 142.783 37.9658 142.783 37.9658C142.659 37.8608 142.668 37.7491 142.806 37.6453C142.707 37.6301 142.177 37.5469 142.002 37.5032C142.002 37.5032 141.845 37.4556 141.534 37.3879L140.986 37.2816C140.986 37.2816 141.417 37.3202 141.729 37.3785C141.729 37.3785 142.429 37.5254 142.935 37.5897C143.326 37.4975 143.879 37.5226 143.879 37.5226ZM159.824 38.0241C160.057 38.2644 159.899 38.5831 159.899 38.5831C164.278 38.9968 171.78 38.7458 171.78 38.7458C173.03 38.7073 173.072 38.6599 173.072 38.6599C173.54 38.6499 173.462 38.4766 173.462 38.4766C173.188 38.3898 173.03 38.0429 173.03 38.0429C172.013 38.1873 166.272 38.2259 166.272 38.2259C161.621 38.2556 159.824 38.0241 159.824 38.0241ZM160.37 38.1685L160.801 38.1877L161.035 38.4001L161.503 38.2362L161.892 38.2453L161.855 38.2745V38.5825L161.934 38.6211L161.387 38.602L161.466 38.5728V38.4089L160.958 38.5728L160.605 38.3704V38.5534L160.293 38.5148L160.33 38.4957L160.37 38.2156V38.1685ZM162.441 38.313C161.777 38.4669 162.441 38.6405 162.441 38.6405C162.831 38.7267 163.339 38.6405 163.339 38.6405C163.925 38.4381 163.299 38.313 163.299 38.313C162.713 38.2362 162.441 38.313 162.441 38.313ZM162.871 38.3224C162.207 38.4001 162.675 38.5731 162.675 38.5731C162.831 38.6602 163.064 38.5925 163.064 38.5925C163.379 38.5158 163.143 38.3901 163.143 38.3901C163.064 38.303 162.871 38.3224 162.871 38.3224ZM163.886 38.303H164.2L164.708 38.4766L164.667 38.3412L164.628 38.313L165.135 38.3221L165.058 38.3513V38.6788L165.097 38.707H164.823L164.277 38.5045V38.6402L164.314 38.6788L163.924 38.6687L163.961 38.6211L164 38.3412L163.886 38.303ZM166.35 38.3224H166.896C167.483 38.3224 167.601 38.5155 167.601 38.5155C167.601 38.7267 166.776 38.7176 166.776 38.7176L166.348 38.7079L166.505 38.6794L166.465 38.3519L166.35 38.3224ZM166.818 38.371V38.6791C167.326 38.6308 167.208 38.4863 167.208 38.4863C167.092 38.371 166.818 38.371 166.818 38.371ZM167.872 38.3224L168.106 38.3133C168.42 38.2748 168.81 38.3036 168.81 38.3036C169.199 38.4098 168.769 38.5057 168.769 38.5057L169.123 38.6411C169.188 38.6454 169.243 38.6554 169.279 38.6696C169.086 38.6888 168.968 38.6696 168.968 38.6696C168.614 38.6123 168.537 38.5349 168.537 38.5349H168.343V38.6794L168.38 38.7079H167.99L168.027 38.6794L167.99 38.3421L167.872 38.3224ZM168.343 38.496V38.3412C168.5 38.3027 168.614 38.3513 168.614 38.3513C168.811 38.4277 168.614 38.4763 168.614 38.4763C168.537 38.5051 168.343 38.496 168.343 38.496ZM170.061 38.2556C170.804 38.2456 170.804 38.4863 170.804 38.4863C170.726 38.6791 170.022 38.6791 170.022 38.6791C169.357 38.6599 169.32 38.4578 169.32 38.4578C169.436 38.2362 170.061 38.2556 170.061 38.2556ZM170.061 38.313C170.451 38.3221 170.415 38.4669 170.415 38.4669C170.451 38.6023 170.061 38.6308 170.061 38.6308C169.865 38.6405 169.787 38.5731 169.787 38.5731C169.554 38.3901 169.865 38.3327 169.865 38.3327C169.906 38.313 170.061 38.313 170.061 38.313ZM171.038 38.2453L171.583 38.2362L171.506 38.2748L171.545 38.6114L171.624 38.6308L171.156 38.6405L171.193 38.6211L171.156 38.2745L171.038 38.2453ZM171.976 38.2162L172.013 38.313L172.131 38.2839L172.328 38.2748V38.5831L172.288 38.6114L172.678 38.5919L172.641 38.5628V38.2453H172.912L172.876 38.1685L172.797 38.1776L172.093 38.2162H171.976ZM155.993 37.7834C156.003 37.808 156.019 37.831 156.04 37.8529C156.057 37.8501 156.075 37.8477 156.093 37.8456C156.217 37.7603 156.148 37.7257 156.148 37.7257L156.264 37.7057C156.317 37.7384 156.264 37.7976 156.224 37.8322C156.33 37.824 156.442 37.8213 156.551 37.824C156.603 37.7791 156.625 37.7327 156.616 37.6862L156.055 37.6692C155.928 37.7202 155.993 37.7834 155.993 37.7834ZM156.089 37.8966C156.187 37.9706 156.339 38.0271 156.508 38.0708C156.689 38.0371 156.648 37.9072 156.626 37.8586C156.434 37.8535 156.242 37.8671 156.089 37.8966ZM156.597 38.0927C156.78 38.1339 156.97 38.1619 157.126 38.1795C157.206 38.1297 157.237 38.076 157.214 38.0228C156.992 38.0228 156.759 38.0414 156.662 38.0489C156.639 38.0693 156.61 38.0838 156.597 38.0927ZM157.254 38.1925C157.366 38.2031 157.438 38.2071 157.438 38.2071C157.576 38.2119 157.687 38.211 157.784 38.2071L157.755 38.1194C157.631 38.1175 157.412 38.1446 157.307 38.1594L157.254 38.1925ZM157.909 38.1992C158.108 38.1813 158.253 38.1379 158.286 38.0863C158.168 38.0754 158.04 38.0726 157.916 38.0784L157.909 38.1992ZM158.299 38.0477C158.286 37.9169 158.115 37.8265 157.884 37.7615C157.912 37.7858 158.012 37.8775 157.949 37.9351L158.142 37.9172L158.179 37.9464L157.907 37.9549C157.923 37.9861 157.919 38.018 157.897 38.0493C158.103 38.0332 158.236 38.0411 158.299 38.0477ZM157.784 37.7363C157.637 37.7032 157.47 37.6765 157.288 37.6571C157.32 37.6686 157.416 37.7117 157.402 37.7755C157.514 37.7545 157.646 37.7409 157.784 37.7363ZM157.061 37.6359C156.88 37.6213 156.692 37.6128 156.502 37.6098C156.365 37.6122 156.235 37.6255 156.131 37.6477L156.705 37.6574L157.061 37.6359ZM156.724 37.6911C156.753 37.7281 156.783 37.7618 156.73 37.7949C157.024 37.7673 157.214 37.7812 157.286 37.7885C157.292 37.7469 157.253 37.7057 157.171 37.6692L156.724 37.6911ZM157.434 37.8225C157.487 37.8659 157.478 37.9124 157.412 37.9549C157.627 37.9303 157.762 37.9324 157.834 37.9379C157.864 37.8878 157.836 37.8365 157.753 37.79C157.634 37.7907 157.52 37.8022 157.434 37.8225ZM157.359 37.9949C157.401 38.0386 157.397 38.0842 157.347 38.1273C157.55 38.0732 157.733 38.0717 157.779 38.0717C157.836 38.0523 157.842 37.9901 157.836 37.974C157.673 37.9743 157.513 37.9813 157.359 37.9949ZM157.3 37.8395C157.104 37.8253 156.895 37.8286 156.708 37.8492C156.742 37.9145 156.73 37.9685 156.698 38.0092C156.871 37.9867 157.067 37.9776 157.26 37.9831C157.328 37.9369 157.342 37.8872 157.3 37.8395ZM147.629 34.9221L146.966 34.4018L147.315 34.1709L147.708 34.5463L147.355 34.5078C147.629 34.8061 148.606 34.6523 148.606 34.6523C149.037 34.5369 148.643 34.4984 148.643 34.4984C148.138 34.4307 148.057 34.5078 148.057 34.5078C147.706 34.1803 148.606 34.3056 148.606 34.3056C148.565 34.0935 148.918 34.0744 148.918 34.0744C149.386 34.1129 149.386 34.2962 149.386 34.2962C149.893 34.0938 150.209 34.3056 150.209 34.3056C150.246 34.3348 150.169 34.3921 150.169 34.3921C149.544 34.3348 149.468 34.4984 149.468 34.4984C149.387 34.6043 150.169 34.6331 150.169 34.6331C151.108 34.5658 151.108 34.315 151.108 34.315C150.834 34.3248 150.366 34.4304 150.366 34.4304V33.997C150.598 34.1029 151.187 34.1606 151.187 34.1606C151.069 33.9681 150.637 33.8622 150.637 33.8622L152.281 33.8528C151.731 33.9781 151.773 34.1612 151.773 34.1612C152.241 34.142 152.474 34.0264 152.474 34.0264L152.513 34.4018C152.161 34.2674 151.809 34.3254 151.809 34.3254C151.653 34.6137 152.67 34.6237 152.67 34.6237C153.372 34.6237 153.413 34.4792 153.413 34.4792C153.256 34.3059 152.785 34.4018 152.785 34.4018C152.592 34.1129 153.449 34.2383 153.449 34.2383C153.139 34.0458 153.683 33.9781 153.683 33.9781C154.351 34.0744 154.035 34.2383 154.035 34.2383C154.937 34.1229 154.779 34.4018 154.779 34.4018C153.921 34.3056 154.035 34.5272 154.035 34.5272C154.429 34.7582 155.208 34.5846 155.208 34.5846C155.365 34.5272 155.405 34.4692 155.405 34.4692L155.051 34.4887L155.405 34.1903L155.716 34.3445L155.949 34.1809L156.146 34.2383L155.011 34.9412C151.576 34.7488 147.629 34.9221 147.629 34.9221ZM153.452 34.7873C153.258 34.7779 153.061 34.7582 153.102 34.7391C153.102 34.7102 153.258 34.7005 153.491 34.7102C153.684 34.7196 153.881 34.7391 153.844 34.7582C153.844 34.7873 153.684 34.7967 153.452 34.7873ZM149.23 34.7967C149.426 34.7873 149.583 34.7682 149.583 34.7394C149.583 34.7199 149.387 34.7105 149.193 34.7199C148.961 34.7199 148.804 34.7488 148.804 34.7682C148.804 34.7873 148.998 34.8067 149.23 34.7967ZM151.38 34.6043L151.93 34.7199L151.38 34.8067L150.876 34.7199L151.38 34.6043ZM158.728 36.1164C158.765 35.9817 159.078 35.8278 159.078 35.8278L158.622 35.7073L158.466 35.7765C158.551 35.7962 158.61 35.8251 158.61 35.8566C158.61 35.9003 158.498 35.9389 158.358 35.955L158.321 35.9959L158.728 36.1164ZM158.498 35.6745L157.359 35.3752C156.579 35.0957 156.03 35.2308 156.03 35.2308L155.485 35.279C155.916 35.3464 156.148 35.462 156.148 35.462C156.616 35.4429 156.657 35.5006 156.657 35.5006L157.868 35.8618V35.8569C157.868 35.799 158.024 35.751 158.221 35.751C158.263 35.751 158.311 35.7534 158.352 35.758L158.498 35.6745Z" fill="white"/>
<path fill-rule="evenodd" clip-rule="evenodd" d="M156.891 35.6344C156.616 35.5579 156.423 35.4999 156.305 35.5288C156.305 35.5288 156.658 35.6924 156.93 35.8942C157.126 36.0387 157.283 36.2026 157.244 36.3565L157.827 36.3665L157.981 36.371L157.928 36.297C157.76 36.2888 157.635 36.2448 157.635 36.1932C157.635 36.1255 157.791 36.0769 157.987 36.0769C157.997 36.0769 158.009 36.0769 158.019 36.0778L158.09 35.9947C157.993 35.9664 157.895 35.9358 157.791 35.9042C157.635 35.8557 157.438 35.8074 157.283 35.7594C157.166 35.7118 157.007 35.6732 156.891 35.6344ZM158.138 36.3759L158.766 36.3959C158.766 36.3959 158.571 36.3182 158.689 36.1738L158.273 36.0511L158.227 36.1033C158.324 36.1273 158.379 36.1601 158.377 36.1941C158.375 36.2372 158.269 36.276 158.109 36.293L158.138 36.3759Z" fill="white"/>
<path fill-rule="evenodd" clip-rule="evenodd" d="M154.115 37.6096C154.39 37.7058 155.211 37.6773 155.211 37.6773C155.33 37.6582 155.29 37.5428 155.29 37.5428C155.211 37.4752 155.253 37.4366 155.253 37.4366C155.447 37.4454 155.486 37.5034 155.486 37.5034C155.486 37.5228 155.368 37.6196 155.368 37.6196C156.228 37.484 155.486 37.2241 155.486 37.2241C155.683 36.9543 155.954 36.8875 155.954 36.8875C156.852 36.6948 157.323 36.7625 157.323 36.7625C158.103 36.7625 159.394 36.8687 159.394 36.8687C159.899 36.9073 161.698 36.9841 161.698 36.9841C161.721 36.9552 161.775 36.9288 161.855 36.9073C162.363 36.8205 162.713 36.4062 162.713 36.4062C162.713 36.3394 162.831 36.3676 162.831 36.3676C162.909 36.4444 162.871 36.4738 162.871 36.4738C162.95 36.6183 162.478 36.8781 162.478 36.8781C163.418 37.0129 165.021 36.9847 165.021 36.9847C166.154 36.9847 167.051 36.8402 167.051 36.8402C168.106 36.7249 169.434 36.7531 169.434 36.7531L169.397 36.6957C168.421 36.5892 169.086 36.4641 169.086 36.4641L168.693 36.3294C167.639 36.3102 164.357 35.8865 164.357 35.8865C161.542 35.5014 160.058 35.5684 160.058 35.5684C158.845 35.8865 159.041 36.4165 159.041 36.4165L159.742 36.4359C159.706 36.0696 160.604 35.8768 160.604 35.8768C160.878 35.848 160.681 35.9251 160.681 35.9251C159.706 36.2811 160.095 36.5318 160.095 36.5318C159.664 36.4836 157.084 36.455 157.084 36.455C156.661 36.4271 156.208 36.4444 155.837 36.5027C155.366 36.5995 155.173 36.7534 155.173 36.7534L154.665 37.1874C154.156 37.4557 154.115 37.6096 154.115 37.6096ZM165.021 36.4826C164.864 36.6851 164.357 36.907 164.357 36.907C164.435 36.974 164.746 36.8684 164.746 36.8684C165.1 36.7136 165.214 36.5015 165.214 36.5015C165.135 36.3391 165.021 36.4826 165.021 36.4826ZM163.729 36.3479C163.536 36.6462 162.95 36.8393 162.95 36.8393C162.831 36.9161 163.182 36.8584 163.182 36.8584C163.691 36.6851 163.847 36.3673 163.847 36.3673C163.807 36.2802 163.729 36.3479 163.729 36.3479ZM164.357 36.435C164.316 36.6374 163.613 36.8584 163.613 36.8584C163.457 36.9264 163.807 36.8875 163.807 36.8875C164.435 36.7522 164.549 36.4247 164.549 36.4247C164.472 36.3187 164.357 36.435 164.357 36.435ZM168.655 36.8296C168.931 36.8059 169.226 36.7998 169.516 36.8117L169.599 36.9149C169.423 36.9376 169.314 36.9835 169.319 37.0326C169.319 37.0994 169.512 37.1571 169.75 37.1571H169.786V37.307C169.367 37.3401 168.936 37.3644 168.498 37.3792C167.833 37.4178 168.301 37.514 168.301 37.514C168.655 37.5908 168.732 37.6585 168.732 37.6585C169.044 37.7456 168.537 37.8124 168.537 37.8124C167.482 37.8609 166.308 38.1207 166.308 38.1207C165.488 38.1399 164.278 38.1116 164.278 38.1116C163.963 38.0534 163.729 37.9186 163.729 37.9186C164.16 37.8227 164.549 37.938 164.549 37.938C164.903 37.9863 165.568 37.9672 165.568 37.9672C166.154 37.8904 167.015 37.7936 167.015 37.7936C167.171 37.765 167.404 37.7741 167.404 37.7741C167.638 37.755 167.364 37.7064 167.364 37.7064C166.97 37.6385 166.616 37.5574 166.31 37.4661C165.999 37.3407 166.31 37.283 166.31 37.283C166.778 37.1474 168.655 36.8296 168.655 36.8296ZM169.757 36.8296C170.011 36.8542 170.227 36.8979 170.375 36.9546C170.608 37.0797 170.531 37.1094 170.531 37.1094C170.453 37.148 170.531 37.2248 170.531 37.2248C170.358 37.2509 170.176 37.2727 169.985 37.29V37.1361C170.109 37.1103 170.179 37.0721 170.178 37.032C170.178 36.9677 170.001 36.9112 169.779 36.907L169.757 36.8296Z" fill="white"/>
<path fill-rule="evenodd" clip-rule="evenodd" d="M178.306 36.5308C178.503 36.3286 178.347 36.1074 178.347 36.1074C178.072 35.9629 177.798 35.9337 177.798 35.9337C177.798 35.52 176.783 35.4621 176.783 35.4621C176.783 35.5392 176.976 35.6451 176.976 35.6451C177.054 35.6836 176.783 35.6354 176.783 35.6354C176.742 35.5006 176.234 35.4329 176.234 35.4329C175.843 35.3756 175.647 35.3079 175.647 35.3079C175.216 35.4809 176.352 35.6645 176.352 35.6645C174.591 35.6451 171.544 35.799 171.544 35.799C169.394 35.9246 168.183 35.7416 168.183 35.7416C166.935 35.5971 167.403 35.3176 167.403 35.3176C167.989 35.0286 169.279 35.0575 169.279 35.0575C169.915 35.0617 170.547 35.0878 171.156 35.1346C173.031 35.2599 175.024 35.1154 175.024 35.1154C176 34.9998 176.314 34.7591 176.314 34.7591C175.728 34.8653 174.906 34.8456 174.906 34.8456C174.401 34.9613 172.756 34.9807 172.756 34.9807C173.852 34.8748 173.814 34.7685 173.814 34.7685C173.891 34.7011 174.319 34.614 174.319 34.614C173.654 34.6432 172.874 34.7974 172.874 34.7974C172.406 34.8842 171.193 34.8842 171.193 34.8842C171 34.9036 170.647 34.8748 170.647 34.8748C171.426 34.8168 171.468 34.7397 171.468 34.7397C169.631 34.6146 168.027 34.8942 168.027 34.8942C166.464 35.212 166.935 35.5298 166.935 35.5298C167.206 35.8381 169.432 35.934 169.432 35.934C171.504 35.9632 173.969 35.8767 173.969 35.8767C175.843 35.819 176.352 35.8864 176.352 35.8864C176.585 35.9249 176.352 35.934 176.352 35.934C175.216 35.8955 174.867 36.223 174.867 36.223C175.646 36.0111 176.703 36.0691 176.703 36.0691C176.896 36.0782 176.703 36.0885 176.703 36.0885C176.154 36.0691 175.764 36.1562 175.764 36.1562C176.507 36.2716 177.053 36.223 177.053 36.223C177.368 36.2039 177.524 36.1271 177.524 36.1271C177.992 36.2998 177.955 36.4352 177.757 36.5314C177.482 36.6467 176.975 36.695 176.975 36.695C175.842 36.7627 174.239 36.6182 174.239 36.6182C173.771 36.5608 172.949 36.5699 172.949 36.5699C172.831 36.5608 172.638 36.5414 172.481 36.5314C171.309 36.4443 169.12 36.3675 169.12 36.3675L169.317 36.4352C169.627 36.4546 169.785 36.4928 169.824 36.5314C169.861 36.5699 169.785 36.6082 169.785 36.6082C169.706 36.6564 169.588 36.685 169.588 36.685L169.748 36.7623C170.998 36.8583 170.761 37.1284 170.761 37.1284C170.879 37.3691 171.466 37.465 171.466 37.465C172.794 37.754 174.162 37.7057 174.162 37.7057C174.633 37.7057 174.712 37.7348 174.712 37.7348C175.18 37.8025 175.101 38.1106 175.101 38.1106C175.101 38.2359 174.868 38.3704 174.868 38.3704C175.024 38.4666 175.804 38.419 175.804 38.419C175.922 38.4089 175.964 38.3704 175.964 38.3704C176.042 38.313 175.846 38.2551 175.846 38.2551C175.767 38.2259 175.846 38.2359 175.846 38.2359C176.353 38.2933 176.314 38.4381 176.314 38.4381C177.096 38.1968 176.002 38.0332 176.002 38.0332C175.846 38.0241 175.728 38.0138 175.728 38.0138C175.612 37.8893 175.571 37.6386 175.571 37.6386V37.5709L175.181 37.4647C174.085 37.5324 173.305 37.4365 173.305 37.4365C173.342 37.3788 173.342 37.3111 173.342 37.3111C173.421 37.1375 173.186 36.7135 173.186 36.7135C173.497 36.752 175.298 36.8288 175.298 36.8288C175.725 36.8774 176.586 36.8683 176.586 36.8683C177.604 36.9256 177.29 37.099 177.29 37.099C178.112 36.9351 177.406 36.8197 177.406 36.8197C177.959 36.7715 178.192 36.6561 178.306 36.5308ZM123.713 36.627C123.362 36.4245 123.908 36.1647 123.908 36.1647C124.924 35.7698 126.331 35.6736 126.331 35.6736C127.074 35.3944 128.208 35.3944 128.208 35.3944C128.052 35.4715 127.777 35.5389 127.777 35.5389C128.479 35.5003 129.106 35.3558 129.106 35.3558C129.106 35.5774 128.284 35.6642 128.284 35.6642C131.294 35.7604 135.396 35.6448 135.396 35.6448C137.078 35.5774 136.998 35.1919 136.998 35.1919C136.647 34.8453 134.889 35.0475 134.889 35.0475C131.175 35.5774 129.378 34.8745 129.378 34.8745C130.278 34.961 132.037 34.961 132.037 34.961C131.372 34.8936 130.512 34.6529 130.512 34.6529C131.06 34.672 131.333 34.73 131.333 34.73C132.271 34.855 133.327 34.8265 133.327 34.8265C133.013 34.7397 132.506 34.5952 132.506 34.5952C133.131 34.6626 133.756 34.6626 133.756 34.6626C134.147 34.672 134.459 34.682 134.459 34.682C135.124 34.7106 135.475 34.682 135.475 34.682C137.468 34.73 137.702 35.1825 137.702 35.1825C137.898 35.7604 135.201 35.8087 135.201 35.8087C134.105 35.8861 128.049 35.8664 128.049 35.8664C128.676 35.9337 128.832 36.0782 128.832 36.0782C128.949 36.1459 129.106 36.1945 129.106 36.1945C128.479 36.2033 127.855 36.0014 127.855 36.0014C128.052 36.0973 128.559 36.2418 128.559 36.2418C128.208 36.2804 127.466 36.0588 127.466 36.0588C126.293 35.8184 125.277 36.0688 125.277 36.0688C124.181 36.2801 124.378 36.4631 124.378 36.4631C124.37 36.5247 124.469 36.5845 124.65 36.627C125.042 36.7429 125.745 36.7238 125.745 36.7238C126.488 36.7238 127.23 36.6752 127.855 36.627C128.273 36.5987 128.68 36.5602 129.068 36.5116C129.186 36.5116 129.303 36.515 129.419 36.5214C129.77 36.4631 130.279 36.4731 130.279 36.4731C131.997 36.4345 136.922 35.9908 136.922 35.9908C137.588 35.914 138.798 35.6056 138.798 35.6056C139.228 35.673 139.501 35.9237 139.501 35.9237C139.627 35.9025 139.722 35.8721 139.774 35.8369C140.009 36.0488 141.181 36.1644 141.181 36.1644C141.532 36.1735 141.808 36.2603 141.808 36.2603L141.924 36.1735C142.08 36.2318 143.252 36.4339 144.465 36.6261C145.288 36.7651 146.122 36.9001 146.966 37.0313C148.02 36.7423 148.763 36.915 148.763 36.915C148.607 36.9536 148.41 36.9442 148.41 36.9442C147.864 36.9344 147.512 37.0112 147.512 37.0112C148.805 36.9636 149.038 37.0695 149.038 37.0695C149.309 37.2234 148.41 37.3002 148.41 37.3002C148.41 37.0886 147.588 37.0977 147.588 37.0977C147.929 37.1405 148.152 37.2249 148.174 37.319C147.9 37.502 147.236 37.3585 147.236 37.3585C147.002 37.3293 146.65 37.2519 146.65 37.2519C144.737 37.2228 142.9 36.8953 142.9 36.8953L141.922 37.0018C141.39 36.9026 140.962 36.7739 140.671 36.6258C140.556 36.5781 140.477 36.5396 140.477 36.5396V36.6258C140.595 36.7611 140.945 36.8765 140.945 36.8765C139.265 37.3484 136.255 36.925 136.255 36.925C135.904 36.8959 134.809 36.7514 134.809 36.7514C131.683 36.7423 130.236 37.4356 130.236 37.4356L130.001 37.5315C129.768 37.9655 129.22 37.9655 129.22 37.9655C129.494 37.8016 128.831 37.7248 128.831 37.7248C128.361 37.7442 127.267 37.7339 127.267 37.7339C126.564 38.042 127.149 38.2639 127.149 38.2639C128.516 38.2548 127.93 38.5237 127.93 38.5237C127.813 38.6105 127.5 38.6105 127.5 38.6105C127.538 38.3315 126.484 38.3507 126.484 38.3507C127.382 38.4378 127.187 38.5719 127.187 38.5719C126.954 38.5622 126.719 38.659 126.719 38.659C125.391 38.4566 125.586 38.0717 125.586 38.0717C125.744 37.4067 126.33 37.2811 126.33 37.2811C126.526 37.2619 126.602 37.2911 126.602 37.2911C127.188 37.3588 127.97 37.3002 127.97 37.3002C128.283 37.2808 128.361 37.1272 128.361 37.1272C128.558 36.8574 129.298 36.6449 129.298 36.6449C128.791 36.7035 125.939 36.8865 125.939 36.8865C124.61 36.963 124.258 37.2422 124.258 37.2422C123.399 36.9824 124.766 36.8379 124.766 36.8379C124.181 36.8006 123.83 36.7238 123.713 36.627ZM138.993 36.4057C139.346 36.5793 140.4 36.8009 140.4 36.8009C140.517 36.8294 140.713 36.8583 140.713 36.8583C140.634 36.8777 140.44 36.8777 140.44 36.8777C139.541 36.7526 138.955 36.4922 138.955 36.4922C138.759 36.3963 138.993 36.4057 138.993 36.4057ZM137.702 36.6076C138.249 36.7715 138.445 36.81 138.445 36.81C138.837 36.9262 139.345 36.9836 139.345 36.9836C138.329 36.9836 137.702 36.7044 137.702 36.7044C137.546 36.627 137.587 36.5981 137.587 36.5981L137.702 36.6076ZM138.367 36.4825C138.641 36.6752 139.813 36.8683 139.813 36.8683C140.085 36.8874 140.009 36.9351 140.009 36.9351C139.774 36.9451 139.696 36.9159 139.696 36.9159C138.642 36.8288 138.29 36.5408 138.29 36.5408C138.094 36.4348 138.367 36.4825 138.367 36.4825Z" fill="white"/>
</g>
<defs>
<clipPath id="clip0_1_3633">
<rect width="284" height="70" fill="white" transform="translate(0 0.873779)"/>
</clipPath>
</defs>
</svg>
