<svg width="284" height="71" viewBox="0 0 284 71" fill="none" xmlns="http://www.w3.org/2000/svg">
<g clip-path="url(#clip0_1_3491)">
<path fill-rule="evenodd" clip-rule="evenodd" d="M21.3161 35.1439H15.7381V68.4544H22.3121C29.1352 68.4544 33.0199 62.3107 33.1693 52.5191C33.2689 40.9516 28.5874 35.1439 21.3161 35.1439ZM19.6726 4.08934H15.7381V34.136H22.0133C27.4419 34.136 31.8744 28.6642 31.8246 19.1127C31.7748 8.40915 26.8941 4.08934 19.6726 4.08934ZM24.2545 69.0784H0.547971C0.39856 69.0784 0.39856 68.4544 0.547971 68.4544H7.32126V4.08934H0.498165V3.41737H20.818C29.4839 3.41737 40.2912 5.04929 40.6897 18.6807C41.0881 32.1201 29.2348 34.6159 23.8561 34.6159C32.5219 34.6159 43.0802 40.8557 43.0802 51.9432C43.0802 60.7748 35.4603 69.0784 24.2545 69.0784Z" fill="black"/>
<path fill-rule="evenodd" clip-rule="evenodd" d="M60.8601 15.8966L51.6963 48.9671H69.1773L60.8601 15.8966ZM67.6334 68.9822V68.5022H75.104L69.6256 49.6871H51.6963L47.9112 63.2224C47.0645 66.5823 46.6661 68.5022 46.6661 68.5022H53.9374V68.9822H39.0959V68.5022H45.919C45.919 68.5022 46.3175 66.8223 47.2139 63.2224L64.3962 1.30527L84.0686 68.5022H90.9415V68.9342L67.6334 68.9822Z" fill="black"/>
<path fill-rule="evenodd" clip-rule="evenodd" d="M95.8223 68.9822L124.957 3.60916H110.863C100.504 3.75315 97.6152 15.9446 97.416 28.904C97.416 30.6319 97.2666 32.9358 97.167 35.4797C97.167 35.4797 96.7187 35.5277 96.7187 35.4317L96.7685 2.93719H133.773L105.086 68.5022H117.935C130.336 68.1182 132.777 59.4786 133.225 35.4797H133.773V68.9342L95.8223 68.9822Z" fill="black"/>
<path fill-rule="evenodd" clip-rule="evenodd" d="M255.791 3.60927H250.761V34.2799H257.037C264.059 34.2799 267.445 30.0561 267.944 19.4485C268.491 7.83307 262.465 3.60927 255.791 3.60927ZM281.042 69.7023C279.847 70.2782 278.452 70.4702 276.759 70.4702C269.786 70.4702 267.346 65.5264 267.645 52.423V46.3753C267.645 38.1677 263.561 35.3358 257.086 35.3358H250.811V68.5503H258.879V68.9343H235.571V68.5983H242.444L242.394 3.60927H235.571V2.9373H257.535C268.193 2.9373 277.008 5.72117 277.058 19.1606C277.058 30.488 267.545 34.8078 260.124 34.8078C271.081 34.8078 277.605 39.2236 276.36 52.663L276.111 61.0626C276.111 65.8144 276.759 69.3183 279.548 69.3183C280.444 69.3183 281.291 69.1263 281.889 68.5023C282.536 67.8303 282.885 66.7744 282.984 66.1024C283.034 65.7664 283.183 64.9505 283.084 64.0385C283.084 64.0385 283.134 54.343 283.084 54.295C283.134 54.343 283.632 54.295 283.632 54.295V60.3427C283.681 65.7184 283.681 66.3904 283.233 67.4944C282.835 68.1183 282.187 69.1743 281.042 69.7023Z" fill="black"/>
<path fill-rule="evenodd" clip-rule="evenodd" d="M158.625 15.8966L149.411 48.9671H166.892L158.625 15.8966ZM165.398 68.9822V68.5502H172.868L167.39 49.6871H149.461L145.676 63.2224C144.829 66.5823 144.431 68.5022 144.431 68.5022H151.702V68.9822H136.86V68.5022H143.684C143.684 68.5022 144.082 66.8223 144.978 63.2224L162.161 1.30527L181.883 68.5502H188.756V68.9822H165.398Z" fill="black"/>
<path fill-rule="evenodd" clip-rule="evenodd" d="M206.785 15.9446L197.571 49.0151H215.052L206.785 15.9446ZM213.508 68.9822V68.5022H220.979L215.5 49.6871H197.571L193.786 63.2224C192.939 66.5823 192.541 68.5022 192.541 68.5022H199.812V68.9822H184.971V68.5022H191.794C191.794 68.5022 192.192 66.8223 193.089 63.2224L210.271 1.30527L229.993 68.5502H236.866V68.9822H213.508Z" fill="black"/>
<path fill-rule="evenodd" clip-rule="evenodd" d="M171.225 6.29708V9.51294H172.271V9.75293H168.884V9.51294H169.93V2.98524H168.884V2.74525H172.271V2.98524H171.225V6.00909H174.014V2.98524H172.968V2.74525H176.355V2.98524H175.309V9.51294H176.355V9.75293H172.968V9.51294H174.014V6.29708H171.225Z" fill="black"/>
<path fill-rule="evenodd" clip-rule="evenodd" d="M179.442 7.68916C178.795 7.68916 177.948 7.78516 177.948 8.64912C177.948 9.1291 178.148 9.46509 178.646 9.46509C178.994 9.46509 179.293 9.17709 179.393 8.84111C179.442 8.69712 179.442 8.50514 179.442 8.31315V7.68916ZM179.442 6.10524C179.442 5.81726 178.944 5.72125 178.745 5.72125C178.347 5.72125 177.849 5.91325 177.998 6.10524C178.048 6.20124 178.148 6.39323 178.148 6.63322C178.148 6.92121 177.899 7.1132 177.65 7.1132C177.351 7.1132 177.102 6.96921 177.102 6.63322C177.102 5.81726 178.098 5.52926 178.745 5.52926C179.193 5.52926 179.691 5.62526 180.09 5.81725C180.389 5.96125 180.488 6.15323 180.488 6.44122V9.2731C180.488 9.4171 180.638 9.46509 180.737 9.46509C180.887 9.46509 181.036 9.3211 181.086 9.2251L181.186 9.36909C180.937 9.70507 180.638 9.94507 180.19 9.94507C179.741 9.94507 179.442 9.65708 179.393 9.1771C178.994 9.65708 178.446 9.94507 177.899 9.94507C177.251 9.94507 176.803 9.60908 176.803 8.93711C176.803 7.68917 178.446 7.40118 179.393 7.44918V6.10524H179.442Z" fill="black"/>
<path fill-rule="evenodd" clip-rule="evenodd" d="M183.327 6.72921C183.676 6.15323 184.024 5.52926 184.771 5.52926C185.17 5.52926 185.618 5.72125 185.618 6.20123C185.618 6.63321 185.319 6.77721 184.971 6.77721C184.722 6.77721 184.473 6.53722 184.473 6.29723C184.473 6.24923 184.473 6.20124 184.473 6.15324C184.522 5.96125 184.522 5.91325 184.423 5.91325C184.224 5.91325 184.124 6.00925 183.975 6.15324C183.576 6.53722 183.327 7.1132 183.327 8.50513V9.46509H184.273V9.70508H181.584V9.46509H182.182V5.81725H181.484V5.57726C182.032 5.57726 182.68 5.57726 183.277 5.52926L183.327 6.72921Z" fill="black"/>
<path fill-rule="evenodd" clip-rule="evenodd" d="M189.602 6.68118C189.602 6.10521 189.453 5.76922 188.806 5.76922C188.208 5.76922 187.61 6.58519 187.61 6.96917V8.3611C187.61 9.03307 188.108 9.75305 188.806 9.75305C189.304 9.75305 189.602 9.51306 189.602 8.93708V6.68118ZM187.61 6.3932C187.859 5.91323 188.357 5.52923 188.905 5.52923C190.051 5.52923 190.848 6.58519 190.848 7.73714C190.848 8.79309 190.001 9.94504 188.905 9.94504C188.357 9.94504 187.859 9.70505 187.61 9.17707V11.9609H188.357V12.2009H185.768V11.9609H186.515V5.81722H185.768V5.57724C186.365 5.57724 187.013 5.57723 187.66 5.52923V6.3932H187.61Z" fill="black"/>
<path fill-rule="evenodd" clip-rule="evenodd" d="M194.085 7.20904C194.085 6.48907 194.284 5.7691 193.338 5.7691C192.491 5.7691 192.591 6.53707 192.591 7.20904H194.085ZM192.591 7.44903V8.313C192.591 9.03296 192.64 9.75293 193.537 9.75293C194.284 9.75293 194.882 9.22495 195.081 8.50499H195.33C195.081 9.51294 194.334 9.99292 193.338 9.99292C192.192 9.99292 191.395 8.88897 191.395 7.78502C191.395 6.63307 192.342 5.57712 193.487 5.57712C194.433 5.57712 195.33 6.24909 195.33 7.30504C195.33 7.54503 195.23 7.49703 195.081 7.49703H192.591V7.44903Z" fill="black"/>
<path fill-rule="evenodd" clip-rule="evenodd" d="M197.422 6.72921C197.77 6.15323 198.119 5.52926 198.866 5.52926C199.264 5.52926 199.713 5.72125 199.713 6.20123C199.713 6.63321 199.414 6.77721 199.065 6.77721C198.816 6.77721 198.567 6.53722 198.567 6.29723C198.567 6.24923 198.567 6.20124 198.567 6.15324C198.617 5.96125 198.617 5.91325 198.517 5.91325C198.318 5.91325 198.218 6.00925 198.069 6.15324C197.671 6.53722 197.422 7.1132 197.422 8.50513V9.46509H198.368V9.70508H195.678V9.46509H196.276V5.81725H195.629V5.57726C196.176 5.57726 196.824 5.57726 197.422 5.52926V6.72921Z" fill="black"/>
<path fill-rule="evenodd" clip-rule="evenodd" d="M201.605 4.66532C201.605 5.38529 201.107 6.05725 200.509 6.44123C200.41 6.48923 200.31 6.44123 200.31 6.29724C200.31 6.24924 200.46 6.10525 200.509 6.10525C200.908 5.86526 201.306 5.19329 201.306 4.76131C201.306 4.66531 201.256 4.32933 201.107 4.32933C201.007 4.32933 200.958 4.42532 200.958 4.52132C200.908 4.76131 200.709 4.90531 200.41 4.90531C200.061 4.90531 199.812 4.56933 199.812 4.23334C199.812 3.80136 200.161 3.51337 200.559 3.51337C201.256 3.51337 201.605 4.04135 201.605 4.66532Z" fill="black"/>
<path fill-rule="evenodd" clip-rule="evenodd" d="M201.804 9.80088H201.655V8.31296H201.954C202.053 9.08092 202.502 9.75289 203.298 9.75289C203.747 9.75289 204.245 9.4169 204.245 8.88892C204.245 8.36095 203.747 8.31295 203.249 8.21696C202.153 8.07296 201.754 7.64098 201.754 6.82502C201.754 6.00906 202.302 5.52908 203.049 5.52908C203.398 5.52908 203.796 5.62508 204.045 5.86507L204.195 5.57708H204.394V6.82502H204.095C204.045 6.24905 203.597 5.72106 203 5.72106C202.601 5.72106 202.153 5.96105 202.153 6.44103C202.153 6.77702 202.203 6.87302 203.149 7.01701C204.095 7.161 204.643 7.35299 204.643 8.40894C204.643 9.4169 204.095 9.84888 203.149 9.84888C202.8 9.84888 202.352 9.65689 202.103 9.4169L201.804 9.80088Z" fill="black"/>
</g>
<defs>
<clipPath id="clip0_1_3491">
<rect width="284" height="70" fill="white" transform="translate(0 0.873779)"/>
</clipPath>
</defs>
</svg>
