<svg width="284" height="71" viewBox="0 0 284 71" fill="none" xmlns="http://www.w3.org/2000/svg">
<path d="M30.6631 2.41187C30.6664 2.40032 31.1202 2.417 31.1202 2.417L32.337 25.3379L31.9276 25.3572C31.0791 22.7571 28.7919 2.59924 19.8684 2.59924C13.0101 2.59924 10.7081 27.3169 10.7081 35.5985C10.7081 46.3236 12.4017 68.8287 20.1003 68.8287C23.8114 68.8287 25.8256 63.8659 25.8256 57.3182V36.4057H21.7067V35.5844H38.3304V36.4057H34.1589V69.1752C34.149 69.1727 33.6837 69.1855 33.6804 69.1791C33.0769 67.8149 32.9898 65.0094 30.2849 65.0094C27.2858 65.0094 24.0712 69.8567 19.9029 69.8464C6.11731 69.8131 1.31601 49.935 1.31601 35.6036C1.31601 23.7312 6.87039 1.90237 19.8914 1.90237C22.0734 1.90237 23.6092 2.34257 25.3504 4.3074C26.6264 5.74863 29.0402 6.07717 30.0728 4.23168C30.3852 3.67471 30.5283 2.95731 30.6631 2.41187Z" fill="black"/>
<path d="M217.668 67.9758V3.61108H213.98V2.82693H229.683V3.61108H225.979L226.005 67.9758H229.683V68.7715H213.98V67.9758H217.668V3.61108V67.9758Z" fill="black"/>
<path d="M172.076 67.9704H181.919C186.535 67.8279 192.188 64.4642 192.188 55.0815C192.188 53.2912 192.216 51.4213 192.216 49.5476L193.092 49.5515V68.7583L163.283 68.7725L183.519 3.6159H174.081C168.112 3.6159 164.819 10.6667 164.819 17.1503C164.819 18.8135 164.754 22.0335 164.754 22.0335L163.922 22.0412V2.82791H192.881L172.076 67.9704Z" fill="black"/>
<path d="M72.1392 3.62517V35.599C73.8493 35.5913 76.6807 35.7427 79.6223 32.782C82.3551 30.0305 83.4387 23.0938 83.4387 17.9244C83.4387 12.4085 79.9019 3.61105 75.3604 3.61105L72.1392 3.62517ZM60.1853 2.83205L77.7479 2.83589C86.1567 2.83589 91.6091 10.1293 91.6091 18.8857C91.6091 27.6126 87.0216 35.7453 79.9496 35.7453C79.0041 35.7453 79.0912 36.188 79.9496 36.188C84.1869 36.188 87.3685 39.9714 88.0115 40.9776C90.6028 45.0459 88.8172 63.765 91.4102 65.6144C93.5971 67.175 95.2035 64.7353 95.4896 64.3567L95.756 64.5081C95.7149 64.6801 93.8404 69.5068 89.1098 69.5068C85.18 69.5068 83.1904 65.7376 82.6248 63.3775C81.7056 59.5325 82.0049 47.7717 81.5034 45.4065C81.066 43.3441 79.8789 37.1891 76.1694 36.6513C74.5152 36.4114 73.994 36.4114 72.1409 36.4203C72.131 36.4203 72.1442 67.9629 72.1442 67.9629H75.8487V68.7728H59.6822V67.9629H63.834L63.8175 3.62517H60.1853V2.83205Z" fill="black"/>
<path d="M119.665 48.6939H131.449L125.772 22.902L119.665 48.6939ZM113.781 67.9611L129.665 1.90102L144.345 67.9624L147.683 67.9701V68.7683L132.411 68.767V67.9572H135.756L131.599 49.5332H119.433L115.12 67.9726H119.408V68.7632H110.162V67.979L113.781 67.9611Z" fill="black"/>
<path d="M254.664 48.6939H266.45L260.771 22.902L254.664 48.6939ZM248.783 67.9611L264.665 1.90102L279.346 67.9624L282.683 67.9701V68.7683L267.411 68.767V67.9572H270.755L266.598 49.5332H254.432L250.119 67.9739H254.408V68.7632H245.162V67.9803L248.783 67.9611Z" fill="black"/>
</svg>
