<svg width="284" height="71" viewBox="0 0 284 71" fill="none" xmlns="http://www.w3.org/2000/svg">
<g clip-path="url(#clip0_1_3469)">
<path d="M161.253 1.22012C161.253 8.68371 161.253 16.0704 161.253 23.5724C161.6 23.4378 161.927 23.3223 162.254 23.1877C167.501 20.8024 172.952 19.9945 178.526 21.7642C184.569 23.6878 188.265 27.9582 190.511 33.4213C192.307 37.7686 192.634 42.2891 192.226 46.9058C191.858 50.9261 190.858 54.7733 188.816 58.332C185.121 64.7376 179.302 68.4309 171.829 69.9121C167.297 70.7969 162.723 70.7392 158.15 70.1814C154.699 69.7582 151.269 69.1234 147.819 68.6233C146.818 68.4886 146.533 68.0654 146.553 67.1228C146.716 55.0618 146.88 43.0008 146.961 30.9398C147.002 25.9577 146.88 20.9563 146.737 15.9742C146.696 14.3968 146.471 12.781 146.124 11.2421C145.512 8.49135 143.98 7.27948 141.02 6.95246C139.795 6.81781 139.591 6.60621 139.775 5.50976C139.815 5.24045 140.162 4.87497 140.407 4.81726C147.186 3.60539 153.985 2.43199 160.784 1.25859C160.947 1.20088 161.069 1.22012 161.253 1.22012ZM161.131 41.6928C161.11 45.5977 161.09 49.4834 161.131 53.3883C161.172 57.2932 161.274 61.1789 161.335 65.0838C161.355 66.8151 161.355 66.8535 163.193 67.0651C166.153 67.4114 168.787 66.7766 170.89 64.6799C172.523 63.0448 173.667 61.1404 174.524 59.0822C176.831 53.5422 177.423 47.7521 177.097 41.8659C176.913 38.5188 176.26 35.2295 174.728 32.1325C173.789 30.2281 172.585 28.4968 170.727 27.2657C167.93 25.4191 164.928 25.6307 161.866 26.5732C161.253 26.7656 161.09 27.0349 161.09 27.5927C161.151 32.3056 161.131 36.9992 161.131 41.6928Z" fill="black"/>
<path d="M57.6779 2.39345C57.6779 4.27858 57.6575 5.99059 57.6779 7.72183C57.7392 11.8768 57.8004 16.0318 57.9025 20.1868C57.9229 20.8408 57.6983 21.1486 57.0246 21.3217C54.7583 21.9565 54.7787 21.9757 53.9416 19.879C52.7779 16.9744 51.4303 14.1467 49.2661 11.7614C46.5915 8.79905 43.2431 7.14475 39.0781 7.08704C35.2397 7.02933 31.4013 7.08704 27.5425 7.02933C26.685 7.0101 26.4808 7.33711 26.4604 8.02961C26.4196 9.53002 26.3175 11.0304 26.2766 12.5308C26.1745 17.4168 26.0929 22.322 25.9908 27.208C25.95 29.2277 25.9295 31.2283 25.8479 33.2481C25.8275 34.056 26.1133 34.3061 26.9912 34.2483C29.4208 34.0945 31.8709 34.0175 34.3209 33.9021C36.8526 33.7674 38.7514 32.5748 39.8743 30.5358C40.7318 28.9584 41.2831 27.2272 41.8139 25.5344C42.0181 24.8612 42.2427 24.6303 42.9369 24.688C43.5086 24.7265 44.0802 24.688 44.7336 24.688C44.7336 32.2093 44.7336 39.6537 44.7336 47.2134C43.9781 47.2134 43.2431 47.2712 42.5081 47.175C42.2631 47.1557 41.9569 46.771 41.8956 46.5017C41.3444 44.2126 40.691 41.9812 39.0168 40.1346C37.7918 38.7688 36.2197 38.0571 34.3209 37.9801C31.8709 37.884 29.4413 37.7685 26.9912 37.6147C26.1541 37.5569 25.8275 37.807 25.8683 38.6342C26.0725 43.7702 26.2562 48.9255 26.3991 54.0615C26.4808 56.7738 26.7258 59.4668 27.6854 62.0637C28.6042 64.5451 30.4213 65.9301 33.2388 66.1802C34.2801 66.2764 35.3009 66.5072 36.3422 66.6996C37.608 66.9304 36.873 67.873 37.016 68.4885C37.1589 69.1618 36.5872 69.1618 36.0972 69.1618C31.8505 69.1618 27.6037 69.1618 23.3366 69.1618C16.0682 69.1618 8.77929 69.1618 1.51086 69.1618C1.02085 69.1618 0.306255 69.4311 0.245005 68.5078C0.163337 66.9881 0.224588 66.7957 1.3271 66.5842C2.2867 66.411 3.2463 66.2187 4.22631 66.0648C6.55385 65.7185 7.96262 64.3912 8.82013 62.4292C9.82056 60.0824 10.1676 57.6009 10.2085 55.1195C10.3922 45.0398 10.6168 34.9601 10.576 24.8996C10.5556 20.533 10.0043 16.1857 9.59597 11.8191C9.51431 10.8958 9.10597 9.95321 8.71804 9.08759C7.67678 6.72156 5.6555 5.6251 3.02171 5.37503C2.30712 5.31733 1.59252 5.27885 0.898347 5.1442C0.653344 5.10573 0.449174 4.79795 0.265421 4.58636C0.204171 4.52865 0.245005 4.394 0.245005 4.29782C0.326672 2.08567 9.22068e-07 2.41268 2.26628 2.39345C20.1515 2.39345 38.0368 2.39345 55.9221 2.39345C56.3916 2.39345 56.8612 2.39345 57.6779 2.39345Z" fill="black"/>
<path d="M50.8382 46.5209C50.8178 39.6729 52.2266 34.2868 55.7995 29.5355C59.8217 24.2071 65.3751 21.2639 72.2352 20.4753C76.6248 19.9559 80.9736 20.1483 85.2 21.514C91.223 23.4761 95.5718 27.2271 97.9401 32.7671C101.717 41.6542 101.799 50.5412 96.8989 59.1013C93.0605 65.8339 86.7721 69.3926 78.7482 70.2774C74.5219 70.7391 70.3364 70.5275 66.2939 69.2387C59.5154 67.0842 55.1462 62.6407 52.7166 56.4082C51.3486 52.888 50.7974 49.1947 50.8382 46.5209ZM85.445 44.3664C85.2408 42.4621 85.0162 39.0188 84.5058 35.614C83.9954 32.3247 82.9949 29.1315 80.9124 26.3615C78.3194 22.9182 73.9911 22.2642 70.8673 24.9188C69.336 26.2269 68.5193 27.9581 67.9068 29.7663C66.8247 32.921 66.4368 36.1719 66.2326 39.4613C65.8855 45.0974 65.8855 50.6951 67.0901 56.2543C67.723 59.2359 68.6622 62.1213 70.5814 64.6413C73.2765 68.1614 78.0336 68.4115 81.0757 65.1606C82.4233 63.7179 83.1991 61.9674 83.7299 60.1593C85.1183 55.4849 85.2612 50.6951 85.445 44.3664Z" fill="black"/>
<path d="M239.961 60.2363C241.431 61.4481 241.451 61.5443 240.267 62.8331C236.775 66.6611 232.304 68.9694 227.118 69.9697C221.238 71.1046 215.481 70.5853 210.091 67.9884C203.23 64.6798 199.147 59.2937 197.555 52.311C195.799 44.6551 196.717 37.2877 201.148 30.555C205.027 24.6496 210.744 21.3217 218.074 20.4753C221.789 20.0522 225.464 20.1099 229.017 21.3217C234.938 23.3415 238.388 27.5157 240.328 32.9788C241.369 35.9219 241.676 38.9612 241.941 42.0005C242.023 42.8853 241.655 43.0585 240.798 43.0585C231.59 43.0392 222.361 43.0392 213.153 43.0392C211.54 43.0392 211.499 43.0392 211.581 44.5974C211.785 49.3294 212.643 53.8691 215.766 57.7741C218.604 61.3327 222.463 63.1409 227.139 63.5064C230.446 63.7757 233.652 63.4872 236.653 62.0637C237.796 61.5443 238.858 60.8518 239.961 60.2363ZM226.914 39.3074C226.955 39.0766 227.016 38.9227 226.996 38.7688C226.853 36.499 226.812 34.2291 226.506 31.9977C226.199 29.6894 225.628 27.4196 224.219 25.419C222.627 23.1492 219.952 22.6683 217.604 24.2264C215.991 25.2844 215.011 26.8232 214.215 28.4583C212.704 31.613 211.969 34.9216 211.724 38.3649C211.622 39.7306 211.601 39.7306 213.051 39.7114C216.828 39.6345 220.585 39.5767 224.362 39.4806C225.219 39.4229 226.057 39.3459 226.914 39.3074Z" fill="black"/>
<path d="M278.855 35.6909C278.263 34.3059 277.752 32.9594 277.119 31.6706C275.752 28.8814 274.098 26.2845 271.076 24.7648C269.014 23.7261 266.809 23.3221 264.481 23.8223C261.705 24.4186 259.683 26.65 259.255 29.343C258.765 32.3438 259.949 34.5752 262.48 36.3065C265.278 38.2108 268.463 39.4227 271.627 40.6538C274.772 41.8849 277.814 43.2699 280.243 45.636C282.469 47.8289 283.428 50.4834 283.551 53.4458C283.735 57.5238 282.693 61.2364 279.814 64.3719C277.017 67.4304 273.363 69.0847 269.238 69.9118C264.604 70.8352 259.908 70.7005 255.273 69.9503C252.292 69.4694 249.352 68.6615 246.392 67.9882C245.8 67.8536 245.514 67.565 245.494 66.911C245.453 62.7945 245.391 58.6588 245.269 54.5422C245.228 53.2534 246.269 53.465 246.984 53.2534C247.147 53.1957 247.658 53.7151 247.801 54.0421C249.046 57.0622 250.455 60.0053 252.844 62.4098C256.008 65.6222 259.908 66.8918 264.461 65.7761C267.401 65.0644 269.177 63.1023 269.81 60.2938C270.484 57.3507 269.565 54.8693 266.911 53.2727C264.706 51.9454 262.256 50.9066 259.847 49.9448C257.029 48.8291 254.15 47.8866 251.659 46.1553C247.494 43.2699 245.984 39.2881 246.31 34.5752C246.739 28.4582 251.129 23.4183 257.519 21.4178C261.705 20.1097 265.972 20.0905 270.3 20.4175C273.526 20.6676 276.65 21.3024 279.712 22.3411C280.468 22.5912 280.733 22.9567 280.754 23.7261C280.774 26.9193 280.876 30.1125 280.937 33.3249C280.958 35.21 280.937 35.21 278.855 35.6909Z" fill="black"/>
<path d="M122.502 20.3021C122.502 23.8415 122.502 27.2848 122.502 30.9589C122.788 30.4972 122.992 30.2087 123.176 29.9009C124.748 26.9962 126.708 24.3609 129.607 22.4758C133.364 20.0328 137.386 19.3211 141.755 20.8984C142.674 21.2254 142.857 21.6486 142.49 22.5335C140.877 26.4192 139.346 30.3241 137.753 34.3637C137.386 34.1905 137.059 34.0366 136.753 33.8828C132.792 31.8822 128.709 31.3244 124.462 33.0364C123.094 33.5942 122.318 34.3829 122.338 35.9987C122.4 41.404 122.175 46.8094 122.257 52.2147C122.318 55.581 122.604 58.9666 123.053 62.3329C123.421 65.2568 125.074 66.4494 128.219 66.584C129.158 66.6225 130.097 66.7379 131.036 66.8149C131.097 66.9495 131.179 67.0457 131.179 67.1227C131.199 69.6618 131.485 69.1809 129.117 69.2001C120.215 69.2194 111.293 69.2194 102.391 69.2001C101.962 69.2001 101.207 69.0847 101.166 68.8924C101.003 68.2961 101.105 67.642 101.146 67.0072C101.146 66.9111 101.472 66.8149 101.656 66.7764C102.289 66.6418 102.922 66.5263 103.555 66.4494C105.494 66.1993 106.822 65.1413 107.209 63.4293C107.679 61.3518 107.965 59.2166 108.026 57.1007C108.189 51.3106 108.271 45.5206 108.23 39.7305C108.21 36.922 108.026 34.1136 107.659 31.3244C107.189 27.7657 106.005 26.7846 102.269 26.3807C101.554 26.3037 101.064 26.2653 101.023 25.3804C101.003 24.534 101.411 24.3224 102.187 24.1685C108.782 22.9374 115.376 21.6679 121.971 20.3983C122.073 20.3213 122.257 20.3213 122.502 20.3021Z" fill="black"/>
<path d="M70.561 70.681C65.6201 70.0077 61.2713 68.0264 57.9638 64.9486C55.2075 62.371 53.4108 59.5433 52.1041 55.6576C50.042 49.5983 50.042 41.8077 52.1041 35.883C54.105 30.1314 58.5763 25.13 64.0889 22.5332C71.7044 18.936 82.4029 19.1668 89.4467 23.0718C95.7964 26.592 99.6348 32.8437 100.696 41.3652C101.023 43.9813 100.819 49.4829 100.288 51.7527C98.1852 61.063 92.0601 67.5455 83.0766 70.0077C82.117 70.277 80.6062 70.5848 79.7487 70.7002C77.9316 70.9311 72.3373 70.9311 70.561 70.681ZM81.2799 69.9693C84.8937 69.1806 87.793 67.9495 90.3655 66.1413C96.6539 61.717 100.084 54.9459 100.411 46.3859C100.717 37.9412 98.0219 30.7277 92.7951 26.0918C88.5484 22.3216 83.1991 20.5134 76.2778 20.5134C68.9481 20.5134 63.0476 22.6486 58.4946 26.9574C53.6354 31.5741 51.0628 37.9989 51.0628 45.5587C51.0628 53.3878 53.3904 59.7164 57.9025 64.16C60.3934 66.6029 62.8026 68.0649 66.2735 69.2383C67.4985 69.6422 68.3968 69.8538 71.684 70.4309C71.9698 70.4886 73.8482 70.4886 75.8694 70.4502C78.6053 70.354 79.9937 70.2386 81.2799 69.9693ZM73.5215 67.2377C70.1731 65.795 67.7843 61.4477 66.6001 54.5612C65.8447 50.1946 65.763 40.4804 66.4572 35.7098C67.4168 29.0157 69.4585 25.0723 72.6436 23.745C74.8282 22.8217 77.8499 23.3795 79.7895 25.0338C84.0975 28.7079 86.2821 39.1531 85.3429 51.6565C84.6692 60.6398 82.607 65.5065 78.7482 67.1993C77.3599 67.7763 74.8894 67.8148 73.5215 67.2377ZM77.9724 66.9492C79.422 66.5452 81.1983 64.9679 82.1579 63.2559C84.1179 59.7164 84.9958 54.4842 85.0162 46.1743C85.0367 35.7676 83.3012 29.1311 79.6466 25.6686C78.1153 24.2067 77.0128 23.7643 75.0528 23.7643C70.704 23.7643 67.9272 28.0539 66.8451 36.4985C66.3347 40.3842 66.3347 49.6175 66.8451 53.0031C68.3968 63.5059 72.3781 68.5073 77.9724 66.9492ZM158.252 70.681C156.231 70.4886 150.044 69.5076 147.88 69.0459L146.39 68.7189L146.512 61.1976C146.798 43.0773 146.818 33.1899 146.655 23.5719C146.471 14.1462 146.43 13.146 146.043 11.761C145.553 9.99125 144.858 8.76014 144.001 8.2023C143.674 7.9907 142.776 7.66369 142.02 7.5098C139.468 6.97119 139.611 7.06737 139.55 5.97092C139.509 5.33613 139.591 4.93217 139.754 4.79752C139.938 4.60516 160.784 0.854129 161.457 0.873365C161.641 0.873365 161.682 3.39329 161.58 12.0303C161.519 18.1666 161.498 23.1872 161.559 23.1872C161.621 23.1872 162.376 22.8794 163.254 22.4947C165.888 21.3405 168.317 20.8596 171.829 20.7442C174.177 20.6673 175.259 20.725 176.464 20.9558C184.324 22.4947 190.143 28.554 192.185 37.3449C192.716 39.634 192.92 45.3279 192.552 48.1748C192.246 50.5985 191.389 53.8879 190.511 56.0039C187.142 64.0253 179.935 69.2575 170.359 70.6233C168.154 70.9311 161.212 70.9695 158.252 70.681ZM169.787 70.2193C175.994 69.3345 180.547 67.3339 184.386 63.7752C189.959 58.6392 192.634 51.368 192.267 42.4232C192.083 37.8258 191.287 34.8058 189.245 31.074C186.509 26.0149 181.813 22.4754 176.464 21.4175C172.462 20.6288 167.317 21.2443 163.397 22.9756C162.417 23.3988 161.498 23.7643 161.314 23.7643C161.049 23.7643 161.029 22.3408 161.09 12.5496L161.172 1.33503L160.355 1.48892C159.906 1.56586 155.312 2.37378 150.146 3.27787C144.981 4.18197 140.55 4.95141 140.305 5.00912C139.938 5.08606 139.856 5.22071 139.897 5.83626C139.938 6.50953 139.999 6.56724 140.755 6.72112C143.348 7.25973 143.797 7.45209 144.756 8.39466C145.94 9.54882 146.471 11.0108 146.818 14.0693C147.104 16.5123 147.165 58.4853 146.9 64.6793L146.737 68.3534L148.84 68.7766C156.864 70.3732 164.806 70.9311 169.787 70.2193ZM162.499 67.2954C162.09 67.257 161.641 67.1031 161.519 66.9684C161.172 66.5645 160.784 40.4612 161.029 32.8244L161.212 26.7651L162.846 26.3227C165.255 25.6686 167.848 25.7648 169.685 26.592C173.381 28.2463 175.811 32.3243 177.056 38.98C177.464 41.1536 177.403 48.6942 176.954 51.3872C176.015 56.9849 174.3 61.313 171.931 64.1215C170.788 65.468 168.869 66.7568 167.358 67.18C166.419 67.4109 164.336 67.4686 162.499 67.2954ZM166.439 66.853C167.93 66.5837 169.073 66.0259 170.318 64.9871C173.422 62.3518 175.749 56.9464 176.668 50.2138C177.036 47.4823 176.995 41.2498 176.586 38.9607C175.463 32.786 173.054 28.7272 169.542 27.0921C168.093 26.4188 167.868 26.3611 166.133 26.3611C164.908 26.3611 163.826 26.4765 162.927 26.7458L161.58 27.1306L161.478 34.1517C161.355 43.1542 161.662 65.6988 161.927 66.3529C162.09 66.7568 162.274 66.853 163.111 66.9107C165.03 67.0454 165.357 67.0454 166.439 66.853ZM216.951 70.5848C206.824 68.8728 199.576 62.1017 197.207 52.1374C196.901 50.8486 196.758 49.4251 196.697 46.6552C196.575 42.2693 196.962 39.5571 198.147 36.1715C200.454 29.6697 204.578 25.0723 210.581 22.3216C216.91 19.4169 225.587 19.2246 231.181 21.8599C237.49 24.8415 241.206 30.7854 242.145 39.4416C242.268 40.615 242.349 41.9808 242.309 42.5194L242.247 43.4812L227.139 43.5389L212.03 43.5966L212.091 45.2702C212.234 49.1751 213.112 52.6183 214.766 55.5999C215.521 56.9657 216.114 57.6967 217.563 59.0817C220.83 62.1787 224.076 63.3905 229.201 63.3905C232.917 63.3905 235.591 62.698 238.388 60.986C239.164 60.5051 239.961 60.1204 240.144 60.1204C240.573 60.1204 241.553 61.313 241.553 61.8324C241.553 62.6788 238.634 65.4103 235.775 67.2377C233.427 68.7189 229.732 70.0847 226.506 70.604C224.24 70.9695 219.176 70.9695 216.951 70.5848ZM226.036 70.2193C230.773 69.4884 235.428 67.3532 238.776 64.3716C240.614 62.7365 241.226 61.9478 240.961 61.5246C240.287 60.4282 240.308 60.4282 238.572 61.4284C235.796 63.025 234.428 63.4675 231.161 63.7945C227.363 64.16 223.852 63.5637 220.626 61.9863C218.482 60.9475 215.909 58.5623 214.623 56.4078C212.867 53.4647 211.908 50.0407 211.642 45.6356C211.52 43.789 211.54 43.3273 211.785 43.1927C211.949 43.0965 218.747 43.0195 227.016 43.0195H241.961V42.4617C241.961 41.1921 241.512 37.7873 241.124 36.0176C239.532 28.8426 235.346 23.745 229.364 21.6868C226.975 20.8596 224.73 20.5326 221.769 20.5326C214.746 20.5326 208.988 22.7063 204.558 27.0536C201.025 30.5161 198.922 34.4018 197.636 39.8648C197.248 41.5191 197.187 42.3655 197.187 45.828C197.187 49.2713 197.248 50.1561 197.636 51.7335C200.025 61.8324 207.069 68.4688 217.175 70.1616C219.707 70.5656 223.505 70.604 226.036 70.2193ZM211.663 39.7879C211.499 39.5571 211.887 36.133 212.275 34.3633C213.194 30.0929 214.644 26.9959 216.644 25.0915C217.727 24.072 218.217 23.745 219.094 23.5142C219.707 23.3411 220.381 23.2064 220.626 23.2064C221.565 23.2064 222.667 23.6681 223.484 24.3798C225.689 26.3034 226.955 30.4199 227.2 36.5178L227.323 39.5186L225.199 39.634C220.932 39.8456 211.785 39.9418 211.663 39.7879ZM223.362 39.23L226.914 39.1146L226.792 36.7294C226.342 28.3424 224.158 23.7643 220.626 23.7643C216.787 23.7643 213.725 28.4194 212.439 36.1715C212.275 37.1141 212.153 38.249 212.153 38.6722V39.4416L215.991 39.3839C218.074 39.3647 221.402 39.2878 223.362 39.23ZM257.785 70.7772C254.15 70.4117 248.352 69.2191 246.433 68.4304L245.494 68.0457L245.371 63.6598C245.31 61.2361 245.228 58.0044 245.187 56.4848L245.126 53.6956L245.698 53.4455C246.004 53.3108 246.637 53.1762 247.086 53.1569L247.923 53.1185L248.638 54.7535C251.394 61.1399 254.62 64.5639 258.826 65.6219C260.439 66.0259 263.44 66.0259 264.645 65.6219C267.973 64.5062 269.81 62.1402 269.831 58.8893C269.851 55.0421 267.605 53.1954 259.132 50.0792C253.885 48.1363 252.047 47.1553 249.863 45.0393C247.515 42.7695 246.372 40.1918 246.167 36.5947C245.902 32.2474 247.352 28.5733 250.557 25.457C253.783 22.3216 257.968 20.6095 263.665 20.1286C268.687 19.7055 276.384 20.7057 280.407 22.3023L281.142 22.5909L281.264 26.515C281.346 28.6695 281.407 31.5549 281.427 32.9399L281.468 35.4405L280.488 35.7868C278.916 36.3254 278.814 36.2677 277.957 34.094C275.527 28.0154 272.689 25.13 268.279 24.2452C265.584 23.7066 263.338 24.2836 261.705 25.9379C260.439 27.2268 259.928 28.3617 259.806 30.266C259.683 32.3435 260.071 33.4592 261.419 34.8442C263.073 36.5562 265.788 38.0182 271.199 40.1534C277.814 42.7695 280.978 44.9816 282.693 48.2133C283.816 50.31 284.123 51.9835 284.02 55.2152C283.939 57.6389 283.857 58.1391 283.265 59.7549C281.366 65.0641 277.058 68.5458 270.402 70.2001C268.156 70.7579 267.83 70.7772 263.338 70.8349C260.704 70.8349 258.234 70.8156 257.785 70.7772ZM267.483 70.2386C276.16 68.9882 281.754 64.6216 283.224 57.9275C283.939 54.6958 283.612 51.0987 282.367 48.6942C280.652 45.3279 277.732 43.2889 270.545 40.4227C265.196 38.2875 261.991 36.4793 260.684 34.8635C259.602 33.5169 259.255 32.4974 259.255 30.7085C259.275 28.0154 260.357 25.9572 262.44 24.6684C264.175 23.5911 266.339 23.3218 268.871 23.8989C271.934 24.5722 274.22 26.3419 276.303 29.612C276.956 30.6508 278.324 33.5746 278.977 35.3636C279.08 35.6521 279.202 35.6521 279.917 35.4598C280.366 35.3444 280.795 35.1712 280.876 35.0943C280.958 35.0173 280.958 32.2666 280.856 28.9772L280.713 22.9948L279.978 22.7063C278.732 22.2061 275.466 21.379 273.322 20.9943C271.709 20.7057 270.28 20.648 266.482 20.648C261.95 20.648 261.582 20.6865 259.704 21.1674C254.252 22.5524 250.23 25.457 248.127 29.4774C247.004 31.6126 246.617 33.2669 246.637 35.8445C246.657 39.4994 247.719 42.2116 250.047 44.5584C252.068 46.5975 254.681 48.0402 259.132 49.5983C262.644 50.8101 266.258 52.5222 267.646 53.5994C268.463 54.2342 269.096 54.9459 269.565 55.773C270.239 56.9464 270.28 57.1003 270.28 58.9278C270.28 60.6975 270.219 60.9668 269.626 62.1402C268.075 65.218 264.971 66.7568 260.908 66.4491C255.375 66.0259 251.496 62.5826 248.332 55.3114C247.515 53.407 247.454 53.3685 246.188 53.8302L245.616 54.0418L245.759 60.8129C245.882 66.8338 245.943 67.6225 246.249 67.8341C247.147 68.4881 253.027 69.7961 257.111 70.2578C260.235 70.5656 265.094 70.5656 267.483 70.2386ZM0.265421 69.623C0.102085 69.5653 0.020417 69.0844 0.020417 68.1995C0.020417 66.6029 -0.0816679 66.6799 3.18505 66.1028C5.69633 65.6604 6.59468 65.2179 7.6972 63.8522C9.84098 61.1976 10.3106 56.0808 10.3106 35.0366C10.3106 15.2812 9.90223 11.1069 7.6972 8.06765C6.71718 6.72112 5.04299 5.97092 2.26628 5.66314L0.122502 5.39384L0.0612509 3.81648L0 2.23912L0.67376 2.12371C1.04127 2.066 14.0265 2.02753 29.5229 2.066L57.6983 2.12371L57.8209 2.89315C57.9025 3.31634 58.0046 7.66369 58.0863 12.5304L58.2292 21.3982L56.7592 21.8407C54.5746 22.4754 54.595 22.4754 53.5945 20.0132C51.1853 13.9923 48.4086 10.5299 44.6111 8.76014C41.9977 7.54827 40.7931 7.41362 33.4022 7.41362H26.9708L26.8687 8.4139C26.6646 10.299 26.3379 22.4947 26.3379 28.227V33.9594L28.2162 33.9401C29.2575 33.9401 31.2992 33.8632 32.7692 33.7862C34.9743 33.6708 35.6276 33.5554 36.5464 33.1515C38.8127 32.1704 40.3439 29.9967 41.2831 26.4573L41.7731 24.6299L43.4473 24.5722L45.1215 24.5145V36.0753V47.6362L43.4473 47.5785L41.7731 47.5208L41.3035 45.6934C40.4052 42.2693 38.7106 39.8071 36.5872 38.9223C35.6072 38.5183 33.198 38.2875 28.5225 38.1528L26.3175 38.0951V42.4232C26.3175 47.1553 26.6033 53.5609 26.9504 57.0234C27.4404 61.8709 28.7471 64.5447 31.1155 65.5065C31.5646 65.6989 32.9938 65.9874 34.2801 66.1797C35.5664 66.3529 36.7914 66.5837 36.9751 66.6799C37.4651 66.93 37.506 69.4306 37.016 69.6038C36.6689 69.7577 0.632926 69.7577 0.265421 69.623ZM36.9751 68.1034C36.9751 67.5263 36.9139 67.0454 36.8526 67.0454C35.8726 67.0454 31.34 66.122 30.6254 65.7758C28.0325 64.5447 26.8279 61.6208 26.3787 55.3883C26.052 50.964 25.7254 37.9605 25.9295 37.7489C26.1133 37.5757 34.7497 37.8835 35.7705 38.1144C38.5676 38.7491 40.7114 41.3268 41.7935 45.3471L42.2631 47.1168L43.5086 47.1745L44.754 47.2322V36.0753V24.9184H43.4269C42.1815 24.9184 42.0998 24.9377 42.0998 25.3609C42.0998 26.0918 41.3239 28.4002 40.5889 29.8429C39.4456 32.1127 37.8326 33.4977 35.7705 33.9401C35.2601 34.0555 32.8713 34.2287 30.4621 34.3249C27.0729 34.4787 26.052 34.4595 25.9091 34.2864C25.6641 33.9594 26.2154 8.62549 26.4808 7.45209L26.5829 7.00966L34.0759 7.06737L41.5689 7.12508L43.3044 7.7214C47.3469 9.08716 50.2462 11.8764 52.6758 16.7046C53.227 17.7819 53.9212 19.3784 54.2275 20.2248C54.5337 21.0712 54.8196 21.7829 54.84 21.8214C54.8604 21.8599 55.5341 21.6868 56.3304 21.4752L57.78 21.0712L57.6779 14.781C57.6167 11.3185 57.5146 7.18279 57.4533 5.56696L57.3513 2.60461H28.8696H0.408339L0.46959 3.79724L0.530841 4.98988L2.36837 5.20148C4.8184 5.49002 5.71675 5.74008 6.69676 6.41335C8.1872 7.43286 9.10597 8.93327 9.69806 11.2993C10.5964 14.9734 10.9231 23.2449 10.7802 38.7491C10.6168 55.119 10.3922 58.5238 9.28972 61.8324C8.37096 64.5639 6.67635 66.0066 3.87922 66.4491C3.10338 66.5645 2.02128 66.7568 1.4496 66.8723L0.428756 67.0838V68.1226V69.1613H18.7019H36.9751V68.1034ZM100.921 69.5845C100.737 69.4691 100.676 69.0267 100.717 68.1034L100.778 66.7761L101.493 66.6414C101.881 66.5645 102.738 66.4106 103.371 66.2952C105.352 65.9489 106.474 64.9294 107.128 62.9481C107.659 61.3323 107.883 56.177 107.883 45.8088C107.904 33.1322 107.618 30.1506 106.25 28.4386C105.515 27.5153 104.984 27.2652 103.187 26.9382C102.309 26.7843 101.37 26.6112 101.125 26.5535C100.717 26.4765 100.676 26.3419 100.676 25.3993C100.676 24.476 100.737 24.3221 101.125 24.1682C101.738 23.9374 121.971 20.1286 122.604 20.1286H123.114L123.012 22.9756C122.951 24.5337 122.869 26.8036 122.828 28.0154L122.726 30.2276L123.461 28.9772C125.809 24.9954 128.443 22.5139 131.934 21.0135C133.854 20.1864 135.14 19.9363 137.508 19.9363C140.326 19.9363 143.143 20.8019 143.143 21.6675C143.143 22.2446 138.182 34.5942 137.917 34.6903C137.774 34.748 136.814 34.3826 135.773 33.9209C133.588 32.9399 131.526 32.4397 129.546 32.459C127.055 32.459 124.298 33.3246 123.196 34.4403C122.726 34.9212 122.726 34.9404 122.604 42C122.481 49.002 122.726 57.5428 123.155 60.9668C123.502 63.8907 124.339 65.3334 126.034 66.0066C126.606 66.2375 130.199 66.6991 131.363 66.6991C131.444 66.6991 131.506 67.3724 131.465 68.1995L131.404 69.6999L116.295 69.7384C107.985 69.7192 101.064 69.6615 100.921 69.5845ZM131.097 68.1226V67.0838L129.505 66.9492C125.85 66.6607 124.85 66.3144 123.89 65.0063C122.502 63.1212 122.196 59.6395 122.196 45.5587V34.5557L122.706 34.0555C123.339 33.4208 125.34 32.5167 126.749 32.2474C129.607 31.6895 133.282 32.1704 136.14 33.4977C136.957 33.8824 137.672 34.1517 137.712 34.1133C137.794 34.0363 142.51 22.3216 142.653 21.8214C142.715 21.5906 142.449 21.3982 141.653 21.1097C139.958 20.4749 138.488 20.2441 136.59 20.3595C131.526 20.6288 127.014 23.8027 123.768 29.4004C123.237 30.3238 122.665 31.0932 122.522 31.0932C122.318 31.0932 122.298 30.0352 122.4 25.784L122.543 20.4749L122.053 20.5903C121.787 20.648 117.704 21.4367 112.987 22.3216C102.881 24.2259 101.472 24.5145 101.227 24.6491C101.125 24.7068 101.044 25.0531 101.044 25.4186C101.044 26.1495 100.962 26.1111 103.249 26.4573C106.413 26.9382 107.516 28.3809 107.985 32.6321C108.598 38.1721 108.353 59.7357 107.638 62.6788C107.271 64.1792 106.332 65.6411 105.392 66.1413C105.045 66.3336 103.943 66.6414 102.942 66.8145L101.125 67.1416L101.064 68.1418V69.1613H116.091H131.118V68.1226H131.097Z" fill="#33629A"/>
</g>
<defs>
<clipPath id="clip0_1_3469">
<rect width="284" height="70" fill="white" transform="translate(0 0.873779)"/>
</clipPath>
</defs>
</svg>
