<svg width="284" height="71" viewBox="0 0 284 71" fill="none" xmlns="http://www.w3.org/2000/svg">
<path d="M49.7594 35.8927V34.9716C49.7594 34.465 49.1522 34.2693 48.1246 34.2693C46.7233 34.2693 45.9292 34.6953 45.7423 35.8927H49.7594ZM68.4904 35.5243C68.4904 35.0983 67.416 34.9716 66.295 34.9716C65.5476 34.9716 64.5667 35.0752 64.2397 35.1328V38.0917C64.2397 38.4486 64.8002 38.5522 65.968 38.6098V38.7134H55.9719V38.6098C56.6726 38.5752 57.5601 38.4601 57.5601 38.0687V34.7759C57.5601 34.3845 57.1397 34.2693 55.9719 34.2233V34.1197H64.3798L64.1463 35.0292C65.3141 34.4881 67.3226 34.0391 70.1253 34.0391C72.6009 34.0391 75.0766 34.3269 75.0766 35.3631V38.0802C75.0766 38.3795 75.2634 38.5637 76.4779 38.6213V38.7249H67.0424V38.6213C67.9298 38.5637 68.4437 38.4141 68.4437 38.0802L68.4904 35.5243ZM78.4864 34.7644C78.4864 34.465 78.1128 34.2578 76.945 34.2118V34.1081H85.1193V38.0572C85.1193 38.345 85.5397 38.5637 86.7542 38.5983V38.7019H76.8516V38.5983C78.066 38.5637 78.4864 38.3335 78.4864 38.0572V34.7644ZM85.3062 32.9338C85.3062 33.4174 83.6713 33.7973 81.7095 33.7973C79.7476 33.7973 78.1595 33.4174 78.1595 32.9338C78.1595 32.4618 79.7476 32.0703 81.7095 32.0703C83.6713 32.0818 85.3062 32.4618 85.3062 32.9338ZM99.4128 35.5243C99.4128 35.0983 98.3384 34.9716 97.2174 34.9716C96.47 34.9716 95.4891 35.0752 95.1621 35.1328V38.0917C95.1621 38.4486 95.6759 38.5522 96.8904 38.6098V38.7134H87.1279V38.6098C87.7818 38.5752 88.5292 38.4601 88.5292 38.0687V34.7759C88.5292 34.3845 88.1088 34.2693 86.9411 34.2233V34.1197H95.349L95.1154 35.0292C96.2832 34.4881 98.2917 34.0391 101.094 34.0391C103.57 34.0391 106.046 34.3269 106.046 35.3631V38.0802C106.046 38.3795 106.233 38.5637 107.447 38.6213V38.7249H98.0115V38.6213C98.899 38.5637 99.4128 38.4141 99.4128 38.0802V35.5243ZM117.91 35.5012C117.91 34.6377 117.49 34.2463 116.322 34.2463C115.061 34.2463 114.547 34.6262 114.547 35.5012V35.6394C114.547 36.5029 115.061 36.8943 116.322 36.8943C117.536 36.8943 117.91 36.5144 117.91 35.6394V35.5012ZM159.436 37.896C158.829 38.2874 156.727 38.7595 153.457 38.7595C150.047 38.7595 149.066 38.2183 149.066 37.6772V34.396H147.431V34.2924C149.86 34.1887 153.363 33.6937 155.325 33.1756H155.746V34.1197H159.389V34.4075H155.746V37.5506C155.746 37.8499 156.306 38.0341 157.474 38.0341C158.268 38.0341 158.875 37.9305 159.156 37.8499L159.436 37.896ZM190.265 35.5243C190.265 35.0983 189.19 34.9716 188.069 34.9716C187.322 34.9716 186.341 35.0752 186.014 35.1328V38.0917C186.014 38.4486 186.528 38.5522 187.742 38.6098V38.7134H177.887V38.6098C178.587 38.5752 179.381 38.4601 179.381 38.0687V34.7759C179.381 34.3845 178.961 34.2693 177.793 34.2233V34.1197H186.201L185.967 35.0292C187.135 34.4881 189.144 34.0391 191.946 34.0391C194.422 34.0391 196.898 34.3269 196.898 35.3631V38.0802C196.898 38.3795 197.085 38.5637 198.299 38.6213V38.7249H188.864V38.6213C189.751 38.5637 190.265 38.4141 190.265 38.0802V35.5243ZM210.444 37.5621C210.444 37.9535 209.042 38.1262 208.155 38.1262C206.287 38.1262 205.352 37.8039 205.352 37.2743V35.0062C205.352 34.5111 206.707 34.3039 208.062 34.3039C209.229 34.3039 210.444 34.5226 210.444 34.9256V37.5621ZM5.15085 33.1756C5.15085 32.7956 4.59033 32.4848 2.16138 32.4387V32.2891H22.714V33.947H22.0134C19.7246 33.0144 18.9772 32.5654 16.5482 32.5654H12.6713V35.3861H14.2594C16.8752 35.3861 17.6693 35.1098 18.9772 34.3269H19.5377V36.6871H18.9772C17.6693 35.9042 16.8752 35.6279 14.2594 35.6279H12.6713V37.942C12.6713 38.2644 13.1384 38.4371 15.1002 38.4371H16.1745C19.9581 38.4371 21.0324 37.8154 23.4614 36.8022H24.1153L23.368 38.7134H2.16138V38.5522C4.54362 38.5062 5.15085 38.1953 5.15085 37.8154V33.1756ZM218.805 38.7019V38.5983C217.264 38.5407 217.077 38.345 217.077 38.0572V32.2891H208.435V32.4042C210.21 32.4618 210.444 32.4733 210.444 32.715V34.3614C209.79 34.1772 208.295 34.016 206.38 34.016C202.363 34.016 198.252 34.7874 198.252 36.4914C198.252 38.0687 201.055 38.8055 205.072 38.8055C208.108 38.8055 209.837 38.345 210.444 38.0226V38.6904H218.805V38.7019ZM264.815 37.5621C264.815 37.9535 263.414 38.1262 262.526 38.1262C260.658 38.1262 259.723 37.8039 259.723 37.2743V35.0062C259.723 34.5111 261.078 34.3039 262.433 34.3039C263.6 34.3039 264.815 34.5226 264.815 34.9256V37.5621ZM273.176 38.7019V38.5983C271.635 38.5407 271.448 38.345 271.448 38.0572V32.2891H262.806V32.4042C264.581 32.4618 264.815 32.4733 264.815 32.715V34.3614C264.161 34.1772 262.666 34.016 260.751 34.016C256.734 34.016 252.623 34.7874 252.623 36.4914C252.623 38.0687 255.426 38.8055 259.443 38.8055C262.479 38.8055 264.208 38.345 264.815 38.0226V38.6904H273.176V38.7019ZM228.567 38.0226V35.9042C228.194 36.3762 225.391 36.4914 225.391 37.3088V37.3433C225.391 37.7463 226.512 38.0456 227.914 38.0456C228.147 38.0456 228.334 38.0341 228.567 38.0226ZM245.29 35.4322V37.9075C245.29 38.345 245.804 38.5292 247.345 38.6098V38.7134H237.162V38.6098C237.816 38.5752 238.657 38.4601 238.657 38.0687V34.7759C238.657 34.4766 238.237 34.2693 237.069 34.2233V34.1197H245.477C245.29 34.5456 245.29 34.8335 245.29 35.4322ZM253.091 34.8795C253.091 35.3631 251.456 35.743 249.494 35.743C247.532 35.743 245.944 35.3631 245.944 34.8795C245.944 34.4075 247.532 34.016 249.494 34.016C251.456 34.016 253.091 34.4075 253.091 34.8795ZM111.884 36.9289C111.604 36.9979 111.371 37.09 111.371 37.2167C111.371 37.3548 111.698 37.493 113.052 37.493L120.152 37.516C124.823 37.5275 126.225 38.1723 126.225 38.7019C126.225 40.1065 119.685 40.6706 115.014 40.6706C109.035 40.6706 106.933 40.2331 106.933 39.715C106.933 39.4042 108.194 39.0818 110.81 39.0818C111.184 39.0818 111.511 39.0933 111.884 39.1048L111.931 39.1279C111.324 39.2545 110.904 39.4387 110.904 39.6345C110.904 40.0144 112.352 40.3943 116.229 40.3943C120.059 40.3943 122.441 40.0144 122.441 39.5769C122.441 39.22 121.413 39.0703 118.751 39.0358L113.379 38.9782C109.456 38.9322 107.961 38.4716 107.961 37.9305C107.961 37.5621 109.175 37.0785 111.417 36.8828C109.315 36.6295 107.867 36.2035 107.867 35.5703C107.867 34.6262 111.558 34.0275 116.229 34.0275C117.677 34.0275 119.078 34.0851 120.292 34.2002C120.806 34.2233 121.273 34.2233 121.74 34.2233C123.562 34.2233 125.244 34.1312 126.879 33.9585V34.7414H126.645C125.711 34.7183 123.142 34.5226 121.367 34.3384C123.235 34.6147 124.496 35.0407 124.496 35.5818C124.496 36.5489 120.806 37.1476 116.229 37.1476C114.734 37.1246 113.192 37.067 111.884 36.9289ZM133.652 35.7775C131.596 35.4091 129.868 34.9025 129.868 34.2233C129.868 33.0489 134.072 32.2085 140.191 32.2085C142.854 32.2085 145.329 32.3581 147.011 32.5078L146.824 34.016H146.077C144.208 33.0259 142.947 32.4848 140.191 32.4848C138.089 32.4848 136.501 32.8302 136.501 33.3943C136.501 33.7743 137.529 34.0851 138.977 34.3384L142.854 35.0407C145.843 35.5818 147.665 35.9848 147.665 36.7331C147.665 38.0341 142.573 38.794 137.388 38.794C134.119 38.794 131.083 38.5637 129.588 38.3565L129.308 36.641H130.055C132.297 37.8269 134.212 38.5062 137.295 38.5062C139.35 38.5062 140.938 38.1953 140.938 37.5966C140.938 37.1361 139.537 36.8137 137.669 36.4914L133.652 35.7775ZM55.9252 37.2167C54.9443 38.0687 52.2351 38.8055 47.3305 38.8055C41.7252 38.8055 38.689 37.7924 38.689 36.618C38.689 35.1443 42.3325 34.0275 48.2647 34.0275C52.6088 34.0275 55.8785 34.6953 55.8785 35.9963V36.1805H45.6956C45.6956 37.3664 48.0312 37.8269 50.6002 37.8269C52.3285 37.8269 54.1502 37.6657 55.5048 37.1822L55.9252 37.2167ZM178.54 38.2414C177.326 38.5637 175.411 38.817 173.075 38.817C170.787 38.817 169.572 38.5522 169.338 38.1723C168.404 38.5292 166.863 38.8055 164.574 38.8055C161.678 38.8055 159.623 38.322 159.623 37.6427C159.623 36.8252 161.865 36.5374 165.462 36.2956C168.358 36.1114 169.432 35.8581 169.432 35.3055V35.271C169.432 34.7068 167.563 34.3384 165.275 34.3384C164.714 34.3384 164.154 34.3614 163.546 34.396C165.228 34.4305 166.583 34.7759 166.583 35.1789C166.583 35.6279 165.088 35.9733 163.219 35.9733C161.491 35.9733 160.137 35.6279 160.137 35.2019C160.137 34.4535 164.247 34.0045 168.778 34.0045C173.169 34.0045 175.925 34.4305 175.925 35.2364C175.925 35.2479 175.925 36.2956 175.831 37.896C175.831 38.0802 176.205 38.2414 176.999 38.2414C177.326 38.2414 177.746 38.2183 178.214 38.1493L178.54 38.2414ZM169.292 38.0226V35.9042C168.918 36.3762 166.115 36.4914 166.115 37.3088V37.3433C166.115 37.7463 167.237 38.0456 168.638 38.0456C168.871 38.0456 169.058 38.0341 169.292 38.0226ZM237.816 38.2414C236.602 38.5637 234.687 38.817 232.351 38.817C230.062 38.817 228.848 38.5522 228.614 38.1723C227.68 38.5292 226.139 38.8055 223.85 38.8055C220.954 38.8055 218.898 38.322 218.898 37.6427C218.898 36.8252 221.141 36.5374 224.737 36.2956C227.633 36.1114 228.708 35.8581 228.708 35.3055V35.271C228.708 34.7068 226.839 34.3384 224.55 34.3384C223.99 34.3384 223.429 34.3614 222.822 34.396C224.504 34.4305 225.858 34.7759 225.858 35.1789C225.858 35.6279 224.364 35.9733 222.495 35.9733C220.767 35.9733 219.412 35.6279 219.412 35.2019C219.412 34.4535 223.523 34.0045 228.054 34.0045C232.444 34.0045 235.2 34.4305 235.2 35.2364C235.2 35.2479 235.2 36.2956 235.107 37.896C235.107 38.0802 235.481 38.2414 236.275 38.2414C236.602 38.2414 237.022 38.2183 237.489 38.1493L237.816 38.2414ZM33.7844 38.7019H28.4127L23.368 34.868C22.8074 34.465 22.2002 34.2808 21.4528 34.2118V34.1081H32.8035V34.2118C30.8417 34.2923 30.0943 34.4766 30.6081 34.9141L34.0647 37.7118L36.914 35.2019C37.1476 34.9716 37.3344 34.7874 37.3344 34.6147C37.3344 34.3154 36.4936 34.2348 35.466 34.2002V34.0966H41.2581V34.2002C40.2305 34.2924 39.5298 34.419 38.5022 35.1558L33.7844 38.7019Z" fill="#1D1D1B"/>
<path d="M278.454 38.7066C280.647 38.7066 282.424 38.2633 282.424 37.7165C282.424 37.1696 280.647 36.7263 278.454 36.7263C276.261 36.7263 274.484 37.1696 274.484 37.7165C274.484 38.2633 276.261 38.7066 278.454 38.7066Z" fill="#DD052B"/>
<path d="M49.7594 35.8981V34.977C49.7594 34.4704 49.1522 34.2747 48.1246 34.2747C46.7233 34.2747 45.9292 34.7007 45.7423 35.8981H49.7594ZM68.4904 35.5296C68.4904 35.1036 67.416 34.977 66.295 34.977C65.5476 34.977 64.5667 35.0806 64.2397 35.1382V38.0971C64.2397 38.454 64.8002 38.5576 65.968 38.6152V38.7188H55.9719V38.6152C56.6726 38.5806 57.5601 38.4655 57.5601 38.074V34.7813C57.5601 34.3898 57.1397 34.2747 55.9719 34.2286V34.125H64.3798L64.1463 35.0346C65.3141 34.4934 67.3226 34.0444 70.1253 34.0444C72.6009 34.0444 75.0766 34.3323 75.0766 35.3684V38.0625C75.0766 38.3619 75.2634 38.5461 76.4779 38.6036V38.7073H67.0424V38.6036C67.9298 38.5461 68.4437 38.3964 68.4437 38.0625L68.4904 35.5296ZM78.4864 34.7698C78.4864 34.4704 78.1128 34.2632 76.945 34.2171V34.1135H85.1193V38.0625C85.1193 38.3504 85.5397 38.5691 86.7542 38.6036V38.7073H76.8516V38.6036C78.066 38.5691 78.4864 38.3388 78.4864 38.0625V34.7698ZM85.3062 32.9392C85.3062 33.4227 83.6713 33.8027 81.7095 33.8027C79.7476 33.8027 78.1595 33.4227 78.1595 32.9392C78.1595 32.4671 79.7476 32.0757 81.7095 32.0757C83.6713 32.0757 85.3062 32.4671 85.3062 32.9392ZM99.4128 35.5296C99.4128 35.1036 98.3384 34.977 97.2174 34.977C96.47 34.977 95.4891 35.0806 95.1621 35.1382V38.0971C95.1621 38.454 95.6759 38.5576 96.8904 38.6152V38.7188H87.1279V38.6152C87.7818 38.5806 88.5292 38.4655 88.5292 38.074V34.7813C88.5292 34.3898 88.1088 34.2747 86.9411 34.2286V34.125H95.349L95.1154 35.0346C96.2832 34.4934 98.2917 34.0444 101.094 34.0444C103.57 34.0444 106.046 34.3323 106.046 35.3684V38.0625C106.046 38.3619 106.233 38.5461 107.447 38.6036V38.7073H98.0115V38.6036C98.899 38.5461 99.4128 38.3964 99.4128 38.0625V35.5296ZM117.91 35.4951C117.91 34.6316 117.49 34.2402 116.322 34.2402C115.061 34.2402 114.547 34.6201 114.547 35.4951V35.6332C114.547 36.4967 115.061 36.8882 116.322 36.8882C117.536 36.8882 117.91 36.5082 117.91 35.6332V35.4951ZM159.436 37.9013C158.829 38.2928 156.727 38.7648 153.457 38.7648C150.047 38.7648 149.066 38.2237 149.066 37.6826V34.4013H147.431V34.2977C149.86 34.1941 153.363 33.699 155.325 33.1809H155.746V34.125H159.389V34.4129H155.746V37.5559C155.746 37.8553 156.306 38.0395 157.474 38.0395C158.268 38.0395 158.875 37.9359 159.156 37.8553L159.436 37.9013ZM190.265 35.5296C190.265 35.1036 189.19 34.977 188.069 34.977C187.322 34.977 186.341 35.0806 186.014 35.1382V38.0971C186.014 38.454 186.528 38.5576 187.742 38.6152V38.7188H177.887V38.6152C178.587 38.5806 179.381 38.4655 179.381 38.074V34.7813C179.381 34.3898 178.961 34.2747 177.793 34.2286V34.125H186.201L185.967 35.0346C187.135 34.4934 189.144 34.0444 191.946 34.0444C194.422 34.0444 196.898 34.3323 196.898 35.3684V38.0625C196.898 38.3619 197.085 38.5461 198.299 38.6036V38.7073H188.864V38.6036C189.751 38.5461 190.265 38.3964 190.265 38.0625V35.5296ZM210.444 37.5559C210.444 37.9474 209.042 38.1201 208.155 38.1201C206.287 38.1201 205.352 37.7977 205.352 37.2681V35C205.352 34.505 206.707 34.2977 208.062 34.2977C209.229 34.2977 210.444 34.5165 210.444 34.9194V37.5559ZM5.15085 33.1809C5.15085 32.801 4.59033 32.4902 2.16138 32.4441V32.2944H22.714V33.9408H22.0134C19.7246 33.0083 18.9772 32.5592 16.5482 32.5592H12.6713V35.38H14.2594C16.8752 35.38 17.6693 35.1036 18.9772 34.3207H19.5377V36.6809H18.9772C17.6693 35.8981 16.8752 35.6217 14.2594 35.6217H12.6713V37.9474C12.6713 38.2698 13.1384 38.4425 15.1002 38.4425H16.1745C19.9581 38.4425 21.0324 37.8207 23.4614 36.8076H24.1153L23.368 38.7188H2.16138V38.5691C4.54362 38.5231 5.15085 38.2122 5.15085 37.8323V33.1809ZM218.805 38.7073V38.6036C217.264 38.5461 217.077 38.3504 217.077 38.0625V32.2944H208.435V32.4096C210.21 32.4671 210.444 32.4786 210.444 32.7204V34.3668C209.79 34.1826 208.295 34.0214 206.38 34.0214C202.363 34.0214 198.252 34.7928 198.252 36.4967C198.252 38.074 201.055 38.8109 205.072 38.8109C208.108 38.8109 209.837 38.3504 210.444 38.028V38.6957H218.805V38.7073ZM264.815 37.5559C264.815 37.9474 263.414 38.1201 262.526 38.1201C260.658 38.1201 259.723 37.7977 259.723 37.2681V35C259.723 34.505 261.078 34.2977 262.433 34.2977C263.6 34.2977 264.815 34.5165 264.815 34.9194V37.5559ZM273.176 38.7073V38.6036C271.635 38.5461 271.448 38.3504 271.448 38.0625V32.2944H262.806V32.4096C264.581 32.4671 264.815 32.4786 264.815 32.7204V34.3668C264.161 34.1826 262.666 34.0214 260.751 34.0214C256.734 34.0214 252.623 34.7928 252.623 36.4967C252.623 38.074 255.426 38.8109 259.443 38.8109C262.479 38.8109 264.208 38.3504 264.815 38.028V38.6957H273.176V38.7073ZM228.567 38.028V35.9096C228.194 36.3816 225.391 36.4967 225.391 37.3142V37.3487C225.391 37.7517 226.512 38.051 227.914 38.051C228.147 38.0395 228.334 38.028 228.567 38.028ZM245.29 35.426V37.9013C245.29 38.3388 245.804 38.5231 247.345 38.6036V38.7073H237.162V38.6036C237.816 38.5691 238.657 38.454 238.657 38.0625V34.7698C238.657 34.4704 238.237 34.2632 237.069 34.2171V34.1135H245.477C245.29 34.5395 245.29 34.8388 245.29 35.426ZM253.091 34.8849C253.091 35.3684 251.456 35.7484 249.494 35.7484C247.532 35.7484 245.944 35.3684 245.944 34.8849C245.944 34.4129 247.532 34.0214 249.494 34.0214C251.456 34.0214 253.091 34.4129 253.091 34.8849ZM111.884 36.9227C111.604 36.9918 111.371 37.0839 111.371 37.2106C111.371 37.3487 111.698 37.4869 113.052 37.4869L120.152 37.5099C124.823 37.5214 126.225 38.1661 126.225 38.6957C126.225 40.1004 119.685 40.6645 115.014 40.6645C109.035 40.6645 106.933 40.227 106.933 39.7089C106.933 39.3981 108.194 39.0757 110.81 39.0757C111.184 39.0757 111.511 39.0872 111.884 39.0987L111.931 39.1217C111.324 39.2484 110.904 39.4326 110.904 39.6283C110.904 40.0082 112.352 40.3882 116.229 40.3882C120.059 40.3882 122.441 40.0082 122.441 39.5707C122.441 39.2138 121.413 39.0642 118.751 39.0296L113.379 38.9721C109.456 38.926 107.961 38.4655 107.961 37.9244C107.961 37.5559 109.175 37.0724 111.417 36.8767C109.315 36.6234 107.867 36.1974 107.867 35.5642C107.867 34.6201 111.558 34.0214 116.229 34.0214C117.677 34.0214 119.078 34.079 120.292 34.1941C120.806 34.2171 121.273 34.2171 121.74 34.2171C123.562 34.2171 125.244 34.125 126.879 33.9523V34.7352H126.645C125.711 34.7122 123.142 34.5165 121.367 34.3323C123.235 34.6086 124.496 35.0346 124.496 35.5757C124.496 36.5428 120.806 37.1415 116.229 37.1415C114.734 37.13 113.192 37.0609 111.884 36.9227ZM133.652 35.7714C131.596 35.403 129.868 34.8964 129.868 34.2171C129.868 33.0428 134.072 32.2023 140.191 32.2023C142.854 32.2023 145.329 32.352 147.011 32.5017L146.824 34.0099H146.077C144.208 33.0198 142.947 32.4786 140.191 32.4786C138.089 32.4786 136.501 32.824 136.501 33.3882C136.501 33.7681 137.529 34.079 138.977 34.3323L142.854 35.0346C145.843 35.5757 147.665 35.9786 147.665 36.727C147.665 38.028 142.573 38.7879 137.388 38.7879C134.119 38.7879 131.083 38.5576 129.588 38.3504L129.308 36.6349H130.055C132.297 37.8207 134.212 38.5 137.295 38.5C139.35 38.5 140.938 38.1892 140.938 37.5905C140.938 37.13 139.537 36.8076 137.669 36.4852L133.652 35.7714ZM55.9252 37.2221C54.9443 38.074 52.2351 38.8109 47.3305 38.8109C41.7252 38.8109 38.689 37.7977 38.689 36.6234C38.689 35.1497 42.3325 34.0329 48.2647 34.0329C52.6088 34.0329 55.8785 34.7007 55.8785 36.0017V36.1859H45.6956C45.6956 37.3717 48.0312 37.8323 50.6002 37.8323C52.3285 37.8323 54.1502 37.6711 55.5048 37.1875L55.9252 37.2221ZM178.54 38.2352C177.326 38.5576 175.411 38.8109 173.075 38.8109C170.787 38.8109 169.572 38.5461 169.338 38.1661C168.404 38.5231 166.863 38.7994 164.574 38.7994C161.678 38.7994 159.623 38.3158 159.623 37.6365C159.623 36.8191 161.865 36.5313 165.462 36.2895C168.358 36.1053 169.432 35.852 169.432 35.2994V35.2648C169.432 34.7007 167.563 34.3323 165.275 34.3323C164.714 34.3323 164.154 34.3553 163.546 34.3898C165.228 34.4244 166.583 34.7698 166.583 35.1727C166.583 35.6217 165.088 35.9671 163.219 35.9671C161.491 35.9671 160.137 35.6217 160.137 35.1957C160.137 34.4474 164.247 33.9984 168.778 33.9984C173.169 33.9984 175.925 34.4244 175.925 35.2303C175.925 35.2418 175.925 36.2895 175.831 37.8898C175.831 38.074 176.205 38.2352 176.999 38.2352C177.326 38.2352 177.746 38.2122 178.214 38.1431L178.54 38.2352ZM169.292 38.028V35.9096C168.918 36.3816 166.115 36.4967 166.115 37.3142V37.3487C166.115 37.7517 167.237 38.051 168.638 38.051C168.871 38.0395 169.058 38.028 169.292 38.028ZM237.816 38.2352C236.602 38.5576 234.687 38.8109 232.351 38.8109C230.062 38.8109 228.848 38.5461 228.614 38.1661C227.68 38.5231 226.139 38.7994 223.85 38.7994C220.954 38.7994 218.898 38.3158 218.898 37.6365C218.898 36.8191 221.141 36.5313 224.737 36.2895C227.633 36.1053 228.708 35.852 228.708 35.2994V35.2648C228.708 34.7007 226.839 34.3323 224.55 34.3323C223.99 34.3323 223.429 34.3553 222.822 34.3898C224.504 34.4244 225.858 34.7698 225.858 35.1727C225.858 35.6217 224.364 35.9671 222.495 35.9671C220.767 35.9671 219.412 35.6217 219.412 35.1957C219.412 34.4474 223.523 33.9984 228.054 33.9984C232.444 33.9984 235.2 34.4244 235.2 35.2303C235.2 35.2418 235.2 36.2895 235.107 37.8898C235.107 38.074 235.481 38.2352 236.275 38.2352C236.602 38.2352 237.022 38.2122 237.489 38.1431L237.816 38.2352ZM33.7844 38.7073H28.4127L23.368 34.8619C22.8074 34.4589 22.2002 34.2747 21.4528 34.2056V34.102H32.8035V34.2056C30.8417 34.2862 30.0943 34.4704 30.6081 34.9079L34.0647 37.7056L36.914 35.1957C37.1476 34.9655 37.3344 34.7813 37.3344 34.6086C37.3344 34.3092 36.4936 34.2286 35.466 34.1941V34.0905H41.2581V34.1941C40.2305 34.2862 39.5298 34.4129 38.5022 35.1497L33.7844 38.7073Z" fill="#1D1D1B"/>
</svg>
