<svg width="284" height="71" viewBox="0 0 284 71" fill="none" xmlns="http://www.w3.org/2000/svg">
<path d="M83.5975 2.87114C67.2593 2.97961 53.8952 19.8412 53.8952 34.5484C53.8952 50.0253 63.6917 68.9046 83.5975 68.8434C103.503 68.7821 113.835 48.4569 113.835 34.5484C113.835 19.1854 99.9357 2.76268 83.5975 2.87114ZM83.5975 3.44801C97.2719 3.44801 100.961 17.4716 100.961 34.5484C100.961 57.0809 96.5109 68.1973 83.5975 68.1761C70.684 68.1549 66.483 59.0566 66.483 34.5484C66.483 19.196 69.9231 3.44801 83.5975 3.44801Z" fill="black"/>
<path d="M119.23 34.9643C119.157 18.2298 133.58 3.40628 145.79 2.67082C150.201 2.38068 155.87 4.25608 159.179 5.59204C161.583 6.56215 166.489 5.15795 167.36 2.58179H167.835V25.3773H167.36C167.36 24.4056 162.814 3.24393 145.79 3.24393C133.216 3.24393 132.001 23.7746 132.001 34.9643C132.001 46.154 132.368 68.3059 147.041 68.3059C154.149 68.3059 159.411 65.4181 160.775 59.576V41.8124H154.808V41.0557H177.935V41.8124H172.231V67.7827H171.767C171.767 67.7827 170.839 64.0355 166.134 64.048C160.119 64.064 154.447 68.916 147.533 68.857C129.248 68.7008 119.303 51.6988 119.23 34.9643Z" fill="black"/>
<path d="M9.04052 5.11663H1.83948V4.36499H27.0651V5.11663H20.7366L38.761 50.5689C44.3972 34.4559 48.7636 22.5452 54.6395 5.11663H48.3798V4.36499H61.6991V5.11663H55.6336L33.7269 68.5313L9.04052 5.11663Z" fill="black"/>
<path d="M181.467 53.0057L181.353 5.04364H174.499V4.3252H199.751V5.04364H192.901L193.053 57.6315C194.57 63.6533 197.266 68.2224 206.477 68.2904C215.689 68.3585 221.951 63.2305 224.278 56.2226V5.04364H216.437L216.437 4.34636H280.615L280.748 27.3701H280.131C278.941 12.5045 272.764 6.88641 261.961 5.24741C258.243 4.68342 254.343 5.10151 249.413 5.06593V34.4503C253.706 34.7582 258.28 34.5063 261.361 32.0484C264.164 29.8133 264.956 24.6494 265.162 22.5515H265.705V48.1361H265.117C264.948 48.1361 264.722 41.7158 261.361 38.6697C257.978 35.6037 253.671 34.8499 249.413 35.5804V66.9693C255.427 66.9693 260.22 67.4422 264.383 66.3825C277.036 63.1612 281.491 53.2484 281.457 43.3062H282.161V67.7124H231.821V66.9693H237.513V5.04364H225.215V56.2226C223.822 61.1194 218.727 69.2207 205.672 69.1654C193.533 69.114 181.493 64.0323 181.467 53.0057Z" fill="black"/>
</svg>
