<svg width="284" height="71" viewBox="0 0 284 71" fill="none" xmlns="http://www.w3.org/2000/svg">
<path fill-rule="evenodd" clip-rule="evenodd" d="M22.7758 19.5152C22.0946 19.5152 21.5263 19.3918 20.8826 19.2709V37.1786C20.8826 37.6048 20.8446 37.7257 20.6921 37.9073L14.3262 44.4042C15.2739 45.1329 16.4105 45.6199 17.5867 45.6199C21.6017 45.6199 26.1476 42.0963 28.2715 33.295C28.3844 32.808 28.6488 32.6871 28.6488 33.5367V34.1447C28.6488 43.7956 24.0633 52.4759 17.2828 52.4759C9.89384 52.4759 5.46136 43.5513 5.46136 34.2654C5.46136 27.2852 7.84533 20.7892 13.265 18.0578C13.4935 17.9335 13.5316 18.1152 13.3785 18.2995C10.9924 21.2727 9.70334 26.1304 9.70334 30.9871C9.70334 36.1474 10.9924 41.2467 13.8714 43.9807L15.4629 42.0354C15.9953 41.3676 16.1066 40.7623 16.1066 39.7884V17.6917C14.3642 16.6604 12.8124 16.0525 11.3702 16.0525C9.40099 16.0525 7.619 17.4465 5.87666 20.8492C5.6878 21.2127 5.57267 21.2127 5.57267 20.8492C5.80118 13.9897 9.62732 10.1035 13.4165 10.1035C17.7751 10.1035 21.7906 13.5062 26.1871 13.5062C27.739 13.5062 29.3321 12.9558 30.6576 11.8036C30.8465 11.6827 30.8839 11.9244 30.8085 12.1662C29.4455 17.6317 26.1096 19.5152 22.7758 19.5152ZM43.3908 51.9315C43.2377 52.1733 43.2377 52.1133 43.1242 51.9924L40.0929 47.6827C39.7889 47.2557 39.6379 46.8931 39.6379 46.1035V29.4688C39.6379 29.2879 39.6379 29.1036 39.4865 28.9218L38.4634 27.4635C38.3483 27.3461 38.1974 27.2852 38.0465 27.4061L36.1152 28.8609V44.5276C36.1152 44.7694 36.0757 45.012 36.2282 45.1929L37.1004 46.406C37.3274 46.7088 37.7045 47.0747 38.0465 46.8931L38.3483 46.7088C38.7277 46.4661 38.8054 46.8295 38.5769 47.1347L35.0921 51.9315C34.939 52.1733 34.9011 52.1133 34.7882 51.9924L31.7181 47.6218C31.341 47.1347 31.341 47.014 31.341 46.2244V19.2709C31.341 18.9683 31.341 18.9048 31.1504 18.6631L30.771 18.1152C30.3932 17.5708 30.2423 17.6917 29.7495 18.0578L28.9907 18.6022C28.8773 18.6631 28.7638 18.4204 28.9526 18.1152L32.9682 12.7133C33.1212 12.4714 33.1212 12.5323 33.2342 12.6533L35.6598 16.2367C35.9638 16.7211 36.1152 17.0239 36.1152 17.8126V27.9504L41.1534 22.8519C41.3064 22.7301 41.4574 22.7301 41.5709 22.9119L44.0346 26.5565C44.3743 27.0409 44.4498 27.4061 44.4498 28.0113V44.6461C44.4498 44.9513 44.4498 45.012 44.6403 45.2538L45.5879 46.527C45.9658 47.0747 46.1167 46.9531 46.6095 46.5903L47.3683 46.0434C47.4812 45.9825 47.5968 46.2244 47.4058 46.527L43.3908 51.9315ZM59.531 31.8376L52.8238 38.5762V43.7355C52.8238 44.2191 52.8618 44.4042 53.1278 44.5852L55.2875 46.406C55.6648 46.7088 56.3107 47.014 56.6902 46.6479L58.6985 44.7694C59.0382 44.4642 59.3047 44.6461 59.1142 44.8912L53.6207 51.9924C53.5056 52.1733 53.5452 52.1133 53.3938 51.9924L48.5044 47.8634C48.1249 47.5617 48.0121 47.4375 48.0121 46.5903V27.4061C48.0121 27.1009 48.0891 26.98 48.3139 26.8591L56.3107 22.7301C56.4242 22.6703 56.5371 22.6094 56.6125 22.8519L59.6065 31.3506C59.682 31.5349 59.682 31.7167 59.531 31.8376ZM52.9015 25.9485L52.8238 26.0061V37.789L55.4765 34.2654C55.629 34.0846 55.629 33.9602 55.5535 33.7819L52.9015 25.9485ZM86.9212 44.3433L81.4651 51.8715C81.3126 52.0524 81.1991 52.1733 81.0483 52.0524C77.7878 49.4426 74.9848 47.9844 72.1434 47.9844C69.793 47.9844 67.4825 49.2584 64.9058 51.9924C64.6773 52.2342 64.5265 52.1733 64.6773 51.7507C66.0424 48.2271 67.8618 44.5276 70.135 42.825C70.1725 42.5833 70.2121 41.7937 70.2121 40.6989V22.8519C70.2121 22.6094 70.2881 22.4884 70.439 22.3675L74.7579 18.1787C73.8102 18.4813 72.7496 18.7265 71.8394 18.7265C67.8999 18.7265 65.891 15.5689 65.1702 10.5905C65.1322 10.3454 65.2076 10.2853 65.3211 10.3454C67.3315 11.9244 68.9984 12.4714 70.6279 12.4714C73.3554 12.4714 77.2574 10.1035 79.6458 10.1035C84.4575 10.1035 87.1117 13.3219 87.1117 23.8258V43.6746C87.1117 43.9807 87.0341 44.1617 86.9212 44.3433ZM82.3358 23.8258C82.3358 18.2394 81.2371 16.7211 79.5323 16.7211C78.2806 16.7211 76.6892 17.5107 74.9848 18.1152V36.3281C74.9848 36.6342 74.9094 36.8761 74.7959 37.0003L70.2881 42.7617C71.46 41.9754 72.7496 41.6119 74.0371 41.6119C76.8026 41.6119 79.7228 43.2485 82.0714 45.012C82.2603 45.1929 82.3358 45.012 82.3358 44.7059V23.8258ZM100.681 51.9315C100.53 52.1733 100.492 52.1133 100.379 51.9924L96.9301 47.1347L92.8376 51.9924C92.6866 52.1733 92.6486 52.1133 92.4977 51.9315L89.8831 48.1662C89.4657 47.6218 89.4283 47.4975 89.4283 46.7686V29.0452C89.4283 28.74 89.5792 28.6801 89.6546 28.6192L98.4461 22.791C98.5971 22.6703 98.7479 22.6703 98.901 22.9119L101.25 26.6772C101.589 27.2217 101.706 27.5277 101.706 27.8905V45.012L102.388 45.9825C103.22 47.1347 103.333 47.0747 103.713 46.7686L104.244 46.3451C104.585 46.0434 104.849 46.2851 104.545 46.7088L100.681 51.9315ZM96.9301 29.3479C96.9301 28.9818 96.8906 28.8009 96.7038 28.4983L95.3387 26.3146C95.2633 26.1904 95.2633 26.2537 95.1482 26.3146L94.2004 26.98V44.5276C94.2004 45.1329 94.2781 45.4357 94.5441 45.8009L95.0369 46.527C95.3766 47.014 95.7936 47.2557 96.2864 46.8931L96.9301 46.406V29.3479ZM109.51 51.9315C109.357 52.1733 109.32 52.1133 109.206 51.9924L106.139 47.6218C105.759 47.1347 105.759 47.014 105.759 46.2244V29.4688C105.759 29.167 105.759 29.1036 105.571 28.8609L105.191 28.3165C104.812 27.7696 104.66 27.8905 104.168 28.2531L103.409 28.8009C103.296 28.8609 103.182 28.6192 103.371 28.3165L107.389 22.9119C107.542 22.6703 107.542 22.7301 107.653 22.8519L110.079 26.4321C110.383 26.9191 110.533 27.2217 110.533 28.0113V44.5276C110.533 44.7694 110.496 45.012 110.647 45.1929L111.519 46.406C111.748 46.7088 112.125 47.0747 112.465 46.8931L112.769 46.7088C113.148 46.4661 113.224 46.8295 112.997 47.1347L109.51 51.9315ZM107.577 21.3971C107.466 21.5779 107.426 21.5179 107.313 21.3971L104.432 17.3291C104.356 17.2047 104.356 17.0839 104.47 16.9021L107.313 12.8949C107.426 12.774 107.466 12.774 107.577 12.8949L110.458 16.963C110.571 17.0839 110.571 17.2047 110.458 17.3291L107.577 21.3971ZM118.036 51.9315C117.884 52.1733 117.847 52.1133 117.733 51.9924L114.662 47.6218C114.285 47.1347 114.285 47.014 114.285 46.2244V19.2709C114.285 18.9683 114.285 18.9048 114.096 18.6631L113.716 18.1152C113.337 17.5708 113.186 17.6917 112.693 18.0578L111.936 18.6022C111.821 18.6631 111.708 18.4204 111.899 18.1152L115.914 12.7133C116.065 12.4714 116.065 12.5323 116.18 12.6533L118.604 16.2367C118.908 16.7211 119.059 17.0239 119.059 17.8126V44.5276C119.059 44.7694 119.021 45.012 119.174 45.1929L120.044 46.406C120.271 46.7088 120.65 47.0747 120.99 46.8931L121.296 46.7088C121.674 46.4661 121.749 46.8295 121.522 47.1347L118.036 51.9315ZM135.277 56.1205L131.108 61.5224C130.995 61.7033 130.918 61.6459 130.845 61.5824C128.645 59.2145 126.904 58.1232 125.009 58.1232C123.682 58.1232 122.357 58.5458 120.65 59.2754C120.499 59.3389 120.461 59.1544 120.537 58.9728C122.317 54.6629 124.516 53.329 126.563 53.329C129.593 53.329 132.435 56.3021 133.572 57.5145L133.685 57.3936C133.987 56.3021 134.103 55.2673 134.103 54.297C134.103 51.2028 132.511 48.7139 130.541 47.1347L126.485 51.9315C126.296 52.1133 126.259 52.1133 126.146 51.9924L123.417 48.0453C123.038 47.4975 123.038 47.4975 123.038 46.6479V29.5896C123.038 29.2879 123.038 29.227 122.849 28.9818L122.317 28.2531C121.939 27.7087 121.789 27.8296 121.296 28.1931L120.537 28.74C120.424 28.8009 120.311 28.5592 120.499 28.2531L124.516 22.8519C124.668 22.6094 124.668 22.6703 124.78 22.791L127.358 26.5565C127.659 27.0409 127.812 27.3461 127.812 28.1357V44.7059C127.812 45.012 127.851 45.3139 127.963 45.4955L128.874 46.8295C129.137 47.2557 129.63 47.0747 129.934 46.8295L130.541 46.406V29.5296C130.541 29.227 130.541 29.227 130.352 28.9818L129.819 28.2531C129.441 27.7087 129.326 27.7696 128.796 28.0113L128.494 28.1357C128.381 28.1931 128.267 27.9504 128.456 27.6487L132.019 22.8519C132.169 22.6094 132.169 22.6703 132.283 22.791L134.86 26.5565C135.163 27.0409 135.314 27.3461 135.314 28.1357V44.1016C136.906 45.9825 137.589 47.8634 137.589 49.7454C137.589 51.8715 136.944 53.9342 135.277 56.1205ZM161.194 19.5152C160.513 19.5152 159.944 19.3918 159.301 19.2709V37.1786C159.301 37.6048 159.261 37.7257 159.11 37.9073L152.746 44.4042C153.692 45.1329 154.829 45.6199 156.005 45.6199C160.02 45.6199 164.566 42.0963 166.687 33.295C166.803 32.808 167.069 32.6871 167.069 33.5367V34.1447C167.069 43.7956 162.484 52.4759 155.701 52.4759C148.312 52.4759 143.877 43.5513 143.877 34.2654C143.877 27.2852 146.266 20.7892 151.684 18.0578C151.91 17.9335 151.95 18.1152 151.797 18.2995C149.409 21.2727 148.121 26.1304 148.121 30.9871C148.121 36.1474 149.409 41.2467 152.289 43.9807L153.881 42.1563C154.449 41.5519 154.527 40.8832 154.527 39.9127V17.6917C152.782 16.6604 151.229 16.0525 149.79 16.0525C147.819 16.0525 146.039 17.4465 144.297 20.8492C144.106 21.2127 143.991 21.2127 143.991 20.8492C144.219 13.9897 148.046 10.1035 151.836 10.1035C156.194 10.1035 160.209 13.5062 164.604 13.5062C166.159 13.5062 167.749 12.9558 169.076 11.8036C169.266 11.6827 169.302 11.9244 169.229 12.1662C167.864 17.6317 164.528 19.5152 161.194 19.5152ZM180.367 31.8376L173.661 38.5762V43.7355C173.661 44.2191 173.699 44.4042 173.963 44.5852L176.123 46.406C176.502 46.7088 177.148 47.014 177.525 46.6479L179.534 44.7694C179.876 44.4642 180.14 44.6461 179.951 44.8912L174.456 51.9924C174.343 52.1733 174.38 52.1133 174.229 51.9924L169.342 47.8634C168.962 47.5617 168.849 47.4375 168.849 46.5903V27.4061C168.849 27.1009 168.923 26.98 169.151 26.8591L177.148 22.7301C177.261 22.6703 177.374 22.6094 177.452 22.8519L180.444 31.3506C180.521 31.5349 180.521 31.7167 180.367 31.8376ZM173.736 25.9485L173.661 26.0061V37.789L176.314 34.2654C176.465 34.0846 176.465 33.9602 176.389 33.7819L173.736 25.9485ZM185.673 51.9315C185.52 52.1733 185.485 52.1133 185.371 51.9924L182.3 47.6218C181.922 47.1347 181.922 47.014 181.922 46.2244V19.2709C181.922 18.9683 181.922 18.9048 181.731 18.6631L181.354 18.1152C180.975 17.5708 180.822 17.6917 180.331 18.0578L179.572 18.6022C179.459 18.6631 179.344 18.4204 179.534 18.1152L183.55 12.7133C183.701 12.4714 183.701 12.5323 183.816 12.6533L186.241 16.2367C186.545 16.7211 186.696 17.0239 186.696 17.8126V44.5276C186.696 44.7694 186.657 45.012 186.808 45.1929L187.682 46.406C187.908 46.7088 188.288 47.0747 188.627 46.8931L188.931 46.7088C189.311 46.4661 189.385 46.8295 189.158 47.1347L185.673 51.9315ZM201.474 31.8376L194.768 38.5762V43.7355C194.768 44.2191 194.804 44.4042 195.071 44.5852L197.23 46.406C197.608 46.7088 198.253 47.014 198.631 46.6479L200.64 44.7694C200.981 44.4642 201.245 44.6461 201.057 44.8912L195.561 51.9924C195.45 52.1733 195.488 52.1133 195.335 51.9924L190.447 47.8634C190.068 47.5617 189.953 47.4375 189.953 46.5903V27.4061C189.953 27.1009 190.03 26.98 190.257 26.8591L198.253 22.7301C198.366 22.6703 198.48 22.6094 198.555 22.8519L201.549 31.3506C201.625 31.5349 201.625 31.7167 201.474 31.8376ZM194.84 25.9485L194.768 26.0061V37.789L197.421 34.2654C197.57 34.0846 197.57 33.9602 197.494 33.7819L194.84 25.9485ZM215.266 56.1205L211.098 61.5224C210.985 61.7033 210.909 61.6459 210.834 61.5824C208.634 59.2145 206.892 58.1232 204.998 58.1232C203.671 58.1232 202.344 58.5458 200.64 59.2754C200.488 59.3389 200.451 59.1544 200.526 58.9728C202.307 54.6629 204.505 53.329 206.552 53.329C209.584 53.329 212.423 56.3021 213.561 57.5145L213.675 57.3936C213.977 56.3021 214.092 55.2673 214.092 54.297C214.092 51.2028 212.501 48.7139 210.53 47.1347L206.437 51.9924C206.286 52.1733 206.172 52.1133 206.059 51.9315L203.482 48.1662C203.103 47.6218 203.027 47.3799 203.027 46.7686V29.0452C203.027 28.74 203.178 28.6801 203.254 28.6192L211.97 22.8519C212.198 22.6703 212.348 22.6703 212.423 22.791L214.851 26.6772C215.153 27.1616 215.304 27.5277 215.304 27.9504V44.1016C216.895 45.9825 217.578 47.8634 217.578 49.7454C217.578 51.8715 216.933 53.9342 215.266 56.1205ZM210.53 29.227C210.53 28.9818 210.492 28.8009 210.341 28.5592L208.938 26.3146C208.863 26.1904 208.825 26.2537 208.71 26.3146L207.8 26.98V44.4042C207.8 45.3748 207.955 45.4955 208.559 46.406C208.9 46.8931 209.087 47.0747 209.431 47.0747C209.735 47.0747 210.226 46.7088 210.53 46.406V29.227ZM227.618 30.561C227.429 30.8062 227.24 30.9271 227.052 30.9271C226.861 30.9271 226.67 30.8062 226.483 30.561L224.171 27.4061L223.944 27.7087V44.5852C223.944 44.9513 223.944 45.012 224.095 45.1929L224.701 46.0434C225.345 46.8931 225.496 47.014 226.179 46.5903L226.634 46.2851C226.937 46.1035 227.012 46.3451 226.823 46.6479L222.919 51.9315C222.77 52.1733 222.731 52.1133 222.617 51.9924L219.623 47.6827C219.283 47.1956 219.168 47.014 219.168 46.3451V29.0452L218.26 27.5277C218.183 27.4061 218.147 27.4061 218.032 27.5277L216.895 28.5592C216.555 28.8609 216.44 28.4374 216.669 28.1357L220.571 22.8519C220.722 22.6703 220.799 22.6703 220.875 22.791L223.527 26.98L226.141 22.8519C226.293 22.6703 226.406 22.6094 226.557 22.8519L228.566 25.8278C228.945 26.372 229.171 26.6772 229.4 26.6772C229.551 26.6772 229.742 26.5565 229.97 26.3146L230.498 25.7643C230.84 25.4017 230.991 25.9485 230.802 26.2537L227.618 30.561ZM241.601 51.9315C241.45 52.1733 241.41 52.1133 241.297 51.9924L237.848 47.1347L233.757 51.9924C233.606 52.1733 233.568 52.1133 233.415 51.9315L230.802 48.1662C230.386 47.6218 230.348 47.4975 230.348 46.7686V29.0452C230.348 28.74 230.498 28.6801 230.574 28.6192L239.367 22.791C239.517 22.6703 239.668 22.6703 239.819 22.9119L242.169 26.6772C242.511 27.2217 242.624 27.5277 242.624 27.8905V45.012L243.305 45.9825C244.14 47.1347 244.255 47.0747 244.632 46.7686L245.163 46.3451C245.503 46.0434 245.769 46.2851 245.465 46.7088L241.601 51.9315ZM237.848 29.3479C237.848 28.9818 237.812 28.8009 237.623 28.4983L236.258 26.3146C236.183 26.1904 236.183 26.2537 236.067 26.3146L235.122 26.98V44.5276C235.122 45.1329 235.197 45.4357 235.462 45.8009L235.954 46.527C236.294 47.014 236.713 47.2557 237.206 46.8931L237.848 46.406V29.3479ZM259.448 47.4975L256.001 51.7507C255.62 52.2342 255.544 52.1133 255.089 51.6898L251.491 48.1662V55.2673L252.512 56.6682C252.627 56.7856 252.627 56.9101 252.512 57.0917L249.52 61.5224C249.444 61.5824 249.369 61.7033 249.216 61.5224L245.882 57.2126C245.769 57.0917 245.809 56.9701 245.882 56.7856L246.717 55.2673V29.167L245.882 27.5277C245.845 27.4635 245.809 27.4635 245.731 27.5277L244.593 28.4374C244.33 28.6801 244.14 28.3774 244.366 28.0748L248.231 22.8519C248.344 22.6703 248.497 22.6703 248.572 22.791L251.376 27.2217L256.454 22.8519C256.607 22.7301 256.72 22.791 256.756 22.8519L259.297 26.6174C259.485 26.9191 259.714 27.4061 259.714 27.9504V46.527C259.714 46.9531 259.714 47.1956 259.448 47.4975ZM254.938 29.5296C254.938 29.167 254.862 28.8609 254.712 28.6192L253.65 26.98C253.575 26.8591 253.5 26.8591 253.384 26.9191L251.491 28.0748V47.3166L252.552 47.8634C253.422 48.2871 253.801 48.2271 254.181 47.6827L254.56 47.1347C254.902 46.6479 254.938 46.1035 254.938 45.1329V29.5296ZM274.422 51.9315C274.269 52.1733 274.269 52.1133 274.156 51.9924L271.124 47.6827C270.822 47.2557 270.671 46.8931 270.671 46.1035V29.4688C270.671 29.2879 270.671 29.1036 270.518 28.9218L269.495 27.4635C269.381 27.3461 269.23 27.2852 269.08 27.4061L267.145 28.8609V44.5276C267.145 44.7694 267.107 45.012 267.26 45.1929L268.13 46.406C268.358 46.7088 268.736 47.0747 269.08 46.8931L269.381 46.7088C269.761 46.4661 269.835 46.8295 269.608 47.1347L266.123 51.9315C265.972 52.1733 265.932 52.1133 265.819 51.9924L262.75 47.6218C262.372 47.1347 262.372 47.014 262.372 46.2244V19.2709C262.372 18.9683 262.372 18.9048 262.181 18.6631L261.802 18.1152C261.422 17.5708 261.272 17.6917 260.781 18.0578L260.022 18.6022C259.909 18.6631 259.793 18.4204 259.984 18.1152L263.999 12.7133C264.152 12.4714 264.152 12.5323 264.266 12.6533L266.691 16.2367C266.995 16.7211 267.145 17.0239 267.145 17.8126V27.9504L272.185 22.8519C272.338 22.7301 272.487 22.7301 272.602 22.9119L275.065 26.5565C275.405 27.0409 275.481 27.4061 275.481 28.0113V44.6461C275.481 44.9513 275.481 45.012 275.67 45.2538L276.619 46.527C276.997 47.0747 277.148 46.9531 277.64 46.5903L278.399 46.0434C278.514 45.9825 278.626 46.2244 278.437 46.527L274.422 51.9315Z" fill="black"/>
</svg>
